<?xml version="1.0" encoding="UTF-8" standalone="no"?><svg xmlns="http://www.w3.org/2000/svg" xmlns:xlink="http://www.w3.org/1999/xlink" contentScriptType="application/ecmascript" contentStyleType="text/css" height="403px" preserveAspectRatio="none" style="width:976px;height:403px;" version="1.1" viewBox="0 0 976 403" width="976px" zoomAndPan="magnify"><defs><filter height="300%" id="f1u5v2gzpbf8d3" width="300%" x="-1" y="-1"><feGaussianBlur result="blurOut" stdDeviation="2.0"/><feColorMatrix in="blurOut" result="blurOut2" type="matrix" values="0 0 0 0 0 0 0 0 0 0 0 0 0 0 0 0 0 0 .4 0"/><feOffset dx="4.0" dy="4.0" in="blurOut2" result="blurOut3"/><feBlend in="SourceGraphic" in2="blurOut3" mode="normal"/></filter></defs><g><ellipse cx="262.5" cy="20" fill="#000000" filter="url(#f1u5v2gzpbf8d3)" rx="10" ry="10" style="stroke: none; stroke-width: 1.0;"/><rect fill="#FEFECE" filter="url(#f1u5v2gzpbf8d3)" height="33.9688" rx="12.5" ry="12.5" style="stroke: #A80036; stroke-width: 1.5;" width="129" x="198" y="50"/><text fill="#000000" font-family="sans-serif" font-size="12" lengthAdjust="spacingAndGlyphs" textLength="70" x="208" y="71.1387">idpconfgen</text><text fill="#000000" font-family="sans-serif" font-size="12" font-style="italic" lengthAdjust="spacingAndGlyphs" textLength="35" x="282" y="71.1387">pdbdl</text><rect fill="#D3D3D3" filter="url(#f1u5v2gzpbf8d3)" height="297.375" style="stroke: #000000; stroke-width: 2.0;" width="955" x="10" y="94.7705"/><path d="M86,95.7705 L86,104.0674 L76,114.0674 L10,114.0674 " fill="none" style="stroke: #000000; stroke-width: 2.0;"/><text fill="#000000" font-family="sans-serif" font-size="14" lengthAdjust="spacingAndGlyphs" textLength="66" x="13" y="108.7656">Examples</text><path d="M525,130.9189 L525,147.0518 L505,151.0518 L525,155.0518 L525,171.1846 A0,0 0 0 0 525,171.1846 L955,171.1846 A0,0 0 0 0 955,171.1846 L955,140.9189 L945,130.9189 L525,130.9189 A0,0 0 0 0 525,130.9189 " fill="#FBFB77" filter="url(#f1u5v2gzpbf8d3)" style="stroke: #A80036; stroke-width: 1.0;"/><path d="M945,130.9189 L945,140.9189 L955,140.9189 L945,130.9189 " fill="#FBFB77" style="stroke: #A80036; stroke-width: 1.0;"/><text fill="#000000" font-family="sans-serif" font-size="13" font-style="italic" lengthAdjust="spacingAndGlyphs" textLength="68" x="531" y="147.9858">--structure</text><text fill="#000000" font-family="sans-serif" font-size="13" lengthAdjust="spacingAndGlyphs" textLength="337" x="603" y="147.9858">parameter defines which type of secondary structure</text><text fill="#000000" font-family="sans-serif" font-size="13" lengthAdjust="spacingAndGlyphs" textLength="223" x="531" y="163.1187">elements are going to be selected.</text><rect fill="#FFFFFF" filter="url(#f1u5v2gzpbf8d3)" height="33.9688" rx="12.5" ry="12.5" style="stroke: #A80036; stroke-width: 1.5;" width="485" x="20" y="134.0674"/><text fill="#000000" font-family="sans-serif" font-size="12" lengthAdjust="spacingAndGlyphs" textLength="152" x="30" y="155.2061">$ idpconfgen secextract</text><text fill="#000000" font-family="sans-serif" font-size="12" font-style="italic" lengthAdjust="spacingAndGlyphs" textLength="54" x="186" y="155.2061">pdb_files</text><text fill="#000000" font-family="sans-serif" font-size="12" lengthAdjust="spacingAndGlyphs" textLength="0" x="244" y="155.2061"/><text fill="#000000" font-family="sans-serif" font-size="12" font-style="italic" lengthAdjust="spacingAndGlyphs" textLength="61" x="244" y="155.2061">sscalc_file</text><text fill="#000000" font-family="sans-serif" font-size="12" lengthAdjust="spacingAndGlyphs" textLength="12" x="309" y="155.2061">-d</text><text fill="#000000" font-family="sans-serif" font-size="12" font-style="italic" lengthAdjust="spacingAndGlyphs" textLength="36" x="325" y="155.2061">folder</text><text fill="#000000" font-family="sans-serif" font-size="12" lengthAdjust="spacingAndGlyphs" textLength="123" x="361" y="155.2061">[.tar] -s[--structure]</text><text fill="#000000" font-family="sans-serif" font-size="12" font-style="italic" lengthAdjust="spacingAndGlyphs" textLength="7" x="488" y="155.2061">L</text><path d="M494,188.0361 L494,204.1689 L474,208.1689 L494,212.1689 L494,228.3018 A0,0 0 0 0 494,228.3018 L744,228.3018 A0,0 0 0 0 744,228.3018 L744,198.0361 L734,188.0361 L494,188.0361 A0,0 0 0 0 494,188.0361 " fill="#FBFB77" filter="url(#f1u5v2gzpbf8d3)" style="stroke: #A80036; stroke-width: 1.0;"/><path d="M734,188.0361 L734,198.0361 L744,198.0361 L734,188.0361 " fill="#FBFB77" style="stroke: #A80036; stroke-width: 1.0;"/><text fill="#000000" font-family="sans-serif" font-size="13" lengthAdjust="spacingAndGlyphs" textLength="38" x="500" y="205.103">where</text><text fill="#000000" font-family="sans-serif" font-size="13" font-style="italic" lengthAdjust="spacingAndGlyphs" textLength="86" x="542" y="205.103">segments.tar</text><text fill="#000000" font-family="sans-serif" font-size="13" lengthAdjust="spacingAndGlyphs" textLength="97" x="632" y="205.103">is a destination</text><text fill="#000000" font-family="sans-serif" font-size="13" lengthAdjust="spacingAndGlyphs" textLength="44" x="500" y="220.2358">tar file.</text><rect fill="#FFFFFF" filter="url(#f1u5v2gzpbf8d3)" height="33.9688" rx="12.5" ry="12.5" style="stroke: #A80036; stroke-width: 1.5;" width="423" x="51" y="191.1846"/><text fill="#000000" font-family="sans-serif" font-size="12" lengthAdjust="spacingAndGlyphs" textLength="403" x="61" y="212.3232">$ idpconfgen secextract sscalc.json 28k.tar -d segments.tar -s L</text><path d="M28,248.3018 L23,293.2236 L28,338.1455 M497,248.3018 L502,293.2236 L497,338.1455 " fill="#FFFFFF" filter="url(#f1u5v2gzpbf8d3)" style="stroke: #A80036; stroke-width: 1.5;"/><text fill="#000000" font-family="sans-serif" font-size="12" lengthAdjust="spacingAndGlyphs" textLength="459" x="33" y="269.4404">$ idpconfgen secextract sscalc.json 28.tar -d segs.tar -s L,H -c 2000 -m 4</text><text fill="#000000" font-family="sans-serif" font-size="12" lengthAdjust="spacingAndGlyphs" textLength="62" x="33" y="283.4092">note right</text><text fill="#000000" font-family="sans-serif" font-size="12" lengthAdjust="spacingAndGlyphs" textLength="38" x="49" y="297.3779">where</text><text fill="#000000" font-family="sans-serif" font-size="12" font-style="italic" lengthAdjust="spacingAndGlyphs" textLength="15" x="91" y="297.3779">-m</text><text fill="#000000" font-family="sans-serif" font-size="12" lengthAdjust="spacingAndGlyphs" textLength="273" x="110" y="297.3779">is the minimum size a segment is accepted.</text><text fill="#000000" font-family="sans-serif" font-size="12" lengthAdjust="spacingAndGlyphs" textLength="57" x="33" y="311.3467">end note</text><text fill="#000000" font-family="sans-serif" font-size="12" lengthAdjust="spacingAndGlyphs" textLength="0" x="37" y="325.3154"/><ellipse cx="262.5" cy="369.1455" fill="#FFFFFF" filter="url(#f1u5v2gzpbf8d3)" rx="11" ry="11" style="stroke: #000000; stroke-width: 1.0;"/><ellipse cx="262.5" cy="369.1455" fill="#000000" rx="6" ry="6" style="stroke: #7F7F7F; stroke-width: 1.0;"/><line style="stroke: #A80036; stroke-width: 1.5;" x1="262.5" x2="262.5" y1="30" y2="50"/><polygon fill="#A80036" points="258.5,40,262.5,50,266.5,40,262.5,44" style="stroke: #A80036; stroke-width: 1.0;"/><line style="stroke: #A80036; stroke-width: 1.5;" x1="262.5" x2="262.5" y1="168.0361" y2="191.1846"/><polygon fill="#A80036" points="258.5,181.1846,262.5,191.1846,266.5,181.1846,262.5,185.1846" style="stroke: #A80036; stroke-width: 1.0;"/><line style="stroke: #A80036; stroke-width: 1.5;" x1="262.5" x2="262.5" y1="225.1533" y2="248.3018"/><polygon fill="#A80036" points="258.5,238.3018,262.5,248.3018,266.5,238.3018,262.5,242.3018" style="stroke: #A80036; stroke-width: 1.0;"/><line style="stroke: #A80036; stroke-width: 1.5;" x1="262.5" x2="262.5" y1="338.1455" y2="358.1455"/><polygon fill="#A80036" points="258.5,348.1455,262.5,358.1455,266.5,348.1455,262.5,352.1455" style="stroke: #A80036; stroke-width: 1.0;"/><line style="stroke: #A80036; stroke-width: 1.5;" x1="262.5" x2="262.5" y1="83.9688" y2="134.0674"/><polygon fill="#A80036" points="258.5,124.0674,262.5,134.0674,266.5,124.0674,262.5,128.0674" style="stroke: #A80036; stroke-width: 1.0;"/><!--MD5=[74e71c7f441911fdd97fa0c802212a91]
@startuml

start

:idpconfgen //pdbdl//;

partition #LIGHTGREY Examples {
    #WHITE:$ idpconfgen secextract //pdb_files// //sscalc_file// -d //folder//[.tar] -s[- -structure] //L//;
    note right
        //- -structure// parameter defines which type of secondary structure
        elements are going to be selected.
    end note
    #WHITE:$ idpconfgen secextract sscalc.json 28k.tar -d segments.tar -s L;
    note right
        where //segments.tar// is a destination
        tar file.
    end note
    #WHITE:$ idpconfgen secextract sscalc.json 28.tar -d segs.tar -s L,H -c 2000 -m 4
    note right
        where //-m// is the minimum size a segment is accepted.
    end note
    }
stop

@enduml

PlantUML version 1.2020.05(Thu Mar 19 17:17:32 EDT 2020)
(GPL source distribution)
Java Runtime: OpenJDK Runtime Environment
JVM: OpenJDK 64-Bit Server VM
Java Version: 11.0.7+10-post-Ubuntu-2ubuntu218.04
Operating System: Linux
Default Encoding: UTF-8
Language: en
Country: US
--></g></svg>