<?xml version="1.0" encoding="UTF-8" standalone="no"?><svg xmlns="http://www.w3.org/2000/svg" xmlns:xlink="http://www.w3.org/1999/xlink" contentScriptType="application/ecmascript" contentStyleType="text/css" height="1161px" preserveAspectRatio="none" style="width:871px;height:1161px;" version="1.1" viewBox="0 0 871 1161" width="871px" zoomAndPan="magnify"><defs><filter height="300%" id="f1srfa50mw5hn6" width="300%" x="-1" y="-1"><feGaussianBlur result="blurOut" stdDeviation="2.0"/><feColorMatrix in="blurOut" result="blurOut2" type="matrix" values="0 0 0 0 0 0 0 0 0 0 0 0 0 0 0 0 0 0 .4 0"/><feOffset dx="4.0" dy="4.0" in="blurOut2" result="blurOut3"/><feBlend in="SourceGraphic" in2="blurOut3" mode="normal"/></filter></defs><g><ellipse cx="270.25" cy="20" fill="#000000" filter="url(#f1srfa50mw5hn6)" rx="10" ry="10" style="stroke: none; stroke-width: 1.0;"/><rect fill="#FEFECE" filter="url(#f1srfa50mw5hn6)" height="33.9688" rx="12.5" ry="12.5" style="stroke: #A80036; stroke-width: 1.5;" width="129" x="205.75" y="50"/><text fill="#000000" font-family="sans-serif" font-size="12" lengthAdjust="spacingAndGlyphs" textLength="70" x="215.75" y="71.1387">idpconfgen</text><text fill="#000000" font-family="sans-serif" font-size="12" font-style="italic" lengthAdjust="spacingAndGlyphs" textLength="35" x="289.75" y="71.1387">pdbdl</text><rect fill="#D3D3D3" filter="url(#f1srfa50mw5hn6)" height="145.5313" style="stroke: #000000; stroke-width: 2.0;" width="815.5" x="11.75" y="94.7705"/><path d="M87.75,95.7705 L87.75,104.0674 L77.75,114.0674 L11.75,114.0674 " fill="none" style="stroke: #000000; stroke-width: 2.0;"/><text fill="#000000" font-family="sans-serif" font-size="14" lengthAdjust="spacingAndGlyphs" textLength="66" x="14.75" y="108.7656">Examples</text><path d="M436.25,130.9189 L436.25,147.0518 L416.25,151.0518 L436.25,155.0518 L436.25,171.1846 A0,0 0 0 0 436.25,171.1846 L817.25,171.1846 A0,0 0 0 0 817.25,171.1846 L817.25,140.9189 L807.25,130.9189 L436.25,130.9189 A0,0 0 0 0 436.25,130.9189 " fill="#FBFB77" filter="url(#f1srfa50mw5hn6)" style="stroke: #A80036; stroke-width: 1.0;"/><path d="M807.25,130.9189 L807.25,140.9189 L817.25,140.9189 L807.25,130.9189 " fill="#FBFB77" style="stroke: #A80036; stroke-width: 1.0;"/><text fill="#000000" font-family="sans-serif" font-size="13" lengthAdjust="spacingAndGlyphs" textLength="38" x="442.25" y="147.9858">where</text><text fill="#000000" font-family="sans-serif" font-size="13" font-style="italic" lengthAdjust="spacingAndGlyphs" textLength="59" x="484.25" y="147.9858">culled.list</text><text fill="#000000" font-family="sans-serif" font-size="13" lengthAdjust="spacingAndGlyphs" textLength="255" x="547.25" y="147.9858">is a list containing PDBID[CHAIN] codes,</text><text fill="#000000" font-family="sans-serif" font-size="13" lengthAdjust="spacingAndGlyphs" textLength="24" x="442.25" y="163.1187">and</text><text fill="#000000" font-family="sans-serif" font-size="13" font-style="italic" lengthAdjust="spacingAndGlyphs" textLength="36" x="470.25" y="163.1187">folder</text><text fill="#000000" font-family="sans-serif" font-size="13" lengthAdjust="spacingAndGlyphs" textLength="262" x="510.25" y="163.1187">is a destination folder that may not exist.</text><rect fill="#FFFFFF" filter="url(#f1srfa50mw5hn6)" height="33.9688" rx="12.5" ry="12.5" style="stroke: #A80036; stroke-width: 1.5;" width="292" x="124.25" y="134.0674"/><text fill="#000000" font-family="sans-serif" font-size="12" lengthAdjust="spacingAndGlyphs" textLength="272" x="134.25" y="155.2061">$ idpconfgen pdbdl culled.list -d folder -u -n</text><path d="M538.75,188.0361 L538.75,204.1689 L518.75,208.1689 L538.75,212.1689 L538.75,228.3018 A0,0 0 0 0 538.75,228.3018 L755.75,228.3018 A0,0 0 0 0 755.75,228.3018 L755.75,198.0361 L745.75,188.0361 L538.75,188.0361 A0,0 0 0 0 538.75,188.0361 " fill="#FBFB77" filter="url(#f1srfa50mw5hn6)" style="stroke: #A80036; stroke-width: 1.0;"/><path d="M745.75,188.0361 L745.75,198.0361 L755.75,198.0361 L745.75,188.0361 " fill="#FBFB77" style="stroke: #A80036; stroke-width: 1.0;"/><text fill="#000000" font-family="sans-serif" font-size="13" lengthAdjust="spacingAndGlyphs" textLength="38" x="544.75" y="205.103">where</text><text fill="#000000" font-family="sans-serif" font-size="13" font-style="italic" lengthAdjust="spacingAndGlyphs" textLength="53" x="586.75" y="205.103">pdbs.tar</text><text fill="#000000" font-family="sans-serif" font-size="13" lengthAdjust="spacingAndGlyphs" textLength="97" x="643.75" y="205.103">is a destination</text><text fill="#000000" font-family="sans-serif" font-size="13" lengthAdjust="spacingAndGlyphs" textLength="44" x="544.75" y="220.2358">tar file.</text><rect fill="#FFFFFF" filter="url(#f1srfa50mw5hn6)" height="33.9688" rx="12.5" ry="12.5" style="stroke: #A80036; stroke-width: 1.5;" width="497" x="21.75" y="191.1846"/><text fill="#000000" font-family="sans-serif" font-size="12" lengthAdjust="spacingAndGlyphs" textLength="477" x="31.75" y="212.3232">$ idpconfgen pdbdl 12AS_A 4YBB_B culled.list -d pdbs.tar -u -n -chunks 5000</text><path d="M550.5,585.0449 L550.5,670.709 L859.5,670.709 L859.5,595.0449 L849.5,585.0449 L550.5,585.0449 " fill="#FBFB77" filter="url(#f1srfa50mw5hn6)" style="stroke: #A80036; stroke-width: 1.0;"/><path d="M849.5,585.0449 L849.5,595.0449 L859.5,595.0449 L849.5,585.0449 " fill="#FBFB77" style="stroke: #A80036; stroke-width: 1.0;"/><text fill="#000000" font-family="sans-serif" font-size="13" lengthAdjust="spacingAndGlyphs" textLength="203" x="556.5" y="602.1118">This block is performed for each</text><text fill="#000000" font-family="sans-serif" font-size="13" lengthAdjust="spacingAndGlyphs" textLength="218" x="556.5" y="617.2446">PDB file. In multiprocessing mode,</text><text fill="#000000" font-family="sans-serif" font-size="13" lengthAdjust="spacingAndGlyphs" textLength="288" x="556.5" y="632.3774">each core pick a PDB code and run the whole</text><text fill="#000000" font-family="sans-serif" font-size="13" lengthAdjust="spacingAndGlyphs" textLength="271" x="556.5" y="647.5103">block, once it is finished another PDB code</text><text fill="#000000" font-family="sans-serif" font-size="13" lengthAdjust="spacingAndGlyphs" textLength="59" x="556.5" y="662.6431">is picked.</text><rect fill="#000000" filter="url(#f1srfa50mw5hn6)" height="6" rx="2.5" ry="2.5" style="stroke: #000000; stroke-width: 1.0;" width="520.5" x="10" y="260.3018"/><path d="M318.5,283.1533 L318.5,299.2861 L298.5,303.2861 L318.5,307.2861 L318.5,323.4189 A0,0 0 0 0 318.5,323.4189 L516.5,323.4189 A0,0 0 0 0 516.5,323.4189 L516.5,293.1533 L506.5,283.1533 L318.5,283.1533 A0,0 0 0 0 318.5,283.1533 " fill="#FBFB77" filter="url(#f1srfa50mw5hn6)" style="stroke: #A80036; stroke-width: 1.0;"/><path d="M506.5,283.1533 L506.5,293.1533 L516.5,293.1533 L506.5,283.1533 " fill="#FBFB77" style="stroke: #A80036; stroke-width: 1.0;"/><text fill="#000000" font-family="sans-serif" font-size="13" lengthAdjust="spacingAndGlyphs" textLength="176" x="324.5" y="300.2202">Attempts to download PDB,</text><text fill="#000000" font-family="sans-serif" font-size="13" lengthAdjust="spacingAndGlyphs" textLength="177" x="324.5" y="315.353">if unavailable, attempts CIF.</text><rect fill="#FEFECE" filter="url(#f1srfa50mw5hn6)" height="33.9688" rx="12.5" ry="12.5" style="stroke: #A80036; stroke-width: 1.5;" width="177" x="121.5" y="286.3018"/><text fill="#000000" font-family="sans-serif" font-size="12" lengthAdjust="spacingAndGlyphs" textLength="157" x="131.5" y="307.4404">downloads PDB or mmCIF</text><rect fill="#E6FFE6" filter="url(#f1srfa50mw5hn6)" height="244.1719" style="stroke: #000000; stroke-width: 2.0;" width="372" x="24" y="334.2207"/><path d="M102,335.2207 L102,343.5176 L92,353.5176 L24,353.5176 " fill="none" style="stroke: #000000; stroke-width: 2.0;"/><text fill="#000000" font-family="sans-serif" font-size="14" lengthAdjust="spacingAndGlyphs" textLength="50" x="27" y="348.2158">filtering</text><text fill="#000000" font-family="sans-serif" font-size="14" font-weight="bold" lengthAdjust="spacingAndGlyphs" textLength="14" x="81" y="348.2158">in</text><rect fill="#FEFECE" filter="url(#f1srfa50mw5hn6)" height="33.9688" rx="12.5" ry="12.5" style="stroke: #A80036; stroke-width: 1.5;" width="352" x="34" y="370.5176"/><text fill="#000000" font-family="sans-serif" font-size="12" lengthAdjust="spacingAndGlyphs" textLength="332" x="44" y="391.6563">converts PDB and mmCIF to the same internal format</text><rect fill="#FEFECE" filter="url(#f1srfa50mw5hn6)" height="33.9688" rx="12.5" ry="12.5" style="stroke: #A80036; stroke-width: 1.5;" width="244" x="88" y="424.4863"/><text fill="#000000" font-family="sans-serif" font-size="12" lengthAdjust="spacingAndGlyphs" textLength="224" x="98" y="445.625">select MODEL 1 (if multiple MODELS)</text><rect fill="#FEFECE" filter="url(#f1srfa50mw5hn6)" height="33.9688" rx="12.5" ry="12.5" style="stroke: #A80036; stroke-width: 1.5;" width="150" x="135" y="478.4551"/><text fill="#000000" font-family="sans-serif" font-size="12" lengthAdjust="spacingAndGlyphs" textLength="130" x="145" y="499.5938">select desired CHAIN</text><rect fill="#FEFECE" filter="url(#f1srfa50mw5hn6)" height="33.9688" rx="12.5" ry="12.5" style="stroke: #A80036; stroke-width: 1.5;" width="170" x="125" y="532.4238"/><text fill="#000000" font-family="sans-serif" font-size="12" lengthAdjust="spacingAndGlyphs" textLength="150" x="135" y="553.5625">keep altLoc `A` or None</text><rect fill="#FFE6E6" filter="url(#f1srfa50mw5hn6)" height="190.2031" style="stroke: #000000; stroke-width: 2.0;" width="212" x="104" y="613.3926"/><path d="M170,614.3926 L170,622.6895 L160,632.6895 L104,632.6895 " fill="none" style="stroke: #000000; stroke-width: 2.0;"/><text fill="#000000" font-family="sans-serif" font-size="14" lengthAdjust="spacingAndGlyphs" textLength="56" x="107" y="627.3877">filter out</text><rect fill="#FEFECE" filter="url(#f1srfa50mw5hn6)" height="33.9688" rx="12.5" ry="12.5" style="stroke: #A80036; stroke-width: 1.5;" width="192" x="114" y="649.6895"/><text fill="#000000" font-family="sans-serif" font-size="12" lengthAdjust="spacingAndGlyphs" textLength="172" x="124" y="670.8281">non- N, C, CA, O, S, Se, H, D</text><rect fill="#FEFECE" filter="url(#f1srfa50mw5hn6)" height="33.9688" rx="12.5" ry="12.5" style="stroke: #A80036; stroke-width: 1.5;" width="152" x="134" y="703.6582"/><text fill="#000000" font-family="sans-serif" font-size="12" lengthAdjust="spacingAndGlyphs" textLength="132" x="144" y="724.7969">non- ribonucleiotides</text><rect fill="#FEFECE" filter="url(#f1srfa50mw5hn6)" height="33.9688" rx="12.5" ry="12.5" style="stroke: #A80036; stroke-width: 1.5;" width="153" x="133.5" y="757.627"/><text fill="#000000" font-family="sans-serif" font-size="12" lengthAdjust="spacingAndGlyphs" textLength="133" x="143.5" y="778.7656">non- ligands (&gt;1500)</text><rect fill="#FFFFFF" filter="url(#f1srfa50mw5hn6)" height="150.2031" style="stroke: #000000; stroke-width: 2.0;" width="263" x="78.5" y="814.3975"/><path d="M209.5,815.3975 L209.5,823.6943 L199.5,833.6943 L78.5,833.6943 " fill="none" style="stroke: #000000; stroke-width: 2.0;"/><text fill="#000000" font-family="sans-serif" font-size="14" lengthAdjust="spacingAndGlyphs" textLength="121" x="81.5" y="828.3926">additional parsing</text><rect fill="#FEFECE" filter="url(#f1srfa50mw5hn6)" height="33.9688" rx="12.5" ry="12.5" style="stroke: #A80036; stroke-width: 1.5;" width="231" x="94.5" y="850.6943"/><text fill="#000000" font-family="sans-serif" font-size="12" lengthAdjust="spacingAndGlyphs" textLength="211" x="104.5" y="871.833">renumber atoms for saved chains</text><rect fill="#FEFECE" filter="url(#f1srfa50mw5hn6)" height="47.9375" rx="12.5" ry="12.5" style="stroke: #A80036; stroke-width: 1.5;" width="243" x="88.5" y="904.6631"/><text fill="#000000" font-family="sans-serif" font-size="12" lengthAdjust="spacingAndGlyphs" textLength="141" x="98.5" y="925.8018">delete insertion codes</text><text fill="#000000" font-family="sans-serif" font-size="12" lengthAdjust="spacingAndGlyphs" textLength="5" x="114.5" y="939.7705">(</text><text fill="#000000" font-family="sans-serif" font-size="12" font-style="italic" lengthAdjust="spacingAndGlyphs" textLength="103" x="119.5" y="939.7705">pdb_delinsertion</text><text fill="#000000" font-family="sans-serif" font-size="12" lengthAdjust="spacingAndGlyphs" textLength="28" x="226.5" y="939.7705">from</text><text fill="#000000" font-family="sans-serif" font-size="12" font-style="italic" lengthAdjust="spacingAndGlyphs" textLength="58" x="258.5" y="939.7705">pdb-tools</text><text fill="#000000" font-family="sans-serif" font-size="12" lengthAdjust="spacingAndGlyphs" textLength="5" x="316.5" y="939.7705">)</text><rect fill="#000000" filter="url(#f1srfa50mw5hn6)" height="6" rx="2.5" ry="2.5" style="stroke: #000000; stroke-width: 1.0;" width="520.5" x="10" y="984.6006"/><path d="M461.5,1039.4521 L461.5,1079.7178 L688.5,1079.7178 L688.5,1049.4521 L678.5,1039.4521 L461.5,1039.4521 " fill="#FBFB77" filter="url(#f1srfa50mw5hn6)" style="stroke: #A80036; stroke-width: 1.0;"/><path d="M678.5,1039.4521 L678.5,1049.4521 L688.5,1049.4521 L678.5,1039.4521 " fill="#FBFB77" style="stroke: #A80036; stroke-width: 1.0;"/><text fill="#000000" font-family="sans-serif" font-size="13" lengthAdjust="spacingAndGlyphs" textLength="206" x="467.5" y="1056.519">Files are saved after each chunk</text><text fill="#000000" font-family="sans-serif" font-size="13" lengthAdjust="spacingAndGlyphs" textLength="86" x="467.5" y="1071.6519">is completed.</text><polygon fill="#FEFECE" filter="url(#f1srfa50mw5hn6)" points="225.25,1010.6006,315.25,1010.6006,327.25,1022.6006,315.25,1034.6006,225.25,1034.6006,213.25,1022.6006,225.25,1010.6006" style="stroke: #A80036; stroke-width: 1.5;"/><text fill="#000000" font-family="sans-serif" font-size="11" lengthAdjust="spacingAndGlyphs" textLength="90" x="225.25" y="1026.4087">destination `-d`</text><text fill="#000000" font-family="sans-serif" font-size="11" lengthAdjust="spacingAndGlyphs" textLength="21" x="192.25" y="1020.0063">TAR</text><text fill="#000000" font-family="sans-serif" font-size="11" lengthAdjust="spacingAndGlyphs" textLength="33" x="327.25" y="1020.0063">folder</text><rect fill="#FEFECE" filter="url(#f1srfa50mw5hn6)" height="33.9688" rx="12.5" ry="12.5" style="stroke: #A80036; stroke-width: 1.5;" width="113" x="134.5" y="1044.6006"/><text fill="#000000" font-family="sans-serif" font-size="12" lengthAdjust="spacingAndGlyphs" textLength="93" x="144.5" y="1065.7393">save in TAR file</text><rect fill="#FEFECE" filter="url(#f1srfa50mw5hn6)" height="33.9688" rx="12.5" ry="12.5" style="stroke: #A80036; stroke-width: 1.5;" width="164" x="267.5" y="1044.6006"/><text fill="#000000" font-family="sans-serif" font-size="12" lengthAdjust="spacingAndGlyphs" textLength="144" x="277.5" y="1065.7393">save PDB/CIFs to folder</text><polygon fill="#FEFECE" filter="url(#f1srfa50mw5hn6)" points="270.25,1084.5693,282.25,1096.5693,270.25,1108.5693,258.25,1096.5693,270.25,1084.5693" style="stroke: #A80036; stroke-width: 1.5;"/><ellipse cx="270.25" cy="1139.5693" fill="#FFFFFF" filter="url(#f1srfa50mw5hn6)" rx="11" ry="11" style="stroke: #000000; stroke-width: 1.0;"/><ellipse cx="270.25" cy="1139.5693" fill="#000000" rx="6" ry="6" style="stroke: #7F7F7F; stroke-width: 1.0;"/><line style="stroke: #A80036; stroke-width: 1.5;" x1="270.25" x2="270.25" y1="30" y2="50"/><polygon fill="#A80036" points="266.25,40,270.25,50,274.25,40,270.25,44" style="stroke: #A80036; stroke-width: 1.0;"/><line style="stroke: #A80036; stroke-width: 1.5;" x1="270.25" x2="270.25" y1="168.0361" y2="191.1846"/><polygon fill="#A80036" points="266.25,181.1846,270.25,191.1846,274.25,181.1846,270.25,185.1846" style="stroke: #A80036; stroke-width: 1.0;"/><line style="stroke: #A80036; stroke-width: 1.5;" x1="270.25" x2="270.25" y1="83.9688" y2="134.0674"/><polygon fill="#A80036" points="266.25,124.0674,270.25,134.0674,274.25,124.0674,270.25,128.0674" style="stroke: #A80036; stroke-width: 1.0;"/><line style="stroke: #A80036; stroke-width: 1.5;" x1="210" x2="210" y1="404.4863" y2="424.4863"/><polygon fill="#A80036" points="206,414.4863,210,424.4863,214,414.4863,210,418.4863" style="stroke: #A80036; stroke-width: 1.0;"/><line style="stroke: #A80036; stroke-width: 1.5;" x1="210" x2="210" y1="458.4551" y2="478.4551"/><polygon fill="#A80036" points="206,468.4551,210,478.4551,214,468.4551,210,472.4551" style="stroke: #A80036; stroke-width: 1.0;"/><line style="stroke: #A80036; stroke-width: 1.5;" x1="210" x2="210" y1="512.4238" y2="532.4238"/><polygon fill="#A80036" points="206,522.4238,210,532.4238,214,522.4238,210,526.4238" style="stroke: #A80036; stroke-width: 1.0;"/><line style="stroke: #A80036; stroke-width: 1.5;" x1="210" x2="210" y1="320.2705" y2="370.5176"/><polygon fill="#A80036" points="206,360.5176,210,370.5176,214,360.5176,210,364.5176" style="stroke: #A80036; stroke-width: 1.0;"/><line style="stroke: #A80036; stroke-width: 1.5;" x1="210" x2="210" y1="683.6582" y2="703.6582"/><polygon fill="#A80036" points="206,693.6582,210,703.6582,214,693.6582,210,697.6582" style="stroke: #A80036; stroke-width: 1.0;"/><line style="stroke: #A80036; stroke-width: 1.5;" x1="210" x2="210" y1="737.627" y2="757.627"/><polygon fill="#A80036" points="206,747.627,210,757.627,214,747.627,210,751.627" style="stroke: #A80036; stroke-width: 1.0;"/><line style="stroke: #A80036; stroke-width: 1.5;" x1="210" x2="210" y1="566.3926" y2="649.6895"/><polygon fill="#A80036" points="206,639.6895,210,649.6895,214,639.6895,210,643.6895" style="stroke: #A80036; stroke-width: 1.0;"/><line style="stroke: #A80036; stroke-width: 1.5;" x1="210" x2="210" y1="884.6631" y2="904.6631"/><polygon fill="#A80036" points="206,894.6631,210,904.6631,214,894.6631,210,898.6631" style="stroke: #A80036; stroke-width: 1.0;"/><line style="stroke: #A80036; stroke-width: 1.5;" x1="210" x2="210" y1="791.5957" y2="850.6943"/><polygon fill="#A80036" points="206,840.6943,210,850.6943,214,840.6943,210,844.6943" style="stroke: #A80036; stroke-width: 1.0;"/><line style="stroke: #A80036; stroke-width: 1.5;" x1="210" x2="210" y1="266.3018" y2="286.3018"/><polygon fill="#A80036" points="206,276.3018,210,286.3018,214,276.3018,210,280.3018" style="stroke: #A80036; stroke-width: 1.0;"/><line style="stroke: #A80036; stroke-width: 1.5;" x1="210" x2="210" y1="952.6006" y2="984.6006"/><polygon fill="#A80036" points="206,974.6006,210,984.6006,214,974.6006,210,978.6006" style="stroke: #A80036; stroke-width: 1.0;"/><line style="stroke: #A80036; stroke-width: 1.5;" x1="270.25" x2="270.25" y1="225.1533" y2="260.3018"/><polygon fill="#A80036" points="266.25,250.3018,270.25,260.3018,274.25,250.3018,270.25,254.3018" style="stroke: #A80036; stroke-width: 1.0;"/><line style="stroke: #A80036; stroke-width: 1.5;" x1="213.25" x2="191" y1="1022.6006" y2="1022.6006"/><line style="stroke: #A80036; stroke-width: 1.5;" x1="191" x2="191" y1="1022.6006" y2="1044.6006"/><polygon fill="#A80036" points="187,1034.6006,191,1044.6006,195,1034.6006,191,1038.6006" style="stroke: #A80036; stroke-width: 1.0;"/><line style="stroke: #A80036; stroke-width: 1.5;" x1="327.25" x2="349.5" y1="1022.6006" y2="1022.6006"/><line style="stroke: #A80036; stroke-width: 1.5;" x1="349.5" x2="349.5" y1="1022.6006" y2="1044.6006"/><polygon fill="#A80036" points="345.5,1034.6006,349.5,1044.6006,353.5,1034.6006,349.5,1038.6006" style="stroke: #A80036; stroke-width: 1.0;"/><line style="stroke: #A80036; stroke-width: 1.5;" x1="191" x2="191" y1="1078.5693" y2="1096.5693"/><line style="stroke: #A80036; stroke-width: 1.5;" x1="191" x2="258.25" y1="1096.5693" y2="1096.5693"/><polygon fill="#A80036" points="248.25,1092.5693,258.25,1096.5693,248.25,1100.5693,252.25,1096.5693" style="stroke: #A80036; stroke-width: 1.0;"/><line style="stroke: #A80036; stroke-width: 1.5;" x1="349.5" x2="349.5" y1="1078.5693" y2="1096.5693"/><line style="stroke: #A80036; stroke-width: 1.5;" x1="349.5" x2="282.25" y1="1096.5693" y2="1096.5693"/><polygon fill="#A80036" points="292.25,1092.5693,282.25,1096.5693,292.25,1100.5693,288.25,1096.5693" style="stroke: #A80036; stroke-width: 1.0;"/><line style="stroke: #A80036; stroke-width: 1.5;" x1="270.25" x2="270.25" y1="990.6006" y2="1010.6006"/><polygon fill="#A80036" points="266.25,1000.6006,270.25,1010.6006,274.25,1000.6006,270.25,1004.6006" style="stroke: #A80036; stroke-width: 1.0;"/><line style="stroke: #A80036; stroke-width: 1.5;" x1="270.25" x2="270.25" y1="1108.5693" y2="1128.5693"/><polygon fill="#A80036" points="266.25,1118.5693,270.25,1128.5693,274.25,1118.5693,270.25,1122.5693" style="stroke: #A80036; stroke-width: 1.0;"/><!--MD5=[ba878dd709b4baa5f2c6cd1c9ee50698]
@startuml

start

:idpconfgen //pdbdl//;

partition #LIGHTGREY Examples {
    #WHITE:$ idpconfgen pdbdl culled.list -d folder -u -n;
    note right
        where //culled.list// is a list containing PDBID[CHAIN] codes,
        and //folder// is a destination folder that may not exist.
    end note
    #WHITE:$ idpconfgen pdbdl 12AS_A 4YBB_B culled.list -d pdbs.tar -u -n -chunks 5000;
    note right
        where //pdbs.tar// is a destination
        tar file.
    end note
    }

fork

:downloads PDB or mmCIF;
note right
    Attempts to download PDB,
    if unavailable, attempts CIF.
end note

partition #e6ffe6 "filtering **in**" {
    :converts PDB and mmCIF to the same internal format;
    :select MODEL 1 (if multiple MODELS);
    :select desired CHAIN;
    :keep altLoc `A` or None;
}

partition #ffe6e6 "filter out" {
    :non- N, C, CA, O, S, Se, H, D;
    :non- ribonucleiotides;
    :non- ligands (>1500);

}

partition "additional parsing" {
    :renumber atoms for saved chains;
    :delete insertion codes
        (//pdb_delinsertion// from //pdb-tools//);
}

end fork
note right
    This block is performed for each
    PDB file. In multiprocessing mode,
    each core pick a PDB code and run the whole
    block, once it is finished another PDB code
    is picked.
end note

if (destination `-d`) then (TAR)
    :save in TAR file;
else (folder)
    :save PDB/CIFs to folder;
endif
note right
    Files are saved after each chunk
    is completed.
end note

stop

@enduml

PlantUML version 1.2020.05(Thu Mar 19 17:17:32 EDT 2020)
(GPL source distribution)
Java Runtime: OpenJDK Runtime Environment
JVM: OpenJDK 64-Bit Server VM
Java Version: 11.0.7+10-post-Ubuntu-2ubuntu218.04
Operating System: Linux
Default Encoding: UTF-8
Language: en
Country: US
--></g></svg>