<?xml version="1.0" encoding="UTF-8" standalone="no"?><svg xmlns="http://www.w3.org/2000/svg" xmlns:xlink="http://www.w3.org/1999/xlink" contentScriptType="application/ecmascript" contentStyleType="text/css" height="1152px" preserveAspectRatio="none" style="width:871px;height:1152px;" version="1.1" viewBox="0 0 871 1152" width="871px" zoomAndPan="magnify"><defs><filter height="300%" id="f1awgc7a7edz4m" width="300%" x="-1" y="-1"><feGaussianBlur result="blurOut" stdDeviation="2.0"/><feColorMatrix in="blurOut" result="blurOut2" type="matrix" values="0 0 0 0 0 0 0 0 0 0 0 0 0 0 0 0 0 0 .4 0"/><feOffset dx="4.0" dy="4.0" in="blurOut2" result="blurOut3"/><feBlend in="SourceGraphic" in2="blurOut3" mode="normal"/></filter></defs><g><ellipse cx="270.25" cy="20" fill="#000000" filter="url(#f1awgc7a7edz4m)" rx="10" ry="10" style="stroke: none; stroke-width: 1.0;"/><rect fill="#FEFECE" filter="url(#f1awgc7a7edz4m)" height="33.9688" rx="12.5" ry="12.5" style="stroke: #A80036; stroke-width: 1.5;" width="129" x="205.75" y="50"/><text fill="#000000" font-family="sans-serif" font-size="12" lengthAdjust="spacingAndGlyphs" textLength="70" x="215.75" y="71.1387">idpconfgen</text><text fill="#000000" font-family="sans-serif" font-size="12" font-style="italic" lengthAdjust="spacingAndGlyphs" textLength="35" x="289.75" y="71.1387">pdbdl</text><rect fill="#D3D3D3" filter="url(#f1awgc7a7edz4m)" height="136.2344" style="stroke: #000000; stroke-width: 2.0;" width="517" x="11.75" y="94.7705"/><path d="M87.75,95.7705 L87.75,104.0674 L77.75,114.0674 L11.75,114.0674 " fill="none" style="stroke: #000000; stroke-width: 2.0;"/><text fill="#000000" font-family="sans-serif" font-size="14" lengthAdjust="spacingAndGlyphs" textLength="66" x="14.75" y="108.7656">Examples</text><rect fill="#FFFFFF" filter="url(#f1awgc7a7edz4m)" height="33.9688" rx="12.5" ry="12.5" style="stroke: #A80036; stroke-width: 1.5;" width="292" x="124.25" y="131.0674"/><text fill="#000000" font-family="sans-serif" font-size="12" lengthAdjust="spacingAndGlyphs" textLength="272" x="134.25" y="152.2061">$ idpconfgen pdbdl culled.list -d folder -u -n</text><rect fill="#FFFFFF" filter="url(#f1awgc7a7edz4m)" height="33.9688" rx="12.5" ry="12.5" style="stroke: #A80036; stroke-width: 1.5;" width="497" x="21.75" y="185.0361"/><text fill="#000000" font-family="sans-serif" font-size="12" lengthAdjust="spacingAndGlyphs" textLength="477" x="31.75" y="206.1748">$ idpconfgen pdbdl 12AS_A 4YBB_B culled.list -d pdbs.tar -u -n -chunks 5000</text><path d="M550.5,575.748 L550.5,661.4121 L859.5,661.4121 L859.5,585.748 L849.5,575.748 L550.5,575.748 " fill="#FBFB77" filter="url(#f1awgc7a7edz4m)" style="stroke: #A80036; stroke-width: 1.0;"/><path d="M849.5,575.748 L849.5,585.748 L859.5,585.748 L849.5,575.748 " fill="#FBFB77" style="stroke: #A80036; stroke-width: 1.0;"/><text fill="#000000" font-family="sans-serif" font-size="13" lengthAdjust="spacingAndGlyphs" textLength="203" x="556.5" y="592.8149">This block is performed for each</text><text fill="#000000" font-family="sans-serif" font-size="13" lengthAdjust="spacingAndGlyphs" textLength="218" x="556.5" y="607.9478">PDB file. In multiprocessing mode,</text><text fill="#000000" font-family="sans-serif" font-size="13" lengthAdjust="spacingAndGlyphs" textLength="288" x="556.5" y="623.0806">each core pick a PDB code and run the whole</text><text fill="#000000" font-family="sans-serif" font-size="13" lengthAdjust="spacingAndGlyphs" textLength="271" x="556.5" y="638.2134">block, once it is finished another PDB code</text><text fill="#000000" font-family="sans-serif" font-size="13" lengthAdjust="spacingAndGlyphs" textLength="59" x="556.5" y="653.3462">is picked.</text><rect fill="#000000" filter="url(#f1awgc7a7edz4m)" height="6" rx="2.5" ry="2.5" style="stroke: #000000; stroke-width: 1.0;" width="520.5" x="10" y="251.0049"/><path d="M318.5,273.8564 L318.5,289.9893 L298.5,293.9893 L318.5,297.9893 L318.5,314.1221 A0,0 0 0 0 318.5,314.1221 L516.5,314.1221 A0,0 0 0 0 516.5,314.1221 L516.5,283.8564 L506.5,273.8564 L318.5,273.8564 A0,0 0 0 0 318.5,273.8564 " fill="#FBFB77" filter="url(#f1awgc7a7edz4m)" style="stroke: #A80036; stroke-width: 1.0;"/><path d="M506.5,273.8564 L506.5,283.8564 L516.5,283.8564 L506.5,273.8564 " fill="#FBFB77" style="stroke: #A80036; stroke-width: 1.0;"/><text fill="#000000" font-family="sans-serif" font-size="13" lengthAdjust="spacingAndGlyphs" textLength="176" x="324.5" y="290.9233">Attempts to download PDB,</text><text fill="#000000" font-family="sans-serif" font-size="13" lengthAdjust="spacingAndGlyphs" textLength="177" x="324.5" y="306.0562">if unavailable, attempts CIF.</text><rect fill="#FEFECE" filter="url(#f1awgc7a7edz4m)" height="33.9688" rx="12.5" ry="12.5" style="stroke: #A80036; stroke-width: 1.5;" width="177" x="121.5" y="277.0049"/><text fill="#000000" font-family="sans-serif" font-size="12" lengthAdjust="spacingAndGlyphs" textLength="157" x="131.5" y="298.1436">downloads PDB or mmCIF</text><rect fill="#E6FFE6" filter="url(#f1awgc7a7edz4m)" height="244.1719" style="stroke: #000000; stroke-width: 2.0;" width="372" x="24" y="324.9238"/><path d="M102,325.9238 L102,334.2207 L92,344.2207 L24,344.2207 " fill="none" style="stroke: #000000; stroke-width: 2.0;"/><text fill="#000000" font-family="sans-serif" font-size="14" lengthAdjust="spacingAndGlyphs" textLength="50" x="27" y="338.9189">filtering</text><text fill="#000000" font-family="sans-serif" font-size="14" font-weight="bold" lengthAdjust="spacingAndGlyphs" textLength="14" x="81" y="338.9189">in</text><rect fill="#FEFECE" filter="url(#f1awgc7a7edz4m)" height="33.9688" rx="12.5" ry="12.5" style="stroke: #A80036; stroke-width: 1.5;" width="352" x="34" y="361.2207"/><text fill="#000000" font-family="sans-serif" font-size="12" lengthAdjust="spacingAndGlyphs" textLength="332" x="44" y="382.3594">converts PDB and mmCIF to the same internal format</text><rect fill="#FEFECE" filter="url(#f1awgc7a7edz4m)" height="33.9688" rx="12.5" ry="12.5" style="stroke: #A80036; stroke-width: 1.5;" width="244" x="88" y="415.1895"/><text fill="#000000" font-family="sans-serif" font-size="12" lengthAdjust="spacingAndGlyphs" textLength="224" x="98" y="436.3281">select MODEL 1 (if multiple MODELS)</text><rect fill="#FEFECE" filter="url(#f1awgc7a7edz4m)" height="33.9688" rx="12.5" ry="12.5" style="stroke: #A80036; stroke-width: 1.5;" width="150" x="135" y="469.1582"/><text fill="#000000" font-family="sans-serif" font-size="12" lengthAdjust="spacingAndGlyphs" textLength="130" x="145" y="490.2969">select desired CHAIN</text><rect fill="#FEFECE" filter="url(#f1awgc7a7edz4m)" height="33.9688" rx="12.5" ry="12.5" style="stroke: #A80036; stroke-width: 1.5;" width="170" x="125" y="523.127"/><text fill="#000000" font-family="sans-serif" font-size="12" lengthAdjust="spacingAndGlyphs" textLength="150" x="135" y="544.2656">keep altLoc `A` or None</text><rect fill="#FFE6E6" filter="url(#f1awgc7a7edz4m)" height="190.2031" style="stroke: #000000; stroke-width: 2.0;" width="212" x="104" y="604.0957"/><path d="M170,605.0957 L170,613.3926 L160,623.3926 L104,623.3926 " fill="none" style="stroke: #000000; stroke-width: 2.0;"/><text fill="#000000" font-family="sans-serif" font-size="14" lengthAdjust="spacingAndGlyphs" textLength="56" x="107" y="618.0908">filter out</text><rect fill="#FEFECE" filter="url(#f1awgc7a7edz4m)" height="33.9688" rx="12.5" ry="12.5" style="stroke: #A80036; stroke-width: 1.5;" width="192" x="114" y="640.3926"/><text fill="#000000" font-family="sans-serif" font-size="12" lengthAdjust="spacingAndGlyphs" textLength="172" x="124" y="661.5313">non- N, C, CA, O, S, Se, H, D</text><rect fill="#FEFECE" filter="url(#f1awgc7a7edz4m)" height="33.9688" rx="12.5" ry="12.5" style="stroke: #A80036; stroke-width: 1.5;" width="152" x="134" y="694.3613"/><text fill="#000000" font-family="sans-serif" font-size="12" lengthAdjust="spacingAndGlyphs" textLength="132" x="144" y="715.5">non- ribonucleiotides</text><rect fill="#FEFECE" filter="url(#f1awgc7a7edz4m)" height="33.9688" rx="12.5" ry="12.5" style="stroke: #A80036; stroke-width: 1.5;" width="153" x="133.5" y="748.3301"/><text fill="#000000" font-family="sans-serif" font-size="12" lengthAdjust="spacingAndGlyphs" textLength="133" x="143.5" y="769.4688">non- ligands (&gt;1500)</text><rect fill="#FFFFFF" filter="url(#f1awgc7a7edz4m)" height="150.2031" style="stroke: #000000; stroke-width: 2.0;" width="263" x="78.5" y="805.1006"/><path d="M209.5,806.1006 L209.5,814.3975 L199.5,824.3975 L78.5,824.3975 " fill="none" style="stroke: #000000; stroke-width: 2.0;"/><text fill="#000000" font-family="sans-serif" font-size="14" lengthAdjust="spacingAndGlyphs" textLength="121" x="81.5" y="819.0957">additional parsing</text><rect fill="#FEFECE" filter="url(#f1awgc7a7edz4m)" height="33.9688" rx="12.5" ry="12.5" style="stroke: #A80036; stroke-width: 1.5;" width="231" x="94.5" y="841.3975"/><text fill="#000000" font-family="sans-serif" font-size="12" lengthAdjust="spacingAndGlyphs" textLength="211" x="104.5" y="862.5361">renumber atoms for saved chains</text><rect fill="#FEFECE" filter="url(#f1awgc7a7edz4m)" height="47.9375" rx="12.5" ry="12.5" style="stroke: #A80036; stroke-width: 1.5;" width="243" x="88.5" y="895.3662"/><text fill="#000000" font-family="sans-serif" font-size="12" lengthAdjust="spacingAndGlyphs" textLength="141" x="98.5" y="916.5049">delete insertion codes</text><text fill="#000000" font-family="sans-serif" font-size="12" lengthAdjust="spacingAndGlyphs" textLength="5" x="114.5" y="930.4736">(</text><text fill="#000000" font-family="sans-serif" font-size="12" font-style="italic" lengthAdjust="spacingAndGlyphs" textLength="103" x="119.5" y="930.4736">pdb_delinsertion</text><text fill="#000000" font-family="sans-serif" font-size="12" lengthAdjust="spacingAndGlyphs" textLength="28" x="226.5" y="930.4736">from</text><text fill="#000000" font-family="sans-serif" font-size="12" font-style="italic" lengthAdjust="spacingAndGlyphs" textLength="58" x="258.5" y="930.4736">pdb-tools</text><text fill="#000000" font-family="sans-serif" font-size="12" lengthAdjust="spacingAndGlyphs" textLength="5" x="316.5" y="930.4736">)</text><rect fill="#000000" filter="url(#f1awgc7a7edz4m)" height="6" rx="2.5" ry="2.5" style="stroke: #000000; stroke-width: 1.0;" width="520.5" x="10" y="975.3037"/><path d="M461.5,1030.1553 L461.5,1070.4209 L688.5,1070.4209 L688.5,1040.1553 L678.5,1030.1553 L461.5,1030.1553 " fill="#FBFB77" filter="url(#f1awgc7a7edz4m)" style="stroke: #A80036; stroke-width: 1.0;"/><path d="M678.5,1030.1553 L678.5,1040.1553 L688.5,1040.1553 L678.5,1030.1553 " fill="#FBFB77" style="stroke: #A80036; stroke-width: 1.0;"/><text fill="#000000" font-family="sans-serif" font-size="13" lengthAdjust="spacingAndGlyphs" textLength="206" x="467.5" y="1047.2222">Files are saved after each chunk</text><text fill="#000000" font-family="sans-serif" font-size="13" lengthAdjust="spacingAndGlyphs" textLength="86" x="467.5" y="1062.355">is completed.</text><polygon fill="#FEFECE" filter="url(#f1awgc7a7edz4m)" points="225.25,1001.3037,315.25,1001.3037,327.25,1013.3037,315.25,1025.3037,225.25,1025.3037,213.25,1013.3037,225.25,1001.3037" style="stroke: #A80036; stroke-width: 1.5;"/><text fill="#000000" font-family="sans-serif" font-size="11" lengthAdjust="spacingAndGlyphs" textLength="90" x="225.25" y="1017.1118">destination `-d`</text><text fill="#000000" font-family="sans-serif" font-size="11" lengthAdjust="spacingAndGlyphs" textLength="21" x="192.25" y="1010.7095">TAR</text><text fill="#000000" font-family="sans-serif" font-size="11" lengthAdjust="spacingAndGlyphs" textLength="33" x="327.25" y="1010.7095">folder</text><rect fill="#FEFECE" filter="url(#f1awgc7a7edz4m)" height="33.9688" rx="12.5" ry="12.5" style="stroke: #A80036; stroke-width: 1.5;" width="113" x="134.5" y="1035.3037"/><text fill="#000000" font-family="sans-serif" font-size="12" lengthAdjust="spacingAndGlyphs" textLength="93" x="144.5" y="1056.4424">save in TAR file</text><rect fill="#FEFECE" filter="url(#f1awgc7a7edz4m)" height="33.9688" rx="12.5" ry="12.5" style="stroke: #A80036; stroke-width: 1.5;" width="164" x="267.5" y="1035.3037"/><text fill="#000000" font-family="sans-serif" font-size="12" lengthAdjust="spacingAndGlyphs" textLength="144" x="277.5" y="1056.4424">save PDB/CIFs to folder</text><polygon fill="#FEFECE" filter="url(#f1awgc7a7edz4m)" points="270.25,1075.2725,282.25,1087.2725,270.25,1099.2725,258.25,1087.2725,270.25,1075.2725" style="stroke: #A80036; stroke-width: 1.5;"/><ellipse cx="270.25" cy="1130.2725" fill="#FFFFFF" filter="url(#f1awgc7a7edz4m)" rx="11" ry="11" style="stroke: #000000; stroke-width: 1.0;"/><ellipse cx="270.25" cy="1130.2725" fill="#000000" rx="6" ry="6" style="stroke: #7F7F7F; stroke-width: 1.0;"/><line style="stroke: #A80036; stroke-width: 1.5;" x1="270.25" x2="270.25" y1="30" y2="50"/><polygon fill="#A80036" points="266.25,40,270.25,50,274.25,40,270.25,44" style="stroke: #A80036; stroke-width: 1.0;"/><line style="stroke: #A80036; stroke-width: 1.5;" x1="270.25" x2="270.25" y1="165.0361" y2="185.0361"/><polygon fill="#A80036" points="266.25,175.0361,270.25,185.0361,274.25,175.0361,270.25,179.0361" style="stroke: #A80036; stroke-width: 1.0;"/><line style="stroke: #A80036; stroke-width: 1.5;" x1="270.25" x2="270.25" y1="83.9688" y2="131.0674"/><polygon fill="#A80036" points="266.25,121.0674,270.25,131.0674,274.25,121.0674,270.25,125.0674" style="stroke: #A80036; stroke-width: 1.0;"/><line style="stroke: #A80036; stroke-width: 1.5;" x1="210" x2="210" y1="395.1895" y2="415.1895"/><polygon fill="#A80036" points="206,405.1895,210,415.1895,214,405.1895,210,409.1895" style="stroke: #A80036; stroke-width: 1.0;"/><line style="stroke: #A80036; stroke-width: 1.5;" x1="210" x2="210" y1="449.1582" y2="469.1582"/><polygon fill="#A80036" points="206,459.1582,210,469.1582,214,459.1582,210,463.1582" style="stroke: #A80036; stroke-width: 1.0;"/><line style="stroke: #A80036; stroke-width: 1.5;" x1="210" x2="210" y1="503.127" y2="523.127"/><polygon fill="#A80036" points="206,513.127,210,523.127,214,513.127,210,517.127" style="stroke: #A80036; stroke-width: 1.0;"/><line style="stroke: #A80036; stroke-width: 1.5;" x1="210" x2="210" y1="310.9736" y2="361.2207"/><polygon fill="#A80036" points="206,351.2207,210,361.2207,214,351.2207,210,355.2207" style="stroke: #A80036; stroke-width: 1.0;"/><line style="stroke: #A80036; stroke-width: 1.5;" x1="210" x2="210" y1="674.3613" y2="694.3613"/><polygon fill="#A80036" points="206,684.3613,210,694.3613,214,684.3613,210,688.3613" style="stroke: #A80036; stroke-width: 1.0;"/><line style="stroke: #A80036; stroke-width: 1.5;" x1="210" x2="210" y1="728.3301" y2="748.3301"/><polygon fill="#A80036" points="206,738.3301,210,748.3301,214,738.3301,210,742.3301" style="stroke: #A80036; stroke-width: 1.0;"/><line style="stroke: #A80036; stroke-width: 1.5;" x1="210" x2="210" y1="557.0957" y2="640.3926"/><polygon fill="#A80036" points="206,630.3926,210,640.3926,214,630.3926,210,634.3926" style="stroke: #A80036; stroke-width: 1.0;"/><line style="stroke: #A80036; stroke-width: 1.5;" x1="210" x2="210" y1="875.3662" y2="895.3662"/><polygon fill="#A80036" points="206,885.3662,210,895.3662,214,885.3662,210,889.3662" style="stroke: #A80036; stroke-width: 1.0;"/><line style="stroke: #A80036; stroke-width: 1.5;" x1="210" x2="210" y1="782.2988" y2="841.3975"/><polygon fill="#A80036" points="206,831.3975,210,841.3975,214,831.3975,210,835.3975" style="stroke: #A80036; stroke-width: 1.0;"/><line style="stroke: #A80036; stroke-width: 1.5;" x1="210" x2="210" y1="257.0049" y2="277.0049"/><polygon fill="#A80036" points="206,267.0049,210,277.0049,214,267.0049,210,271.0049" style="stroke: #A80036; stroke-width: 1.0;"/><line style="stroke: #A80036; stroke-width: 1.5;" x1="210" x2="210" y1="943.3037" y2="975.3037"/><polygon fill="#A80036" points="206,965.3037,210,975.3037,214,965.3037,210,969.3037" style="stroke: #A80036; stroke-width: 1.0;"/><line style="stroke: #A80036; stroke-width: 1.5;" x1="270.25" x2="270.25" y1="219.0049" y2="251.0049"/><polygon fill="#A80036" points="266.25,241.0049,270.25,251.0049,274.25,241.0049,270.25,245.0049" style="stroke: #A80036; stroke-width: 1.0;"/><line style="stroke: #A80036; stroke-width: 1.5;" x1="213.25" x2="191" y1="1013.3037" y2="1013.3037"/><line style="stroke: #A80036; stroke-width: 1.5;" x1="191" x2="191" y1="1013.3037" y2="1035.3037"/><polygon fill="#A80036" points="187,1025.3037,191,1035.3037,195,1025.3037,191,1029.3037" style="stroke: #A80036; stroke-width: 1.0;"/><line style="stroke: #A80036; stroke-width: 1.5;" x1="327.25" x2="349.5" y1="1013.3037" y2="1013.3037"/><line style="stroke: #A80036; stroke-width: 1.5;" x1="349.5" x2="349.5" y1="1013.3037" y2="1035.3037"/><polygon fill="#A80036" points="345.5,1025.3037,349.5,1035.3037,353.5,1025.3037,349.5,1029.3037" style="stroke: #A80036; stroke-width: 1.0;"/><line style="stroke: #A80036; stroke-width: 1.5;" x1="191" x2="191" y1="1069.2725" y2="1087.2725"/><line style="stroke: #A80036; stroke-width: 1.5;" x1="191" x2="258.25" y1="1087.2725" y2="1087.2725"/><polygon fill="#A80036" points="248.25,1083.2725,258.25,1087.2725,248.25,1091.2725,252.25,1087.2725" style="stroke: #A80036; stroke-width: 1.0;"/><line style="stroke: #A80036; stroke-width: 1.5;" x1="349.5" x2="349.5" y1="1069.2725" y2="1087.2725"/><line style="stroke: #A80036; stroke-width: 1.5;" x1="349.5" x2="282.25" y1="1087.2725" y2="1087.2725"/><polygon fill="#A80036" points="292.25,1083.2725,282.25,1087.2725,292.25,1091.2725,288.25,1087.2725" style="stroke: #A80036; stroke-width: 1.0;"/><line style="stroke: #A80036; stroke-width: 1.5;" x1="270.25" x2="270.25" y1="981.3037" y2="1001.3037"/><polygon fill="#A80036" points="266.25,991.3037,270.25,1001.3037,274.25,991.3037,270.25,995.3037" style="stroke: #A80036; stroke-width: 1.0;"/><line style="stroke: #A80036; stroke-width: 1.5;" x1="270.25" x2="270.25" y1="1099.2725" y2="1119.2725"/><polygon fill="#A80036" points="266.25,1109.2725,270.25,1119.2725,274.25,1109.2725,270.25,1113.2725" style="stroke: #A80036; stroke-width: 1.0;"/><!--MD5=[e506942d5e8460bb08cb3b53ef43da47]
@startuml

start

:idpconfgen //pdbdl//;

partition #LIGHTGREY Examples {
    #WHITE:$ idpconfgen pdbdl culled.list -d folder -u -n;
    #WHITE:$ idpconfgen pdbdl 12AS_A 4YBB_B culled.list -d pdbs.tar -u -n -chunks 5000;
    }

fork

:downloads PDB or mmCIF;
note right
    Attempts to download PDB,
    if unavailable, attempts CIF.
end note

partition #e6ffe6 "filtering **in**" {
    :converts PDB and mmCIF to the same internal format;
    :select MODEL 1 (if multiple MODELS);
    :select desired CHAIN;
    :keep altLoc `A` or None;
}

partition #ffe6e6 "filter out" {
    :non- N, C, CA, O, S, Se, H, D;
    :non- ribonucleiotides;
    :non- ligands (>1500);

}

partition "additional parsing" {
    :renumber atoms for saved chains;
    :delete insertion codes
        (//pdb_delinsertion// from //pdb-tools//);
}

end fork
note right
    This block is performed for each
    PDB file. In multiprocessing mode,
    each core pick a PDB code and run the whole
    block, once it is finished another PDB code
    is picked.
end note

if (destination `-d`) then (TAR)
    :save in TAR file;
else (folder)
    :save PDB/CIFs to folder;
endif
note right
    Files are saved after each chunk
    is completed.
end note

stop

@enduml

PlantUML version 1.2020.05(Thu Mar 19 17:17:32 EDT 2020)
(GPL source distribution)
Java Runtime: OpenJDK Runtime Environment
JVM: OpenJDK 64-Bit Server VM
Java Version: 11.0.7+10-post-Ubuntu-2ubuntu218.04
Operating System: Linux
Default Encoding: UTF-8
Language: en
Country: US
--></g></svg>