<?xml version="1.0" encoding="UTF-8" standalone="no"?><svg xmlns="http://www.w3.org/2000/svg" xmlns:xlink="http://www.w3.org/1999/xlink" contentScriptType="application/ecmascript" contentStyleType="text/css" height="1297px" preserveAspectRatio="none" style="width:871px;height:1297px;" version="1.1" viewBox="0 0 871 1297" width="871px" zoomAndPan="magnify"><defs><filter height="300%" id="fd2nvb6gbt2vx" width="300%" x="-1" y="-1"><feGaussianBlur result="blurOut" stdDeviation="2.0"/><feColorMatrix in="blurOut" result="blurOut2" type="matrix" values="0 0 0 0 0 0 0 0 0 0 0 0 0 0 0 0 0 0 .4 0"/><feOffset dx="4.0" dy="4.0" in="blurOut2" result="blurOut3"/><feBlend in="SourceGraphic" in2="blurOut3" mode="normal"/></filter></defs><g><ellipse cx="270.25" cy="20" fill="#000000" filter="url(#fd2nvb6gbt2vx)" rx="10" ry="10" style="stroke: none; stroke-width: 1.0;"/><rect fill="#FEFECE" filter="url(#fd2nvb6gbt2vx)" height="33.9688" rx="12.5" ry="12.5" style="stroke: #A80036; stroke-width: 1.5;" width="129" x="205.75" y="50"/><text fill="#000000" font-family="sans-serif" font-size="12" lengthAdjust="spacingAndGlyphs" textLength="70" x="215.75" y="71.1387">idpconfgen</text><text fill="#000000" font-family="sans-serif" font-size="12" font-style="italic" lengthAdjust="spacingAndGlyphs" textLength="35" x="289.75" y="71.1387">pdbdl</text><rect fill="#D3D3D3" filter="url(#fd2nvb6gbt2vx)" height="145.5313" style="stroke: #000000; stroke-width: 2.0;" width="815.5" x="11.75" y="94.7705"/><path d="M87.75,95.7705 L87.75,104.0674 L77.75,114.0674 L11.75,114.0674 " fill="none" style="stroke: #000000; stroke-width: 2.0;"/><text fill="#000000" font-family="sans-serif" font-size="14" lengthAdjust="spacingAndGlyphs" textLength="66" x="14.75" y="108.7656">Examples</text><path d="M436.25,130.9189 L436.25,147.0518 L416.25,151.0518 L436.25,155.0518 L436.25,171.1846 A0,0 0 0 0 436.25,171.1846 L817.25,171.1846 A0,0 0 0 0 817.25,171.1846 L817.25,140.9189 L807.25,130.9189 L436.25,130.9189 A0,0 0 0 0 436.25,130.9189 " fill="#FBFB77" filter="url(#fd2nvb6gbt2vx)" style="stroke: #A80036; stroke-width: 1.0;"/><path d="M807.25,130.9189 L807.25,140.9189 L817.25,140.9189 L807.25,130.9189 " fill="#FBFB77" style="stroke: #A80036; stroke-width: 1.0;"/><text fill="#000000" font-family="sans-serif" font-size="13" lengthAdjust="spacingAndGlyphs" textLength="38" x="442.25" y="147.9858">where</text><text fill="#000000" font-family="sans-serif" font-size="13" font-style="italic" lengthAdjust="spacingAndGlyphs" textLength="59" x="484.25" y="147.9858">culled.list</text><text fill="#000000" font-family="sans-serif" font-size="13" lengthAdjust="spacingAndGlyphs" textLength="255" x="547.25" y="147.9858">is a list containing PDBID[CHAIN] codes,</text><text fill="#000000" font-family="sans-serif" font-size="13" lengthAdjust="spacingAndGlyphs" textLength="24" x="442.25" y="163.1187">and</text><text fill="#000000" font-family="sans-serif" font-size="13" font-style="italic" lengthAdjust="spacingAndGlyphs" textLength="36" x="470.25" y="163.1187">folder</text><text fill="#000000" font-family="sans-serif" font-size="13" lengthAdjust="spacingAndGlyphs" textLength="262" x="510.25" y="163.1187">is a destination folder that may not exist.</text><rect fill="#FFFFFF" filter="url(#fd2nvb6gbt2vx)" height="33.9688" rx="12.5" ry="12.5" style="stroke: #A80036; stroke-width: 1.5;" width="292" x="124.25" y="134.0674"/><text fill="#000000" font-family="sans-serif" font-size="12" lengthAdjust="spacingAndGlyphs" textLength="272" x="134.25" y="155.2061">$ idpconfgen pdbdl culled.list -d folder -u -n</text><path d="M538.75,188.0361 L538.75,204.1689 L518.75,208.1689 L538.75,212.1689 L538.75,228.3018 A0,0 0 0 0 538.75,228.3018 L755.75,228.3018 A0,0 0 0 0 755.75,228.3018 L755.75,198.0361 L745.75,188.0361 L538.75,188.0361 A0,0 0 0 0 538.75,188.0361 " fill="#FBFB77" filter="url(#fd2nvb6gbt2vx)" style="stroke: #A80036; stroke-width: 1.0;"/><path d="M745.75,188.0361 L745.75,198.0361 L755.75,198.0361 L745.75,188.0361 " fill="#FBFB77" style="stroke: #A80036; stroke-width: 1.0;"/><text fill="#000000" font-family="sans-serif" font-size="13" lengthAdjust="spacingAndGlyphs" textLength="38" x="544.75" y="205.103">where</text><text fill="#000000" font-family="sans-serif" font-size="13" font-style="italic" lengthAdjust="spacingAndGlyphs" textLength="53" x="586.75" y="205.103">pdbs.tar</text><text fill="#000000" font-family="sans-serif" font-size="13" lengthAdjust="spacingAndGlyphs" textLength="97" x="643.75" y="205.103">is a destination</text><text fill="#000000" font-family="sans-serif" font-size="13" lengthAdjust="spacingAndGlyphs" textLength="44" x="544.75" y="220.2358">tar file.</text><rect fill="#FFFFFF" filter="url(#fd2nvb6gbt2vx)" height="33.9688" rx="12.5" ry="12.5" style="stroke: #A80036; stroke-width: 1.5;" width="497" x="21.75" y="191.1846"/><text fill="#000000" font-family="sans-serif" font-size="12" lengthAdjust="spacingAndGlyphs" textLength="477" x="31.75" y="212.3232">$ idpconfgen pdbdl 12AS_A 4YBB_B culled.list -d pdbs.tar -u -n -chunks 5000</text><rect fill="#FEFECE" filter="url(#fd2nvb6gbt2vx)" height="47.9375" rx="12.5" ry="12.5" style="stroke: #A80036; stroke-width: 1.5;" width="224" x="158.25" y="260.3018"/><text fill="#000000" font-family="sans-serif" font-size="12" lengthAdjust="spacingAndGlyphs" textLength="204" x="168.25" y="281.4404">Compares destination folder/file,</text><text fill="#000000" font-family="sans-serif" font-size="12" lengthAdjust="spacingAndGlyphs" textLength="195" x="168.25" y="295.4092">downloads only missing entries</text><path d="M392.25,339.6416 L392.25,348.208 L372.25,352.208 L392.25,356.208 L392.25,364.7744 A0,0 0 0 0 392.25,364.7744 L466.25,364.7744 A0,0 0 0 0 466.25,364.7744 L466.25,349.6416 L456.25,339.6416 L392.25,339.6416 A0,0 0 0 0 392.25,339.6416 " fill="#FBFB77" filter="url(#fd2nvb6gbt2vx)" style="stroke: #A80036; stroke-width: 1.0;"/><path d="M456.25,339.6416 L456.25,349.6416 L466.25,349.6416 L456.25,339.6416 " fill="#FBFB77" style="stroke: #A80036; stroke-width: 1.0;"/><text fill="#000000" font-family="sans-serif" font-size="13" lengthAdjust="spacingAndGlyphs" textLength="53" x="398.25" y="356.7085">1MH1_A</text><rect fill="#FEFECE" filter="url(#fd2nvb6gbt2vx)" height="47.9375" rx="12.5" ry="12.5" style="stroke: #A80036; stroke-width: 1.5;" width="204" x="168.25" y="328.2393"/><text fill="#000000" font-family="sans-serif" font-size="12" lengthAdjust="spacingAndGlyphs" textLength="184" x="178.25" y="349.3779">filters out PDBID:CHAIN codes</text><text fill="#000000" font-family="sans-serif" font-size="12" lengthAdjust="spacingAndGlyphs" textLength="143" x="178.25" y="363.3467">known to be conflictive</text><path d="M550.5,720.9199 L550.5,806.584 L859.5,806.584 L859.5,730.9199 L849.5,720.9199 L550.5,720.9199 " fill="#FBFB77" filter="url(#fd2nvb6gbt2vx)" style="stroke: #A80036; stroke-width: 1.0;"/><path d="M849.5,720.9199 L849.5,730.9199 L859.5,730.9199 L849.5,720.9199 " fill="#FBFB77" style="stroke: #A80036; stroke-width: 1.0;"/><text fill="#000000" font-family="sans-serif" font-size="13" lengthAdjust="spacingAndGlyphs" textLength="203" x="556.5" y="737.9868">This block is performed for each</text><text fill="#000000" font-family="sans-serif" font-size="13" lengthAdjust="spacingAndGlyphs" textLength="218" x="556.5" y="753.1196">PDB file. In multiprocessing mode,</text><text fill="#000000" font-family="sans-serif" font-size="13" lengthAdjust="spacingAndGlyphs" textLength="288" x="556.5" y="768.2524">each core pick a PDB code and run the whole</text><text fill="#000000" font-family="sans-serif" font-size="13" lengthAdjust="spacingAndGlyphs" textLength="271" x="556.5" y="783.3853">block, once it is finished another PDB code</text><text fill="#000000" font-family="sans-serif" font-size="13" lengthAdjust="spacingAndGlyphs" textLength="59" x="556.5" y="798.5181">is picked.</text><rect fill="#000000" filter="url(#fd2nvb6gbt2vx)" height="6" rx="2.5" ry="2.5" style="stroke: #000000; stroke-width: 1.0;" width="520.5" x="10" y="396.1768"/><path d="M318.5,419.0283 L318.5,435.1611 L298.5,439.1611 L318.5,443.1611 L318.5,459.2939 A0,0 0 0 0 318.5,459.2939 L516.5,459.2939 A0,0 0 0 0 516.5,459.2939 L516.5,429.0283 L506.5,419.0283 L318.5,419.0283 A0,0 0 0 0 318.5,419.0283 " fill="#FBFB77" filter="url(#fd2nvb6gbt2vx)" style="stroke: #A80036; stroke-width: 1.0;"/><path d="M506.5,419.0283 L506.5,429.0283 L516.5,429.0283 L506.5,419.0283 " fill="#FBFB77" style="stroke: #A80036; stroke-width: 1.0;"/><text fill="#000000" font-family="sans-serif" font-size="13" lengthAdjust="spacingAndGlyphs" textLength="176" x="324.5" y="436.0952">Attempts to download PDB,</text><text fill="#000000" font-family="sans-serif" font-size="13" lengthAdjust="spacingAndGlyphs" textLength="177" x="324.5" y="451.228">if unavailable, attempts CIF.</text><rect fill="#FEFECE" filter="url(#fd2nvb6gbt2vx)" height="33.9688" rx="12.5" ry="12.5" style="stroke: #A80036; stroke-width: 1.5;" width="177" x="121.5" y="422.1768"/><text fill="#000000" font-family="sans-serif" font-size="12" lengthAdjust="spacingAndGlyphs" textLength="157" x="131.5" y="443.3154">downloads PDB or mmCIF</text><rect fill="#E6FFE6" filter="url(#fd2nvb6gbt2vx)" height="244.1719" style="stroke: #000000; stroke-width: 2.0;" width="372" x="24" y="470.0957"/><path d="M102,471.0957 L102,479.3926 L92,489.3926 L24,489.3926 " fill="none" style="stroke: #000000; stroke-width: 2.0;"/><text fill="#000000" font-family="sans-serif" font-size="14" lengthAdjust="spacingAndGlyphs" textLength="50" x="27" y="484.0908">filtering</text><text fill="#000000" font-family="sans-serif" font-size="14" font-weight="bold" lengthAdjust="spacingAndGlyphs" textLength="14" x="81" y="484.0908">in</text><rect fill="#FEFECE" filter="url(#fd2nvb6gbt2vx)" height="33.9688" rx="12.5" ry="12.5" style="stroke: #A80036; stroke-width: 1.5;" width="352" x="34" y="506.3926"/><text fill="#000000" font-family="sans-serif" font-size="12" lengthAdjust="spacingAndGlyphs" textLength="332" x="44" y="527.5313">converts PDB and mmCIF to the same internal format</text><rect fill="#FEFECE" filter="url(#fd2nvb6gbt2vx)" height="33.9688" rx="12.5" ry="12.5" style="stroke: #A80036; stroke-width: 1.5;" width="244" x="88" y="560.3613"/><text fill="#000000" font-family="sans-serif" font-size="12" lengthAdjust="spacingAndGlyphs" textLength="224" x="98" y="581.5">select MODEL 1 (if multiple MODELS)</text><rect fill="#FEFECE" filter="url(#fd2nvb6gbt2vx)" height="33.9688" rx="12.5" ry="12.5" style="stroke: #A80036; stroke-width: 1.5;" width="150" x="135" y="614.3301"/><text fill="#000000" font-family="sans-serif" font-size="12" lengthAdjust="spacingAndGlyphs" textLength="130" x="145" y="635.4688">select desired CHAIN</text><rect fill="#FEFECE" filter="url(#fd2nvb6gbt2vx)" height="33.9688" rx="12.5" ry="12.5" style="stroke: #A80036; stroke-width: 1.5;" width="170" x="125" y="668.2988"/><text fill="#000000" font-family="sans-serif" font-size="12" lengthAdjust="spacingAndGlyphs" textLength="150" x="135" y="689.4375">keep altLoc `A` or None</text><rect fill="#FFE6E6" filter="url(#fd2nvb6gbt2vx)" height="190.2031" style="stroke: #000000; stroke-width: 2.0;" width="212" x="104" y="749.2676"/><path d="M170,750.2676 L170,758.5645 L160,768.5645 L104,768.5645 " fill="none" style="stroke: #000000; stroke-width: 2.0;"/><text fill="#000000" font-family="sans-serif" font-size="14" lengthAdjust="spacingAndGlyphs" textLength="56" x="107" y="763.2627">filter out</text><rect fill="#FEFECE" filter="url(#fd2nvb6gbt2vx)" height="33.9688" rx="12.5" ry="12.5" style="stroke: #A80036; stroke-width: 1.5;" width="192" x="114" y="785.5645"/><text fill="#000000" font-family="sans-serif" font-size="12" lengthAdjust="spacingAndGlyphs" textLength="172" x="124" y="806.7031">non- N, C, CA, O, S, Se, H, D</text><rect fill="#FEFECE" filter="url(#fd2nvb6gbt2vx)" height="33.9688" rx="12.5" ry="12.5" style="stroke: #A80036; stroke-width: 1.5;" width="152" x="134" y="839.5332"/><text fill="#000000" font-family="sans-serif" font-size="12" lengthAdjust="spacingAndGlyphs" textLength="132" x="144" y="860.6719">non- ribonucleiotides</text><rect fill="#FEFECE" filter="url(#fd2nvb6gbt2vx)" height="33.9688" rx="12.5" ry="12.5" style="stroke: #A80036; stroke-width: 1.5;" width="153" x="133.5" y="893.502"/><text fill="#000000" font-family="sans-serif" font-size="12" lengthAdjust="spacingAndGlyphs" textLength="133" x="143.5" y="914.6406">non- ligands (&gt;1500)</text><rect fill="#FFFFFF" filter="url(#fd2nvb6gbt2vx)" height="150.2031" style="stroke: #000000; stroke-width: 2.0;" width="263" x="78.5" y="950.2725"/><path d="M209.5,951.2725 L209.5,959.5693 L199.5,969.5693 L78.5,969.5693 " fill="none" style="stroke: #000000; stroke-width: 2.0;"/><text fill="#000000" font-family="sans-serif" font-size="14" lengthAdjust="spacingAndGlyphs" textLength="121" x="81.5" y="964.2676">additional parsing</text><rect fill="#FEFECE" filter="url(#fd2nvb6gbt2vx)" height="33.9688" rx="12.5" ry="12.5" style="stroke: #A80036; stroke-width: 1.5;" width="231" x="94.5" y="986.5693"/><text fill="#000000" font-family="sans-serif" font-size="12" lengthAdjust="spacingAndGlyphs" textLength="211" x="104.5" y="1007.708">renumber atoms for saved chains</text><rect fill="#FEFECE" filter="url(#fd2nvb6gbt2vx)" height="47.9375" rx="12.5" ry="12.5" style="stroke: #A80036; stroke-width: 1.5;" width="243" x="88.5" y="1040.5381"/><text fill="#000000" font-family="sans-serif" font-size="12" lengthAdjust="spacingAndGlyphs" textLength="141" x="98.5" y="1061.6768">delete insertion codes</text><text fill="#000000" font-family="sans-serif" font-size="12" lengthAdjust="spacingAndGlyphs" textLength="5" x="114.5" y="1075.6455">(</text><text fill="#000000" font-family="sans-serif" font-size="12" font-style="italic" lengthAdjust="spacingAndGlyphs" textLength="103" x="119.5" y="1075.6455">pdb_delinsertion</text><text fill="#000000" font-family="sans-serif" font-size="12" lengthAdjust="spacingAndGlyphs" textLength="28" x="226.5" y="1075.6455">from</text><text fill="#000000" font-family="sans-serif" font-size="12" font-style="italic" lengthAdjust="spacingAndGlyphs" textLength="58" x="258.5" y="1075.6455">pdb-tools</text><text fill="#000000" font-family="sans-serif" font-size="12" lengthAdjust="spacingAndGlyphs" textLength="5" x="316.5" y="1075.6455">)</text><rect fill="#000000" filter="url(#fd2nvb6gbt2vx)" height="6" rx="2.5" ry="2.5" style="stroke: #000000; stroke-width: 1.0;" width="520.5" x="10" y="1120.4756"/><path d="M461.5,1175.3271 L461.5,1215.5928 L688.5,1215.5928 L688.5,1185.3271 L678.5,1175.3271 L461.5,1175.3271 " fill="#FBFB77" filter="url(#fd2nvb6gbt2vx)" style="stroke: #A80036; stroke-width: 1.0;"/><path d="M678.5,1175.3271 L678.5,1185.3271 L688.5,1185.3271 L678.5,1175.3271 " fill="#FBFB77" style="stroke: #A80036; stroke-width: 1.0;"/><text fill="#000000" font-family="sans-serif" font-size="13" lengthAdjust="spacingAndGlyphs" textLength="206" x="467.5" y="1192.394">Files are saved after each chunk</text><text fill="#000000" font-family="sans-serif" font-size="13" lengthAdjust="spacingAndGlyphs" textLength="86" x="467.5" y="1207.5269">is completed.</text><polygon fill="#FEFECE" filter="url(#fd2nvb6gbt2vx)" points="225.25,1146.4756,315.25,1146.4756,327.25,1158.4756,315.25,1170.4756,225.25,1170.4756,213.25,1158.4756,225.25,1146.4756" style="stroke: #A80036; stroke-width: 1.5;"/><text fill="#000000" font-family="sans-serif" font-size="11" lengthAdjust="spacingAndGlyphs" textLength="90" x="225.25" y="1162.2837">destination `-d`</text><text fill="#000000" font-family="sans-serif" font-size="11" lengthAdjust="spacingAndGlyphs" textLength="21" x="192.25" y="1155.8813">TAR</text><text fill="#000000" font-family="sans-serif" font-size="11" lengthAdjust="spacingAndGlyphs" textLength="33" x="327.25" y="1155.8813">folder</text><rect fill="#FEFECE" filter="url(#fd2nvb6gbt2vx)" height="33.9688" rx="12.5" ry="12.5" style="stroke: #A80036; stroke-width: 1.5;" width="113" x="134.5" y="1180.4756"/><text fill="#000000" font-family="sans-serif" font-size="12" lengthAdjust="spacingAndGlyphs" textLength="93" x="144.5" y="1201.6143">save in TAR file</text><rect fill="#FEFECE" filter="url(#fd2nvb6gbt2vx)" height="33.9688" rx="12.5" ry="12.5" style="stroke: #A80036; stroke-width: 1.5;" width="164" x="267.5" y="1180.4756"/><text fill="#000000" font-family="sans-serif" font-size="12" lengthAdjust="spacingAndGlyphs" textLength="144" x="277.5" y="1201.6143">save PDB/CIFs to folder</text><polygon fill="#FEFECE" filter="url(#fd2nvb6gbt2vx)" points="270.25,1220.4443,282.25,1232.4443,270.25,1244.4443,258.25,1232.4443,270.25,1220.4443" style="stroke: #A80036; stroke-width: 1.5;"/><ellipse cx="270.25" cy="1275.4443" fill="#FFFFFF" filter="url(#fd2nvb6gbt2vx)" rx="11" ry="11" style="stroke: #000000; stroke-width: 1.0;"/><ellipse cx="270.25" cy="1275.4443" fill="#000000" rx="6" ry="6" style="stroke: #7F7F7F; stroke-width: 1.0;"/><line style="stroke: #A80036; stroke-width: 1.5;" x1="270.25" x2="270.25" y1="30" y2="50"/><polygon fill="#A80036" points="266.25,40,270.25,50,274.25,40,270.25,44" style="stroke: #A80036; stroke-width: 1.0;"/><line style="stroke: #A80036; stroke-width: 1.5;" x1="270.25" x2="270.25" y1="168.0361" y2="191.1846"/><polygon fill="#A80036" points="266.25,181.1846,270.25,191.1846,274.25,181.1846,270.25,185.1846" style="stroke: #A80036; stroke-width: 1.0;"/><line style="stroke: #A80036; stroke-width: 1.5;" x1="270.25" x2="270.25" y1="83.9688" y2="134.0674"/><polygon fill="#A80036" points="266.25,124.0674,270.25,134.0674,274.25,124.0674,270.25,128.0674" style="stroke: #A80036; stroke-width: 1.0;"/><line style="stroke: #A80036; stroke-width: 1.5;" x1="270.25" x2="270.25" y1="225.1533" y2="260.3018"/><polygon fill="#A80036" points="266.25,250.3018,270.25,260.3018,274.25,250.3018,270.25,254.3018" style="stroke: #A80036; stroke-width: 1.0;"/><line style="stroke: #A80036; stroke-width: 1.5;" x1="270.25" x2="270.25" y1="308.2393" y2="328.2393"/><polygon fill="#A80036" points="266.25,318.2393,270.25,328.2393,274.25,318.2393,270.25,322.2393" style="stroke: #A80036; stroke-width: 1.0;"/><line style="stroke: #A80036; stroke-width: 1.5;" x1="210" x2="210" y1="540.3613" y2="560.3613"/><polygon fill="#A80036" points="206,550.3613,210,560.3613,214,550.3613,210,554.3613" style="stroke: #A80036; stroke-width: 1.0;"/><line style="stroke: #A80036; stroke-width: 1.5;" x1="210" x2="210" y1="594.3301" y2="614.3301"/><polygon fill="#A80036" points="206,604.3301,210,614.3301,214,604.3301,210,608.3301" style="stroke: #A80036; stroke-width: 1.0;"/><line style="stroke: #A80036; stroke-width: 1.5;" x1="210" x2="210" y1="648.2988" y2="668.2988"/><polygon fill="#A80036" points="206,658.2988,210,668.2988,214,658.2988,210,662.2988" style="stroke: #A80036; stroke-width: 1.0;"/><line style="stroke: #A80036; stroke-width: 1.5;" x1="210" x2="210" y1="456.1455" y2="506.3926"/><polygon fill="#A80036" points="206,496.3926,210,506.3926,214,496.3926,210,500.3926" style="stroke: #A80036; stroke-width: 1.0;"/><line style="stroke: #A80036; stroke-width: 1.5;" x1="210" x2="210" y1="819.5332" y2="839.5332"/><polygon fill="#A80036" points="206,829.5332,210,839.5332,214,829.5332,210,833.5332" style="stroke: #A80036; stroke-width: 1.0;"/><line style="stroke: #A80036; stroke-width: 1.5;" x1="210" x2="210" y1="873.502" y2="893.502"/><polygon fill="#A80036" points="206,883.502,210,893.502,214,883.502,210,887.502" style="stroke: #A80036; stroke-width: 1.0;"/><line style="stroke: #A80036; stroke-width: 1.5;" x1="210" x2="210" y1="702.2676" y2="785.5645"/><polygon fill="#A80036" points="206,775.5645,210,785.5645,214,775.5645,210,779.5645" style="stroke: #A80036; stroke-width: 1.0;"/><line style="stroke: #A80036; stroke-width: 1.5;" x1="210" x2="210" y1="1020.5381" y2="1040.5381"/><polygon fill="#A80036" points="206,1030.5381,210,1040.5381,214,1030.5381,210,1034.5381" style="stroke: #A80036; stroke-width: 1.0;"/><line style="stroke: #A80036; stroke-width: 1.5;" x1="210" x2="210" y1="927.4707" y2="986.5693"/><polygon fill="#A80036" points="206,976.5693,210,986.5693,214,976.5693,210,980.5693" style="stroke: #A80036; stroke-width: 1.0;"/><line style="stroke: #A80036; stroke-width: 1.5;" x1="210" x2="210" y1="402.1768" y2="422.1768"/><polygon fill="#A80036" points="206,412.1768,210,422.1768,214,412.1768,210,416.1768" style="stroke: #A80036; stroke-width: 1.0;"/><line style="stroke: #A80036; stroke-width: 1.5;" x1="210" x2="210" y1="1088.4756" y2="1120.4756"/><polygon fill="#A80036" points="206,1110.4756,210,1120.4756,214,1110.4756,210,1114.4756" style="stroke: #A80036; stroke-width: 1.0;"/><line style="stroke: #A80036; stroke-width: 1.5;" x1="270.25" x2="270.25" y1="376.1768" y2="396.1768"/><polygon fill="#A80036" points="266.25,386.1768,270.25,396.1768,274.25,386.1768,270.25,390.1768" style="stroke: #A80036; stroke-width: 1.0;"/><line style="stroke: #A80036; stroke-width: 1.5;" x1="213.25" x2="191" y1="1158.4756" y2="1158.4756"/><line style="stroke: #A80036; stroke-width: 1.5;" x1="191" x2="191" y1="1158.4756" y2="1180.4756"/><polygon fill="#A80036" points="187,1170.4756,191,1180.4756,195,1170.4756,191,1174.4756" style="stroke: #A80036; stroke-width: 1.0;"/><line style="stroke: #A80036; stroke-width: 1.5;" x1="327.25" x2="349.5" y1="1158.4756" y2="1158.4756"/><line style="stroke: #A80036; stroke-width: 1.5;" x1="349.5" x2="349.5" y1="1158.4756" y2="1180.4756"/><polygon fill="#A80036" points="345.5,1170.4756,349.5,1180.4756,353.5,1170.4756,349.5,1174.4756" style="stroke: #A80036; stroke-width: 1.0;"/><line style="stroke: #A80036; stroke-width: 1.5;" x1="191" x2="191" y1="1214.4443" y2="1232.4443"/><line style="stroke: #A80036; stroke-width: 1.5;" x1="191" x2="258.25" y1="1232.4443" y2="1232.4443"/><polygon fill="#A80036" points="248.25,1228.4443,258.25,1232.4443,248.25,1236.4443,252.25,1232.4443" style="stroke: #A80036; stroke-width: 1.0;"/><line style="stroke: #A80036; stroke-width: 1.5;" x1="349.5" x2="349.5" y1="1214.4443" y2="1232.4443"/><line style="stroke: #A80036; stroke-width: 1.5;" x1="349.5" x2="282.25" y1="1232.4443" y2="1232.4443"/><polygon fill="#A80036" points="292.25,1228.4443,282.25,1232.4443,292.25,1236.4443,288.25,1232.4443" style="stroke: #A80036; stroke-width: 1.0;"/><line style="stroke: #A80036; stroke-width: 1.5;" x1="270.25" x2="270.25" y1="1126.4756" y2="1146.4756"/><polygon fill="#A80036" points="266.25,1136.4756,270.25,1146.4756,274.25,1136.4756,270.25,1140.4756" style="stroke: #A80036; stroke-width: 1.0;"/><line style="stroke: #A80036; stroke-width: 1.5;" x1="270.25" x2="270.25" y1="1244.4443" y2="1264.4443"/><polygon fill="#A80036" points="266.25,1254.4443,270.25,1264.4443,274.25,1254.4443,270.25,1258.4443" style="stroke: #A80036; stroke-width: 1.0;"/><!--MD5=[1ce0a2f8460c7ad9b7a445e2251f3d62]
@startuml

start

:idpconfgen //pdbdl//;

partition #LIGHTGREY Examples {
    #WHITE:$ idpconfgen pdbdl culled.list -d folder -u -n;
    note right
        where //culled.list// is a list containing PDBID[CHAIN] codes,
        and //folder// is a destination folder that may not exist.
    end note
    #WHITE:$ idpconfgen pdbdl 12AS_A 4YBB_B culled.list -d pdbs.tar -u -n -chunks 5000;
    note right
        where //pdbs.tar// is a destination
        tar file.
    end note
    }

:Compares destination folder/file,
downloads only missing entries;

:filters out PDBID:CHAIN codes
known to be conflictive;
note right
    1MH1_A
end note

fork

:downloads PDB or mmCIF;
note right
    Attempts to download PDB,
    if unavailable, attempts CIF.
end note

partition #e6ffe6 "filtering **in**" {
    :converts PDB and mmCIF to the same internal format;
    :select MODEL 1 (if multiple MODELS);
    :select desired CHAIN;
    :keep altLoc `A` or None;
}

partition #ffe6e6 "filter out" {
    :non- N, C, CA, O, S, Se, H, D;
    :non- ribonucleiotides;
    :non- ligands (>1500);

}

partition "additional parsing" {
    :renumber atoms for saved chains;
    :delete insertion codes
        (//pdb_delinsertion// from //pdb-tools//);
}

end fork
note right
    This block is performed for each
    PDB file. In multiprocessing mode,
    each core pick a PDB code and run the whole
    block, once it is finished another PDB code
    is picked.
end note

if (destination `-d`) then (TAR)
    :save in TAR file;
else (folder)
    :save PDB/CIFs to folder;
endif
note right
    Files are saved after each chunk
    is completed.
end note

stop

@enduml

PlantUML version 1.2020.05(Thu Mar 19 17:17:32 EDT 2020)
(GPL source distribution)
Java Runtime: OpenJDK Runtime Environment
JVM: OpenJDK 64-Bit Server VM
Java Version: 11.0.7+10-post-Ubuntu-2ubuntu218.04
Operating System: Linux
Default Encoding: UTF-8
Language: en
Country: US
--></g></svg>