<?xml version="1.0" encoding="UTF-8" standalone="no"?><svg xmlns="http://www.w3.org/2000/svg" xmlns:xlink="http://www.w3.org/1999/xlink" contentScriptType="application/ecmascript" contentStyleType="text/css" height="841px" preserveAspectRatio="none" style="width:661px;height:841px;" version="1.1" viewBox="0 0 661 841" width="661px" zoomAndPan="magnify"><defs><filter height="300%" id="fzwpcsssqk2pq" width="300%" x="-1" y="-1"><feGaussianBlur result="blurOut" stdDeviation="2.0"/><feColorMatrix in="blurOut" result="blurOut2" type="matrix" values="0 0 0 0 0 0 0 0 0 0 0 0 0 0 0 0 0 0 .4 0"/><feOffset dx="4.0" dy="4.0" in="blurOut2" result="blurOut3"/><feBlend in="SourceGraphic" in2="blurOut3" mode="normal"/></filter></defs><g><ellipse cx="206" cy="20" fill="#000000" filter="url(#fzwpcsssqk2pq)" rx="10" ry="10" style="stroke: none; stroke-width: 1.0;"/><rect fill="#FEFECE" filter="url(#fzwpcsssqk2pq)" height="33.9688" rx="12.5" ry="12.5" style="stroke: #A80036; stroke-width: 1.5;" width="124" x="144" y="50"/><text fill="#000000" font-family="sans-serif" font-size="12" lengthAdjust="spacingAndGlyphs" textLength="70" x="154" y="71.1387">idpconfgen</text><text fill="#000000" font-family="sans-serif" font-size="12" font-style="italic" lengthAdjust="spacingAndGlyphs" textLength="30" x="228" y="71.1387">build</text><rect fill="#D3D3D3" filter="url(#fzwpcsssqk2pq)" height="82.2656" style="stroke: #000000; stroke-width: 2.0;" width="200" x="106" y="94.7705"/><path d="M182,95.7705 L182,104.0674 L172,114.0674 L106,114.0674 " fill="none" style="stroke: #000000; stroke-width: 2.0;"/><text fill="#000000" font-family="sans-serif" font-size="14" lengthAdjust="spacingAndGlyphs" textLength="66" x="109" y="108.7656">Examples</text><rect fill="#FFFFFF" filter="url(#fzwpcsssqk2pq)" height="33.9688" rx="12.5" ry="12.5" style="stroke: #A80036; stroke-width: 1.5;" width="180" x="116" y="131.0674"/><text fill="#000000" font-family="sans-serif" font-size="12" lengthAdjust="spacingAndGlyphs" textLength="160" x="126" y="152.2061">$ idpconfgen build pdbdb</text><rect fill="#FEFECE" filter="url(#fzwpcsssqk2pq)" height="163.6875" rx="12.5" ry="12.5" style="stroke: #A80036; stroke-width: 1.5;" width="322" x="45" y="197.0361"/><text fill="#000000" font-family="sans-serif" font-size="12" lengthAdjust="spacingAndGlyphs" textLength="168" x="55" y="218.1748">parsing pdbdbs to filter DB</text><text fill="#000000" font-family="sans-serif" font-size="12" lengthAdjust="spacingAndGlyphs" textLength="0" x="59" y="232.1436"/><text fill="#000000" font-family="sans-serif" font-size="12" font-weight="bold" lengthAdjust="spacingAndGlyphs" textLength="23" x="59" y="248.1123">PHI</text><text fill="#000000" font-family="sans-serif" font-size="12" font-weight="bold" lengthAdjust="spacingAndGlyphs" textLength="22" x="93" y="248.1123">PSI</text><text fill="#000000" font-family="sans-serif" font-size="12" font-weight="bold" lengthAdjust="spacingAndGlyphs" textLength="50" x="127" y="248.1123">OMEGA</text><text fill="#000000" font-family="sans-serif" font-size="12" font-weight="bold" lengthAdjust="spacingAndGlyphs" textLength="119" x="185" y="248.1123">AA residue name</text><text fill="#000000" font-family="sans-serif" font-size="12" font-weight="bold" lengthAdjust="spacingAndGlyphs" textLength="37" x="316" y="248.1123">DSSP</text><text fill="#000000" font-family="sans-serif" font-size="12" lengthAdjust="spacingAndGlyphs" textLength="4" x="59" y="262.0811">-</text><text fill="#000000" font-family="sans-serif" font-size="12" lengthAdjust="spacingAndGlyphs" textLength="6" x="93" y="262.0811">x</text><text fill="#000000" font-family="sans-serif" font-size="12" lengthAdjust="spacingAndGlyphs" textLength="6" x="127" y="262.0811">x</text><text fill="#000000" font-family="sans-serif" font-size="12" lengthAdjust="spacingAndGlyphs" textLength="10" x="185" y="262.0811">M</text><text fill="#000000" font-family="sans-serif" font-size="12" lengthAdjust="spacingAndGlyphs" textLength="6" x="316" y="262.0811">L</text><text fill="#000000" font-family="sans-serif" font-size="12" lengthAdjust="spacingAndGlyphs" textLength="6" x="59" y="276.0498">x</text><text fill="#000000" font-family="sans-serif" font-size="12" lengthAdjust="spacingAndGlyphs" textLength="6" x="93" y="276.0498">x</text><text fill="#000000" font-family="sans-serif" font-size="12" lengthAdjust="spacingAndGlyphs" textLength="6" x="127" y="276.0498">x</text><text fill="#000000" font-family="sans-serif" font-size="12" lengthAdjust="spacingAndGlyphs" textLength="9" x="185" y="276.0498">D</text><text fill="#000000" font-family="sans-serif" font-size="12" lengthAdjust="spacingAndGlyphs" textLength="6" x="316" y="276.0498">L</text><text fill="#000000" font-family="sans-serif" font-size="12" lengthAdjust="spacingAndGlyphs" textLength="22" x="59" y="290.0186">(...)</text><text fill="#000000" font-family="sans-serif" font-size="12" lengthAdjust="spacingAndGlyphs" textLength="22" x="93" y="290.0186">(...)</text><text fill="#000000" font-family="sans-serif" font-size="12" lengthAdjust="spacingAndGlyphs" textLength="22" x="127" y="290.0186">(...)</text><text fill="#000000" font-family="sans-serif" font-size="12" lengthAdjust="spacingAndGlyphs" textLength="22" x="185" y="290.0186">(...)</text><text fill="#000000" font-family="sans-serif" font-size="12" lengthAdjust="spacingAndGlyphs" textLength="22" x="316" y="290.0186">(...)</text><text fill="#000000" font-family="sans-serif" font-size="12" lengthAdjust="spacingAndGlyphs" textLength="6" x="59" y="303.9873">x</text><text fill="#000000" font-family="sans-serif" font-size="12" lengthAdjust="spacingAndGlyphs" textLength="4" x="93" y="303.9873">-</text><text fill="#000000" font-family="sans-serif" font-size="12" lengthAdjust="spacingAndGlyphs" textLength="4" x="127" y="303.9873">-</text><text fill="#000000" font-family="sans-serif" font-size="12" lengthAdjust="spacingAndGlyphs" textLength="8" x="185" y="303.9873">E</text><text fill="#000000" font-family="sans-serif" font-size="12" lengthAdjust="spacingAndGlyphs" textLength="6" x="316" y="303.9873">L</text><text fill="#000000" font-family="sans-serif" font-size="12" lengthAdjust="spacingAndGlyphs" textLength="26" x="59" y="317.9561">NAN</text><text fill="#000000" font-family="sans-serif" font-size="12" lengthAdjust="spacingAndGlyphs" textLength="26" x="93" y="317.9561">NAN</text><text fill="#000000" font-family="sans-serif" font-size="12" lengthAdjust="spacingAndGlyphs" textLength="26" x="127" y="317.9561">NAN</text><text fill="#000000" font-family="sans-serif" font-size="12" lengthAdjust="spacingAndGlyphs" textLength="27" x="185" y="317.9561">pipe</text><text fill="#000000" font-family="sans-serif" font-size="12" lengthAdjust="spacingAndGlyphs" textLength="27" x="316" y="317.9561">pipe</text><line style="stroke: #000000; stroke-width: 1.5;" x1="55" x2="357" y1="236.9736" y2="236.9736"/><line style="stroke: #000000; stroke-width: 1.5;" x1="55" x2="357" y1="250.9424" y2="250.9424"/><line style="stroke: #000000; stroke-width: 1.5;" x1="55" x2="357" y1="264.9111" y2="264.9111"/><line style="stroke: #000000; stroke-width: 1.5;" x1="55" x2="357" y1="278.8799" y2="278.8799"/><line style="stroke: #000000; stroke-width: 1.5;" x1="55" x2="357" y1="292.8486" y2="292.8486"/><line style="stroke: #000000; stroke-width: 1.5;" x1="55" x2="357" y1="306.8174" y2="306.8174"/><line style="stroke: #000000; stroke-width: 1.5;" x1="55" x2="357" y1="320.7861" y2="320.7861"/><line style="stroke: #000000; stroke-width: 1.5;" x1="55" x2="55" y1="236.9736" y2="320.7861"/><line style="stroke: #000000; stroke-width: 1.5;" x1="89" x2="89" y1="236.9736" y2="320.7861"/><line style="stroke: #000000; stroke-width: 1.5;" x1="123" x2="123" y1="236.9736" y2="320.7861"/><line style="stroke: #000000; stroke-width: 1.5;" x1="181" x2="181" y1="236.9736" y2="320.7861"/><line style="stroke: #000000; stroke-width: 1.5;" x1="312" x2="312" y1="236.9736" y2="320.7861"/><line style="stroke: #000000; stroke-width: 1.5;" x1="357" x2="357" y1="236.9736" y2="320.7861"/><text fill="#000000" font-family="sans-serif" font-size="12" lengthAdjust="spacingAndGlyphs" textLength="0" x="59" y="333.9248"/><text fill="#000000" font-family="sans-serif" font-size="12" lengthAdjust="spacingAndGlyphs" textLength="0" x="59" y="347.8936"/><rect fill="#FFFFFF" filter="url(#fzwpcsssqk2pq)" height="312.4297" style="stroke: #000000; stroke-width: 2.0;" width="633.5" x="17" y="371.5254"/><path d="M158,372.5254 L158,380.8223 L148,390.8223 L17,390.8223 " fill="none" style="stroke: #000000; stroke-width: 2.0;"/><text fill="#000000" font-family="sans-serif" font-size="14" lengthAdjust="spacingAndGlyphs" textLength="131" x="20" y="385.5205">First layer requests</text><path d="M384,412.2402 L384,420.8066 L364,424.8066 L384,428.8066 L384,437.373 A0,0 0 0 0 384,437.373 L466,437.373 A0,0 0 0 0 466,437.373 L466,422.2402 L456,412.2402 L384,412.2402 A0,0 0 0 0 384,412.2402 " fill="#FBFB77" filter="url(#fzwpcsssqk2pq)" style="stroke: #A80036; stroke-width: 1.0;"/><path d="M456,412.2402 L456,422.2402 L466,422.2402 L456,412.2402 " fill="#FBFB77" style="stroke: #A80036; stroke-width: 1.0;"/><text fill="#000000" font-family="sans-serif" font-size="13" lengthAdjust="spacingAndGlyphs" textLength="61" x="390" y="429.3071">~ 0.8 sec</text><rect fill="#FEFECE" filter="url(#fzwpcsssqk2pq)" height="33.9688" rx="12.5" ry="12.5" style="stroke: #A80036; stroke-width: 1.5;" width="316" x="48" y="407.8223"/><text fill="#000000" font-family="sans-serif" font-size="12" lengthAdjust="spacingAndGlyphs" textLength="296" x="58" y="428.9609">unique secondary structure of observed length</text><path d="M394.5,466.209 L394.5,474.7754 L374.5,478.7754 L394.5,482.7754 L394.5,491.3418 A0,0 0 0 0 394.5,491.3418 L640.5,491.3418 A0,0 0 0 0 640.5,491.3418 L640.5,476.209 L630.5,466.209 L394.5,466.209 A0,0 0 0 0 394.5,466.209 " fill="#FBFB77" filter="url(#fzwpcsssqk2pq)" style="stroke: #A80036; stroke-width: 1.0;"/><path d="M630.5,466.209 L630.5,476.209 L640.5,476.209 L630.5,466.209 " fill="#FBFB77" style="stroke: #A80036; stroke-width: 1.0;"/><text fill="#000000" font-family="sans-serif" font-size="13" lengthAdjust="spacingAndGlyphs" textLength="74" x="400.5" y="483.2759">fixed length</text><text fill="#000000" font-family="sans-serif" font-size="13" font-weight="bold" lengthAdjust="spacingAndGlyphs" textLength="78" x="478.5" y="483.2759">no overlap</text><text fill="#000000" font-family="sans-serif" font-size="13" lengthAdjust="spacingAndGlyphs" textLength="69" x="556.5" y="483.2759">: ~ 0.5 sec</text><rect fill="#FEFECE" filter="url(#fzwpcsssqk2pq)" height="33.9688" rx="12.5" ry="12.5" style="stroke: #A80036; stroke-width: 1.5;" width="337" x="37.5" y="461.791"/><text fill="#000000" font-family="sans-serif" font-size="12" lengthAdjust="spacingAndGlyphs" textLength="317" x="47.5" y="482.9297">unique secondary structure of user defined length</text><path d="M405,505.7598 L405,552.1582 L385,556.1582 L405,560.1582 L405,606.5566 A0,0 0 0 0 405,606.5566 L576,606.5566 A0,0 0 0 0 576,606.5566 L576,515.7598 L566,505.7598 L405,505.7598 A0,0 0 0 0 405,505.7598 " fill="#FBFB77" filter="url(#fzwpcsssqk2pq)" style="stroke: #A80036; stroke-width: 1.0;"/><path d="M566,505.7598 L566,515.7598 L576,515.7598 L566,505.7598 " fill="#FBFB77" style="stroke: #A80036; stroke-width: 1.0;"/><text fill="#000000" font-family="sans-serif" font-size="13" lengthAdjust="spacingAndGlyphs" textLength="69" x="411" y="522.8267">(?=(L{2}))</text><text fill="#000000" font-family="sans-serif" font-size="13" lengthAdjust="spacingAndGlyphs" textLength="69" x="411" y="537.9595">(?=(L{3}))</text><text fill="#000000" font-family="sans-serif" font-size="13" lengthAdjust="spacingAndGlyphs" textLength="69" x="411" y="553.0923">(?=(L{4}))</text><text fill="#000000" font-family="sans-serif" font-size="13" lengthAdjust="spacingAndGlyphs" textLength="69" x="411" y="568.2251">(?=(L{5}))</text><text fill="#000000" font-family="sans-serif" font-size="13" lengthAdjust="spacingAndGlyphs" textLength="69" x="411" y="583.3579">(?=(L{6}))</text><text fill="#000000" font-family="sans-serif" font-size="13" lengthAdjust="spacingAndGlyphs" textLength="150" x="411" y="598.4907">14.898 secs single core</text><rect fill="#FEFECE" filter="url(#fzwpcsssqk2pq)" height="33.9688" rx="12.5" ry="12.5" style="stroke: #A80036; stroke-width: 1.5;" width="358" x="27" y="539.1738"/><text fill="#000000" font-family="sans-serif" font-size="12" lengthAdjust="spacingAndGlyphs" textLength="338" x="37" y="560.3125">unique secondary structure of variable (range) length</text><path d="M399,616.5566 L399,640.2559 L379,644.2559 L399,648.2559 L399,671.9551 A0,0 0 0 0 399,671.9551 L578,671.9551 A0,0 0 0 0 578,671.9551 L578,626.5566 L568,616.5566 L399,616.5566 A0,0 0 0 0 399,616.5566 " fill="#FBFB77" filter="url(#fzwpcsssqk2pq)" style="stroke: #A80036; stroke-width: 1.0;"/><path d="M568,616.5566 L568,626.5566 L578,626.5566 L568,616.5566 " fill="#FBFB77" style="stroke: #A80036; stroke-width: 1.0;"/><text fill="#000000" font-family="sans-serif" font-size="13" lengthAdjust="spacingAndGlyphs" textLength="158" x="405" y="633.6235">H{1,2} dummy example</text><text fill="#000000" font-family="sans-serif" font-size="13" lengthAdjust="spacingAndGlyphs" textLength="96" x="405" y="648.7563">range [1 to 20]</text><text fill="#000000" font-family="sans-serif" font-size="13" lengthAdjust="spacingAndGlyphs" textLength="85" x="405" y="663.8892">103.777 secs</text><rect fill="#FEFECE" filter="url(#fzwpcsssqk2pq)" height="33.9688" rx="12.5" ry="12.5" style="stroke: #A80036; stroke-width: 1.5;" width="346" x="33" y="627.2715"/><text fill="#000000" font-family="sans-serif" font-size="12" lengthAdjust="spacingAndGlyphs" textLength="219" x="43" y="648.4102">secondary structure combinations:</text><text fill="#000000" font-family="sans-serif" font-size="12" font-style="italic" lengthAdjust="spacingAndGlyphs" textLength="103" x="266" y="648.4102">L+ - H{1,2} - L+</text><rect fill="#FFFFFF" filter="url(#fzwpcsssqk2pq)" height="136.2344" style="stroke: #000000; stroke-width: 2.0;" width="392" x="10" y="694.7568"/><path d="M167,695.7568 L167,704.0537 L157,714.0537 L10,714.0537 " fill="none" style="stroke: #000000; stroke-width: 2.0;"/><text fill="#000000" font-family="sans-serif" font-size="14" lengthAdjust="spacingAndGlyphs" textLength="147" x="13" y="708.752">Second layer request</text><rect fill="#FEFECE" filter="url(#fzwpcsssqk2pq)" height="33.9688" rx="12.5" ry="12.5" style="stroke: #A80036; stroke-width: 1.5;" width="257" x="77.5" y="731.0537"/><text fill="#000000" font-family="sans-serif" font-size="12" lengthAdjust="spacingAndGlyphs" textLength="237" x="87.5" y="752.1924">FASTA sequence match - 100% match</text><rect fill="#FEFECE" filter="url(#fzwpcsssqk2pq)" height="33.9688" rx="12.5" ry="12.5" style="stroke: #A80036; stroke-width: 1.5;" width="372" x="20" y="785.0225"/><text fill="#000000" font-family="sans-serif" font-size="12" lengthAdjust="spacingAndGlyphs" textLength="352" x="30" y="806.1611">FASTA sequence pattern match - user/analysis specified</text><line style="stroke: #A80036; stroke-width: 1.5;" x1="206" x2="206" y1="30" y2="50"/><polygon fill="#A80036" points="202,40,206,50,210,40,206,44" style="stroke: #A80036; stroke-width: 1.0;"/><line style="stroke: #A80036; stroke-width: 1.5;" x1="206" x2="206" y1="83.9688" y2="131.0674"/><polygon fill="#A80036" points="202,121.0674,206,131.0674,210,121.0674,206,125.0674" style="stroke: #A80036; stroke-width: 1.0;"/><line style="stroke: #A80036; stroke-width: 1.5;" x1="206" x2="206" y1="165.0361" y2="197.0361"/><polygon fill="#A80036" points="202,187.0361,206,197.0361,210,187.0361,206,191.0361" style="stroke: #A80036; stroke-width: 1.0;"/><line style="stroke: #A80036; stroke-width: 1.5;" x1="206" x2="206" y1="441.791" y2="461.791"/><polygon fill="#A80036" points="202,451.791,206,461.791,210,451.791,206,455.791" style="stroke: #A80036; stroke-width: 1.0;"/><line style="stroke: #A80036; stroke-width: 1.5;" x1="206" x2="206" y1="495.7598" y2="539.1738"/><polygon fill="#A80036" points="202,529.1738,206,539.1738,210,529.1738,206,533.1738" style="stroke: #A80036; stroke-width: 1.0;"/><line style="stroke: #A80036; stroke-width: 1.5;" x1="206" x2="206" y1="573.1426" y2="627.2715"/><polygon fill="#A80036" points="202,617.2715,206,627.2715,210,617.2715,206,621.2715" style="stroke: #A80036; stroke-width: 1.0;"/><line style="stroke: #A80036; stroke-width: 1.5;" x1="206" x2="206" y1="360.7236" y2="407.8223"/><polygon fill="#A80036" points="202,397.8223,206,407.8223,210,397.8223,206,401.8223" style="stroke: #A80036; stroke-width: 1.0;"/><line style="stroke: #A80036; stroke-width: 1.5;" x1="206" x2="206" y1="765.0225" y2="785.0225"/><polygon fill="#A80036" points="202,775.0225,206,785.0225,210,775.0225,206,779.0225" style="stroke: #A80036; stroke-width: 1.0;"/><line style="stroke: #A80036; stroke-width: 1.5;" x1="206" x2="206" y1="661.2402" y2="731.0537"/><polygon fill="#A80036" points="202,721.0537,206,731.0537,210,721.0537,206,725.0537" style="stroke: #A80036; stroke-width: 1.0;"/><!--MD5=[c984e650ad271cc122c7fd25ed26497c]
@startuml

start

:idpconfgen //build//;

partition #LIGHTGREY Examples {
    #WHITE:$ idpconfgen build pdbdb;
    }

:parsing pdbdbs to filter DB

|= PHI |= PSI |= OMEGA |= AA residue name  |= DSSP |
| - | x | x | M | L |
| x | x | x | D | L |
| (...) | (...) | (...)  | (...) | (...) |
| x | - | - | E | L |
| NAN | NAN | NAN | pipe | pipe |

;


partition "First layer requests" {
    :unique secondary structure of observed length;
    note right
        ~ 0.8 sec
    end note
    :unique secondary structure of user defined length;
    note right
        fixed length **no overlap**: ~ 0.5 sec
    end note
    :unique secondary structure of variable (range) length;
    note right
        (?=(L{2}))
        (?=(L{3}))
        (?=(L{4}))
        (?=(L{5}))
        (?=(L{6}))
        14.898 secs single core
    end note
    :secondary structure combinations: //L+ - H{1,2} - L+//;
    note right
        H{1,2} dummy example
        range [1 to 20]
        103.777 secs
    end note
    }

partition "Second layer request" {
    :FASTA sequence match - 100% match;
    :FASTA sequence pattern match - user/analysis specified;
    }

@enduml

PlantUML version 1.2020.05(Thu Mar 19 17:17:32 EDT 2020)
(GPL source distribution)
Java Runtime: OpenJDK Runtime Environment
JVM: OpenJDK 64-Bit Server VM
Java Version: 11.0.7+10-post-Ubuntu-2ubuntu218.04
Operating System: Linux
Default Encoding: UTF-8
Language: en
Country: US
--></g></svg>