<?xml version="1.0" encoding="UTF-8" standalone="no"?><svg xmlns="http://www.w3.org/2000/svg" xmlns:xlink="http://www.w3.org/1999/xlink" contentScriptType="application/ecmascript" contentStyleType="text/css" height="885px" preserveAspectRatio="none" style="width:685px;height:885px;" version="1.1" viewBox="0 0 685 885" width="685px" zoomAndPan="magnify"><defs><filter height="300%" id="f16x5b4b7vr4uy" width="300%" x="-1" y="-1"><feGaussianBlur result="blurOut" stdDeviation="2.0"/><feColorMatrix in="blurOut" result="blurOut2" type="matrix" values="0 0 0 0 0 0 0 0 0 0 0 0 0 0 0 0 0 0 .4 0"/><feOffset dx="4.0" dy="4.0" in="blurOut2" result="blurOut3"/><feBlend in="SourceGraphic" in2="blurOut3" mode="normal"/></filter></defs><g><ellipse cx="342" cy="20" fill="#000000" filter="url(#f16x5b4b7vr4uy)" rx="10" ry="10" style="stroke: none; stroke-width: 1.0;"/><rect fill="#FEFECE" filter="url(#f16x5b4b7vr4uy)" height="33.9688" rx="12.5" ry="12.5" style="stroke: #A80036; stroke-width: 1.5;" width="135" x="274.5" y="50"/><text fill="#000000" font-family="sans-serif" font-size="12" lengthAdjust="spacingAndGlyphs" textLength="70" x="284.5" y="71.1387">idpconfgen</text><text fill="#000000" font-family="sans-serif" font-size="12" font-style="italic" lengthAdjust="spacingAndGlyphs" textLength="41" x="358.5" y="71.1387">bbsplit</text><rect fill="#D3D3D3" filter="url(#f16x5b4b7vr4uy)" height="190.2031" style="stroke: #000000; stroke-width: 2.0;" width="664" x="10" y="94.7705"/><path d="M86,95.7705 L86,104.0674 L76,114.0674 L10,114.0674 " fill="none" style="stroke: #000000; stroke-width: 2.0;"/><text fill="#000000" font-family="sans-serif" font-size="14" lengthAdjust="spacingAndGlyphs" textLength="66" x="13" y="108.7656">Examples</text><rect fill="#FFFFFF" filter="url(#f16x5b4b7vr4uy)" height="33.9688" rx="12.5" ry="12.5" style="stroke: #A80036; stroke-width: 1.5;" width="340" x="172" y="131.0674"/><text fill="#000000" font-family="sans-serif" font-size="12" lengthAdjust="spacingAndGlyphs" textLength="320" x="182" y="152.2061">$ idpconfgen bbsplit filtered_pdbs/ -d split_pdbs/ -n</text><rect fill="#FFFFFF" filter="url(#f16x5b4b7vr4uy)" height="33.9688" rx="12.5" ry="12.5" style="stroke: #A80036; stroke-width: 1.5;" width="616" x="34" y="185.0361"/><text fill="#000000" font-family="sans-serif" font-size="12" lengthAdjust="spacingAndGlyphs" textLength="596" x="44" y="206.1748">$ idpconfgen bbsplit filtered_pdbs/ --dssp dssp.json --dssp-dest dssp_split.json -d split_pdbs/ -n</text><rect fill="#FFFFFF" filter="url(#f16x5b4b7vr4uy)" height="33.9688" rx="12.5" ry="12.5" style="stroke: #A80036; stroke-width: 1.5;" width="644" x="20" y="239.0049"/><text fill="#000000" font-family="sans-serif" font-size="12" lengthAdjust="spacingAndGlyphs" textLength="624" x="30" y="260.1436">$ idpconfgen bbsplit filtered_pdbs/ --dssp dssp.pickle --dssp-dest dssp_split.json -d split_pdbs.tar -n</text><polygon fill="#FEFECE" filter="url(#f16x5b4b7vr4uy)" points="313.5,304.9736,370.5,304.9736,382.5,316.9736,370.5,328.9736,313.5,328.9736,301.5,316.9736,313.5,304.9736" style="stroke: #A80036; stroke-width: 1.5;"/><text fill="#000000" font-family="sans-serif" font-size="11" lengthAdjust="spacingAndGlyphs" textLength="57" x="313.5" y="320.7817">input data</text><text fill="#000000" font-family="sans-serif" font-size="11" lengthAdjust="spacingAndGlyphs" textLength="37" x="264.5" y="314.3794">tar file</text><text fill="#000000" font-family="sans-serif" font-size="11" lengthAdjust="spacingAndGlyphs" textLength="33" x="382.5" y="314.3794">folder</text><rect fill="#FEFECE" filter="url(#f16x5b4b7vr4uy)" height="47.9375" rx="12.5" ry="12.5" style="stroke: #A80036; stroke-width: 1.5;" width="179" x="148.75" y="338.9736"/><text fill="#000000" font-family="sans-serif" font-size="12" lengthAdjust="spacingAndGlyphs" textLength="36" x="158.75" y="360.1123">reads</text><text fill="#000000" font-family="sans-serif" font-size="12" font-style="italic" lengthAdjust="spacingAndGlyphs" textLength="28" x="198.75" y="360.1123">.pdb</text><text fill="#000000" font-family="sans-serif" font-size="12" lengthAdjust="spacingAndGlyphs" textLength="65" x="230.75" y="360.1123">files in the</text><text fill="#000000" font-family="sans-serif" font-size="12" font-style="italic" lengthAdjust="spacingAndGlyphs" textLength="18" x="158.75" y="374.0811">tar</text><text fill="#000000" font-family="sans-serif" font-size="12" lengthAdjust="spacingAndGlyphs" textLength="137" x="180.75" y="374.0811">file without unpacking</text><rect fill="#FEFECE" filter="url(#f16x5b4b7vr4uy)" height="33.9688" rx="12.5" ry="12.5" style="stroke: #A80036; stroke-width: 1.5;" width="196" x="347.75" y="338.9736"/><text fill="#000000" font-family="sans-serif" font-size="12" lengthAdjust="spacingAndGlyphs" textLength="30" x="357.75" y="360.1123">uses</text><text fill="#000000" font-family="sans-serif" font-size="12" font-style="italic" lengthAdjust="spacingAndGlyphs" textLength="28" x="391.75" y="360.1123">.pdb</text><text fill="#000000" font-family="sans-serif" font-size="12" lengthAdjust="spacingAndGlyphs" textLength="110" x="423.75" y="360.1123">files in that folder</text><polygon fill="#FEFECE" filter="url(#f16x5b4b7vr4uy)" points="342,392.9111,354,404.9111,342,416.9111,330,404.9111,342,392.9111" style="stroke: #A80036; stroke-width: 1.5;"/><rect fill="#000000" filter="url(#f16x5b4b7vr4uy)" height="6" rx="2.5" ry="2.5" style="stroke: #000000; stroke-width: 1.0;" width="317" x="183.5" y="436.9111"/><rect fill="#FEFECE" filter="url(#f16x5b4b7vr4uy)" height="75.875" rx="12.5" ry="12.5" style="stroke: #A80036; stroke-width: 1.5;" width="289" x="197.5" y="462.9111"/><text fill="#000000" font-family="sans-serif" font-size="12" lengthAdjust="spacingAndGlyphs" textLength="95" x="207.5" y="484.0498">identify gaps in</text><text fill="#000000" font-family="sans-serif" font-size="12" font-style="italic" lengthAdjust="spacingAndGlyphs" textLength="30" x="306.5" y="484.0498">pdbs</text><text fill="#000000" font-family="sans-serif" font-size="12" lengthAdjust="spacingAndGlyphs" textLength="136" x="340.5" y="484.0498">backbones based on:</text><text fill="#000000" font-family="sans-serif" font-size="12" lengthAdjust="spacingAndGlyphs" textLength="213" x="223.5" y="498.0186">- discontinuity of residue numbers</text><text fill="#000000" font-family="sans-serif" font-size="12" lengthAdjust="spacingAndGlyphs" textLength="222" x="223.5" y="511.9873">- discontinuity of N, CA, C backbone</text><text fill="#000000" font-family="sans-serif" font-size="12" lengthAdjust="spacingAndGlyphs" textLength="0" x="223.5" y="525.9561"/><rect fill="#FEFECE" filter="url(#f16x5b4b7vr4uy)" height="33.9688" rx="12.5" ry="12.5" style="stroke: #A80036; stroke-width: 1.5;" width="227" x="228.5" y="558.7861"/><text fill="#000000" font-family="sans-serif" font-size="12" lengthAdjust="spacingAndGlyphs" textLength="73" x="238.5" y="579.9248">subprocess</text><text fill="#000000" font-family="sans-serif" font-size="12" font-style="italic" lengthAdjust="spacingAndGlyphs" textLength="46" x="315.5" y="579.9248">mkdssp</text><text fill="#000000" font-family="sans-serif" font-size="12" lengthAdjust="spacingAndGlyphs" textLength="80" x="365.5" y="579.9248">on each PDB</text><rect fill="#FEFECE" filter="url(#f16x5b4b7vr4uy)" height="75.875" rx="12.5" ry="12.5" style="stroke: #A80036; stroke-width: 1.5;" width="166" x="259" y="612.7549"/><text fill="#000000" font-family="sans-serif" font-size="12" lengthAdjust="spacingAndGlyphs" textLength="41" x="269" y="633.8936">collect</text><text fill="#000000" font-family="sans-serif" font-size="12" lengthAdjust="spacingAndGlyphs" textLength="103" x="301" y="647.8623">residue number,</text><text fill="#000000" font-family="sans-serif" font-size="12" lengthAdjust="spacingAndGlyphs" textLength="114" x="301" y="661.8311">Sec Str character,</text><text fill="#000000" font-family="sans-serif" font-size="12" lengthAdjust="spacingAndGlyphs" textLength="103" x="301" y="675.7998">FASTA character</text><rect fill="#000000" filter="url(#f16x5b4b7vr4uy)" height="6" rx="2.5" ry="2.5" style="stroke: #000000; stroke-width: 1.0;" width="317" x="183.5" y="708.6299"/><polygon fill="#FEFECE" filter="url(#f16x5b4b7vr4uy)" points="293,734.6299,391,734.6299,403,746.6299,391,758.6299,293,758.6299,281,746.6299,293,734.6299" style="stroke: #A80036; stroke-width: 1.5;"/><text fill="#000000" font-family="sans-serif" font-size="11" lengthAdjust="spacingAndGlyphs" textLength="98" x="293" y="750.438">save data to disk</text><text fill="#000000" font-family="sans-serif" font-size="11" lengthAdjust="spacingAndGlyphs" textLength="28" x="253" y="744.0356">JSON</text><text fill="#000000" font-family="sans-serif" font-size="11" lengthAdjust="spacingAndGlyphs" textLength="38" x="403" y="744.0356">PICKLE</text><rect fill="#FEFECE" filter="url(#f16x5b4b7vr4uy)" height="33.9688" rx="12.5" ry="12.5" style="stroke: #A80036; stroke-width: 1.5;" width="193" x="132" y="768.6299"/><text fill="#000000" font-family="sans-serif" font-size="12" lengthAdjust="spacingAndGlyphs" textLength="118" x="142" y="789.7686">saves dictionary to</text><text fill="#000000" font-family="sans-serif" font-size="12" font-style="italic" lengthAdjust="spacingAndGlyphs" textLength="29" x="264" y="789.7686">.json</text><text fill="#000000" font-family="sans-serif" font-size="12" lengthAdjust="spacingAndGlyphs" textLength="18" x="297" y="789.7686">file</text><rect fill="#FEFECE" filter="url(#f16x5b4b7vr4uy)" height="33.9688" rx="12.5" ry="12.5" style="stroke: #A80036; stroke-width: 1.5;" width="221" x="345" y="768.6299"/><text fill="#000000" font-family="sans-serif" font-size="12" lengthAdjust="spacingAndGlyphs" textLength="118" x="355" y="789.7686">saves dictionary to</text><text fill="#000000" font-family="sans-serif" font-size="12" font-style="italic" lengthAdjust="spacingAndGlyphs" textLength="36" x="477" y="789.7686">pickle</text><text fill="#000000" font-family="sans-serif" font-size="12" lengthAdjust="spacingAndGlyphs" textLength="39" x="517" y="789.7686">object</text><polygon fill="#FEFECE" filter="url(#f16x5b4b7vr4uy)" points="342,808.5986,354,820.5986,342,832.5986,330,820.5986,342,808.5986" style="stroke: #A80036; stroke-width: 1.5;"/><ellipse cx="342" cy="863.5986" fill="#FFFFFF" filter="url(#f16x5b4b7vr4uy)" rx="11" ry="11" style="stroke: #000000; stroke-width: 1.0;"/><ellipse cx="342" cy="863.5986" fill="#000000" rx="6" ry="6" style="stroke: #7F7F7F; stroke-width: 1.0;"/><line style="stroke: #A80036; stroke-width: 1.5;" x1="342" x2="342" y1="30" y2="50"/><polygon fill="#A80036" points="338,40,342,50,346,40,342,44" style="stroke: #A80036; stroke-width: 1.0;"/><line style="stroke: #A80036; stroke-width: 1.5;" x1="342" x2="342" y1="165.0361" y2="185.0361"/><polygon fill="#A80036" points="338,175.0361,342,185.0361,346,175.0361,342,179.0361" style="stroke: #A80036; stroke-width: 1.0;"/><line style="stroke: #A80036; stroke-width: 1.5;" x1="342" x2="342" y1="219.0049" y2="239.0049"/><polygon fill="#A80036" points="338,229.0049,342,239.0049,346,229.0049,342,233.0049" style="stroke: #A80036; stroke-width: 1.0;"/><line style="stroke: #A80036; stroke-width: 1.5;" x1="342" x2="342" y1="83.9688" y2="131.0674"/><polygon fill="#A80036" points="338,121.0674,342,131.0674,346,121.0674,342,125.0674" style="stroke: #A80036; stroke-width: 1.0;"/><line style="stroke: #A80036; stroke-width: 1.5;" x1="301.5" x2="238.25" y1="316.9736" y2="316.9736"/><line style="stroke: #A80036; stroke-width: 1.5;" x1="238.25" x2="238.25" y1="316.9736" y2="338.9736"/><polygon fill="#A80036" points="234.25,328.9736,238.25,338.9736,242.25,328.9736,238.25,332.9736" style="stroke: #A80036; stroke-width: 1.0;"/><line style="stroke: #A80036; stroke-width: 1.5;" x1="382.5" x2="445.75" y1="316.9736" y2="316.9736"/><line style="stroke: #A80036; stroke-width: 1.5;" x1="445.75" x2="445.75" y1="316.9736" y2="338.9736"/><polygon fill="#A80036" points="441.75,328.9736,445.75,338.9736,449.75,328.9736,445.75,332.9736" style="stroke: #A80036; stroke-width: 1.0;"/><line style="stroke: #A80036; stroke-width: 1.5;" x1="238.25" x2="238.25" y1="386.9111" y2="404.9111"/><line style="stroke: #A80036; stroke-width: 1.5;" x1="238.25" x2="330" y1="404.9111" y2="404.9111"/><polygon fill="#A80036" points="320,400.9111,330,404.9111,320,408.9111,324,404.9111" style="stroke: #A80036; stroke-width: 1.0;"/><line style="stroke: #A80036; stroke-width: 1.5;" x1="445.75" x2="445.75" y1="372.9424" y2="404.9111"/><line style="stroke: #A80036; stroke-width: 1.5;" x1="445.75" x2="354" y1="404.9111" y2="404.9111"/><polygon fill="#A80036" points="364,400.9111,354,404.9111,364,408.9111,360,404.9111" style="stroke: #A80036; stroke-width: 1.0;"/><line style="stroke: #A80036; stroke-width: 1.5;" x1="342" x2="342" y1="272.9736" y2="304.9736"/><polygon fill="#A80036" points="338,294.9736,342,304.9736,346,294.9736,342,298.9736" style="stroke: #A80036; stroke-width: 1.0;"/><line style="stroke: #A80036; stroke-width: 1.5;" x1="342" x2="342" y1="538.7861" y2="558.7861"/><polygon fill="#A80036" points="338,548.7861,342,558.7861,346,548.7861,342,552.7861" style="stroke: #A80036; stroke-width: 1.0;"/><line style="stroke: #A80036; stroke-width: 1.5;" x1="342" x2="342" y1="592.7549" y2="612.7549"/><polygon fill="#A80036" points="338,602.7549,342,612.7549,346,602.7549,342,606.7549" style="stroke: #A80036; stroke-width: 1.0;"/><line style="stroke: #A80036; stroke-width: 1.5;" x1="342" x2="342" y1="442.9111" y2="462.9111"/><polygon fill="#A80036" points="338,452.9111,342,462.9111,346,452.9111,342,456.9111" style="stroke: #A80036; stroke-width: 1.0;"/><line style="stroke: #A80036; stroke-width: 1.5;" x1="342" x2="342" y1="688.6299" y2="708.6299"/><polygon fill="#A80036" points="338,698.6299,342,708.6299,346,698.6299,342,702.6299" style="stroke: #A80036; stroke-width: 1.0;"/><line style="stroke: #A80036; stroke-width: 1.5;" x1="342" x2="342" y1="416.9111" y2="436.9111"/><polygon fill="#A80036" points="338,426.9111,342,436.9111,346,426.9111,342,430.9111" style="stroke: #A80036; stroke-width: 1.0;"/><line style="stroke: #A80036; stroke-width: 1.5;" x1="281" x2="228.5" y1="746.6299" y2="746.6299"/><line style="stroke: #A80036; stroke-width: 1.5;" x1="228.5" x2="228.5" y1="746.6299" y2="768.6299"/><polygon fill="#A80036" points="224.5,758.6299,228.5,768.6299,232.5,758.6299,228.5,762.6299" style="stroke: #A80036; stroke-width: 1.0;"/><line style="stroke: #A80036; stroke-width: 1.5;" x1="403" x2="455.5" y1="746.6299" y2="746.6299"/><line style="stroke: #A80036; stroke-width: 1.5;" x1="455.5" x2="455.5" y1="746.6299" y2="768.6299"/><polygon fill="#A80036" points="451.5,758.6299,455.5,768.6299,459.5,758.6299,455.5,762.6299" style="stroke: #A80036; stroke-width: 1.0;"/><line style="stroke: #A80036; stroke-width: 1.5;" x1="228.5" x2="228.5" y1="802.5986" y2="820.5986"/><line style="stroke: #A80036; stroke-width: 1.5;" x1="228.5" x2="330" y1="820.5986" y2="820.5986"/><polygon fill="#A80036" points="320,816.5986,330,820.5986,320,824.5986,324,820.5986" style="stroke: #A80036; stroke-width: 1.0;"/><line style="stroke: #A80036; stroke-width: 1.5;" x1="455.5" x2="455.5" y1="802.5986" y2="820.5986"/><line style="stroke: #A80036; stroke-width: 1.5;" x1="455.5" x2="354" y1="820.5986" y2="820.5986"/><polygon fill="#A80036" points="364,816.5986,354,820.5986,364,824.5986,360,820.5986" style="stroke: #A80036; stroke-width: 1.0;"/><line style="stroke: #A80036; stroke-width: 1.5;" x1="342" x2="342" y1="714.6299" y2="734.6299"/><polygon fill="#A80036" points="338,724.6299,342,734.6299,346,724.6299,342,728.6299" style="stroke: #A80036; stroke-width: 1.0;"/><line style="stroke: #A80036; stroke-width: 1.5;" x1="342" x2="342" y1="832.5986" y2="852.5986"/><polygon fill="#A80036" points="338,842.5986,342,852.5986,346,842.5986,342,846.5986" style="stroke: #A80036; stroke-width: 1.0;"/><!--MD5=[fb9de0e32d1cb730afd6107a154af02b]
@startuml

start

:idpconfgen //bbsplit//;

partition #LIGHTGREY Examples {
    #WHITE:$ idpconfgen bbsplit filtered_pdbs/ -d split_pdbs/ -n;
    #WHITE:$ idpconfgen bbsplit filtered_pdbs/ ~- -dssp dssp.json - -dssp-dest dssp_split.json -d split_pdbs/ -n;
    #WHITE:$ idpconfgen bbsplit filtered_pdbs/ ~- -dssp dssp.pickle - -dssp-dest dssp_split.json -d split_pdbs.tar -n;
    }

if (input data) then (tar file)
    :reads //.pdb// files in the
    //tar// file without unpacking;
else (folder)
    :uses //.pdb// files in that folder;
endif

fork

:identify gaps in //pdbs// backbones based on:
    - discontinuity of residue numbers
    - discontinuity of N, CA, C backbone
    ;
:subprocess //mkdssp// on each PDB;
:collect
        residue number,
        Sec Str character,
        FASTA character;
end fork

if (save data to disk) then (JSON)
    :saves dictionary to //.json// file;
else (PICKLE)
    :saves dictionary to //pickle// object;
endif

stop

@enduml

PlantUML version 1.2020.05(Thu Mar 19 17:17:32 EDT 2020)
(GPL source distribution)
Java Runtime: OpenJDK Runtime Environment
JVM: OpenJDK 64-Bit Server VM
Java Version: 11.0.7+10-post-Ubuntu-2ubuntu218.04
Operating System: Linux
Default Encoding: UTF-8
Language: en
Country: US
--></g></svg>