<?xml version="1.0" encoding="UTF-8" standalone="no"?><svg xmlns="http://www.w3.org/2000/svg" xmlns:xlink="http://www.w3.org/1999/xlink" contentScriptType="application/ecmascript" contentStyleType="text/css" height="828px" preserveAspectRatio="none" style="width:661px;height:828px;" version="1.1" viewBox="0 0 661 828" width="661px" zoomAndPan="magnify"><defs><filter height="300%" id="f2z7v2y9e8se8" width="300%" x="-1" y="-1"><feGaussianBlur result="blurOut" stdDeviation="2.0"/><feColorMatrix in="blurOut" result="blurOut2" type="matrix" values="0 0 0 0 0 0 0 0 0 0 0 0 0 0 0 0 0 0 .4 0"/><feOffset dx="4.0" dy="4.0" in="blurOut2" result="blurOut3"/><feBlend in="SourceGraphic" in2="blurOut3" mode="normal"/></filter></defs><g><ellipse cx="206" cy="20" fill="#000000" filter="url(#f2z7v2y9e8se8)" rx="10" ry="10" style="stroke: none; stroke-width: 1.0;"/><rect fill="#FEFECE" filter="url(#f2z7v2y9e8se8)" height="33.9688" rx="12.5" ry="12.5" style="stroke: #A80036; stroke-width: 1.5;" width="124" x="144" y="50"/><text fill="#000000" font-family="sans-serif" font-size="12" lengthAdjust="spacingAndGlyphs" textLength="70" x="154" y="71.1387">idpconfgen</text><text fill="#000000" font-family="sans-serif" font-size="12" font-style="italic" lengthAdjust="spacingAndGlyphs" textLength="30" x="228" y="71.1387">build</text><rect fill="#D3D3D3" filter="url(#f2z7v2y9e8se8)" height="82.2656" style="stroke: #000000; stroke-width: 2.0;" width="200" x="106" y="94.7705"/><path d="M182,95.7705 L182,104.0674 L172,114.0674 L106,114.0674 " fill="none" style="stroke: #000000; stroke-width: 2.0;"/><text fill="#000000" font-family="sans-serif" font-size="14" lengthAdjust="spacingAndGlyphs" textLength="66" x="109" y="108.7656">Examples</text><rect fill="#FFFFFF" filter="url(#f2z7v2y9e8se8)" height="33.9688" rx="12.5" ry="12.5" style="stroke: #A80036; stroke-width: 1.5;" width="180" x="116" y="131.0674"/><text fill="#000000" font-family="sans-serif" font-size="12" lengthAdjust="spacingAndGlyphs" textLength="160" x="126" y="152.2061">$ idpconfgen build pdbdb</text><rect fill="#FEFECE" filter="url(#f2z7v2y9e8se8)" height="149.7188" rx="12.5" ry="12.5" style="stroke: #A80036; stroke-width: 1.5;" width="315" x="48.5" y="197.0361"/><text fill="#000000" font-family="sans-serif" font-size="12" lengthAdjust="spacingAndGlyphs" textLength="168" x="58.5" y="218.1748">parsing pdbdbs to filter DB</text><text fill="#000000" font-family="sans-serif" font-size="12" lengthAdjust="spacingAndGlyphs" textLength="0" x="62.5" y="232.1436"/><text fill="#000000" font-family="sans-serif" font-size="12" font-weight="bold" lengthAdjust="spacingAndGlyphs" textLength="23" x="62.5" y="248.1123">PHI</text><text fill="#000000" font-family="sans-serif" font-size="12" font-weight="bold" lengthAdjust="spacingAndGlyphs" textLength="22" x="93.5" y="248.1123">PSI</text><text fill="#000000" font-family="sans-serif" font-size="12" font-weight="bold" lengthAdjust="spacingAndGlyphs" textLength="50" x="123.5" y="248.1123">OMEGA</text><text fill="#000000" font-family="sans-serif" font-size="12" font-weight="bold" lengthAdjust="spacingAndGlyphs" textLength="119" x="181.5" y="248.1123">AA residue name</text><text fill="#000000" font-family="sans-serif" font-size="12" font-weight="bold" lengthAdjust="spacingAndGlyphs" textLength="37" x="312.5" y="248.1123">DSSP</text><text fill="#000000" font-family="sans-serif" font-size="12" lengthAdjust="spacingAndGlyphs" textLength="4" x="62.5" y="262.0811">-</text><text fill="#000000" font-family="sans-serif" font-size="12" lengthAdjust="spacingAndGlyphs" textLength="6" x="93.5" y="262.0811">x</text><text fill="#000000" font-family="sans-serif" font-size="12" lengthAdjust="spacingAndGlyphs" textLength="6" x="123.5" y="262.0811">x</text><text fill="#000000" font-family="sans-serif" font-size="12" lengthAdjust="spacingAndGlyphs" textLength="10" x="181.5" y="262.0811">M</text><text fill="#000000" font-family="sans-serif" font-size="12" lengthAdjust="spacingAndGlyphs" textLength="6" x="312.5" y="262.0811">L</text><text fill="#000000" font-family="sans-serif" font-size="12" lengthAdjust="spacingAndGlyphs" textLength="6" x="62.5" y="276.0498">x</text><text fill="#000000" font-family="sans-serif" font-size="12" lengthAdjust="spacingAndGlyphs" textLength="6" x="93.5" y="276.0498">x</text><text fill="#000000" font-family="sans-serif" font-size="12" lengthAdjust="spacingAndGlyphs" textLength="6" x="123.5" y="276.0498">x</text><text fill="#000000" font-family="sans-serif" font-size="12" lengthAdjust="spacingAndGlyphs" textLength="9" x="181.5" y="276.0498">D</text><text fill="#000000" font-family="sans-serif" font-size="12" lengthAdjust="spacingAndGlyphs" textLength="6" x="312.5" y="276.0498">L</text><text fill="#000000" font-family="sans-serif" font-size="12" lengthAdjust="spacingAndGlyphs" textLength="22" x="62.5" y="290.0186">(...)</text><text fill="#000000" font-family="sans-serif" font-size="12" lengthAdjust="spacingAndGlyphs" textLength="22" x="93.5" y="290.0186">(...)</text><text fill="#000000" font-family="sans-serif" font-size="12" lengthAdjust="spacingAndGlyphs" textLength="22" x="123.5" y="290.0186">(...)</text><text fill="#000000" font-family="sans-serif" font-size="12" lengthAdjust="spacingAndGlyphs" textLength="22" x="181.5" y="290.0186">(...)</text><text fill="#000000" font-family="sans-serif" font-size="12" lengthAdjust="spacingAndGlyphs" textLength="22" x="312.5" y="290.0186">(...)</text><text fill="#000000" font-family="sans-serif" font-size="12" lengthAdjust="spacingAndGlyphs" textLength="6" x="62.5" y="303.9873">x</text><text fill="#000000" font-family="sans-serif" font-size="12" lengthAdjust="spacingAndGlyphs" textLength="4" x="93.5" y="303.9873">-</text><text fill="#000000" font-family="sans-serif" font-size="12" lengthAdjust="spacingAndGlyphs" textLength="4" x="123.5" y="303.9873">-</text><text fill="#000000" font-family="sans-serif" font-size="12" lengthAdjust="spacingAndGlyphs" textLength="8" x="181.5" y="303.9873">E</text><text fill="#000000" font-family="sans-serif" font-size="12" lengthAdjust="spacingAndGlyphs" textLength="6" x="312.5" y="303.9873">L</text><line style="stroke: #000000; stroke-width: 1.5;" x1="58.5" x2="353.5" y1="236.9736" y2="236.9736"/><line style="stroke: #000000; stroke-width: 1.5;" x1="58.5" x2="353.5" y1="250.9424" y2="250.9424"/><line style="stroke: #000000; stroke-width: 1.5;" x1="58.5" x2="353.5" y1="264.9111" y2="264.9111"/><line style="stroke: #000000; stroke-width: 1.5;" x1="58.5" x2="353.5" y1="278.8799" y2="278.8799"/><line style="stroke: #000000; stroke-width: 1.5;" x1="58.5" x2="353.5" y1="292.8486" y2="292.8486"/><line style="stroke: #000000; stroke-width: 1.5;" x1="58.5" x2="353.5" y1="306.8174" y2="306.8174"/><line style="stroke: #000000; stroke-width: 1.5;" x1="58.5" x2="58.5" y1="236.9736" y2="306.8174"/><line style="stroke: #000000; stroke-width: 1.5;" x1="89.5" x2="89.5" y1="236.9736" y2="306.8174"/><line style="stroke: #000000; stroke-width: 1.5;" x1="119.5" x2="119.5" y1="236.9736" y2="306.8174"/><line style="stroke: #000000; stroke-width: 1.5;" x1="177.5" x2="177.5" y1="236.9736" y2="306.8174"/><line style="stroke: #000000; stroke-width: 1.5;" x1="308.5" x2="308.5" y1="236.9736" y2="306.8174"/><line style="stroke: #000000; stroke-width: 1.5;" x1="353.5" x2="353.5" y1="236.9736" y2="306.8174"/><text fill="#000000" font-family="sans-serif" font-size="12" lengthAdjust="spacingAndGlyphs" textLength="0" x="62.5" y="319.9561"/><text fill="#000000" font-family="sans-serif" font-size="12" lengthAdjust="spacingAndGlyphs" textLength="0" x="62.5" y="333.9248"/><rect fill="#FFFFFF" filter="url(#f2z7v2y9e8se8)" height="312.4297" style="stroke: #000000; stroke-width: 2.0;" width="633.5" x="17" y="357.5566"/><path d="M158,358.5566 L158,366.8535 L148,376.8535 L17,376.8535 " fill="none" style="stroke: #000000; stroke-width: 2.0;"/><text fill="#000000" font-family="sans-serif" font-size="14" lengthAdjust="spacingAndGlyphs" textLength="131" x="20" y="371.5518">First layer requests</text><path d="M384,398.2715 L384,406.8379 L364,410.8379 L384,414.8379 L384,423.4043 A0,0 0 0 0 384,423.4043 L466,423.4043 A0,0 0 0 0 466,423.4043 L466,408.2715 L456,398.2715 L384,398.2715 A0,0 0 0 0 384,398.2715 " fill="#FBFB77" filter="url(#f2z7v2y9e8se8)" style="stroke: #A80036; stroke-width: 1.0;"/><path d="M456,398.2715 L456,408.2715 L466,408.2715 L456,398.2715 " fill="#FBFB77" style="stroke: #A80036; stroke-width: 1.0;"/><text fill="#000000" font-family="sans-serif" font-size="13" lengthAdjust="spacingAndGlyphs" textLength="61" x="390" y="415.3384">~ 0.8 sec</text><rect fill="#FEFECE" filter="url(#f2z7v2y9e8se8)" height="33.9688" rx="12.5" ry="12.5" style="stroke: #A80036; stroke-width: 1.5;" width="316" x="48" y="393.8535"/><text fill="#000000" font-family="sans-serif" font-size="12" lengthAdjust="spacingAndGlyphs" textLength="296" x="58" y="414.9922">unique secondary structure of observed length</text><path d="M394.5,452.2402 L394.5,460.8066 L374.5,464.8066 L394.5,468.8066 L394.5,477.373 A0,0 0 0 0 394.5,477.373 L640.5,477.373 A0,0 0 0 0 640.5,477.373 L640.5,462.2402 L630.5,452.2402 L394.5,452.2402 A0,0 0 0 0 394.5,452.2402 " fill="#FBFB77" filter="url(#f2z7v2y9e8se8)" style="stroke: #A80036; stroke-width: 1.0;"/><path d="M630.5,452.2402 L630.5,462.2402 L640.5,462.2402 L630.5,452.2402 " fill="#FBFB77" style="stroke: #A80036; stroke-width: 1.0;"/><text fill="#000000" font-family="sans-serif" font-size="13" lengthAdjust="spacingAndGlyphs" textLength="74" x="400.5" y="469.3071">fixed length</text><text fill="#000000" font-family="sans-serif" font-size="13" font-weight="bold" lengthAdjust="spacingAndGlyphs" textLength="78" x="478.5" y="469.3071">no overlap</text><text fill="#000000" font-family="sans-serif" font-size="13" lengthAdjust="spacingAndGlyphs" textLength="69" x="556.5" y="469.3071">: ~ 0.5 sec</text><rect fill="#FEFECE" filter="url(#f2z7v2y9e8se8)" height="33.9688" rx="12.5" ry="12.5" style="stroke: #A80036; stroke-width: 1.5;" width="337" x="37.5" y="447.8223"/><text fill="#000000" font-family="sans-serif" font-size="12" lengthAdjust="spacingAndGlyphs" textLength="317" x="47.5" y="468.9609">unique secondary structure of user defined length</text><path d="M405,491.791 L405,538.1895 L385,542.1895 L405,546.1895 L405,592.5879 A0,0 0 0 0 405,592.5879 L576,592.5879 A0,0 0 0 0 576,592.5879 L576,501.791 L566,491.791 L405,491.791 A0,0 0 0 0 405,491.791 " fill="#FBFB77" filter="url(#f2z7v2y9e8se8)" style="stroke: #A80036; stroke-width: 1.0;"/><path d="M566,491.791 L566,501.791 L576,501.791 L566,491.791 " fill="#FBFB77" style="stroke: #A80036; stroke-width: 1.0;"/><text fill="#000000" font-family="sans-serif" font-size="13" lengthAdjust="spacingAndGlyphs" textLength="69" x="411" y="508.8579">(?=(L{2}))</text><text fill="#000000" font-family="sans-serif" font-size="13" lengthAdjust="spacingAndGlyphs" textLength="69" x="411" y="523.9907">(?=(L{3}))</text><text fill="#000000" font-family="sans-serif" font-size="13" lengthAdjust="spacingAndGlyphs" textLength="69" x="411" y="539.1235">(?=(L{4}))</text><text fill="#000000" font-family="sans-serif" font-size="13" lengthAdjust="spacingAndGlyphs" textLength="69" x="411" y="554.2563">(?=(L{5}))</text><text fill="#000000" font-family="sans-serif" font-size="13" lengthAdjust="spacingAndGlyphs" textLength="69" x="411" y="569.3892">(?=(L{6}))</text><text fill="#000000" font-family="sans-serif" font-size="13" lengthAdjust="spacingAndGlyphs" textLength="150" x="411" y="584.522">14.898 secs single core</text><rect fill="#FEFECE" filter="url(#f2z7v2y9e8se8)" height="33.9688" rx="12.5" ry="12.5" style="stroke: #A80036; stroke-width: 1.5;" width="358" x="27" y="525.2051"/><text fill="#000000" font-family="sans-serif" font-size="12" lengthAdjust="spacingAndGlyphs" textLength="338" x="37" y="546.3438">unique secondary structure of variable (range) length</text><path d="M399,602.5879 L399,626.2871 L379,630.2871 L399,634.2871 L399,657.9863 A0,0 0 0 0 399,657.9863 L578,657.9863 A0,0 0 0 0 578,657.9863 L578,612.5879 L568,602.5879 L399,602.5879 A0,0 0 0 0 399,602.5879 " fill="#FBFB77" filter="url(#f2z7v2y9e8se8)" style="stroke: #A80036; stroke-width: 1.0;"/><path d="M568,602.5879 L568,612.5879 L578,612.5879 L568,602.5879 " fill="#FBFB77" style="stroke: #A80036; stroke-width: 1.0;"/><text fill="#000000" font-family="sans-serif" font-size="13" lengthAdjust="spacingAndGlyphs" textLength="158" x="405" y="619.6548">H{1,2} dummy example</text><text fill="#000000" font-family="sans-serif" font-size="13" lengthAdjust="spacingAndGlyphs" textLength="96" x="405" y="634.7876">range [1 to 20]</text><text fill="#000000" font-family="sans-serif" font-size="13" lengthAdjust="spacingAndGlyphs" textLength="85" x="405" y="649.9204">103.777 secs</text><rect fill="#FEFECE" filter="url(#f2z7v2y9e8se8)" height="33.9688" rx="12.5" ry="12.5" style="stroke: #A80036; stroke-width: 1.5;" width="346" x="33" y="613.3027"/><text fill="#000000" font-family="sans-serif" font-size="12" lengthAdjust="spacingAndGlyphs" textLength="219" x="43" y="634.4414">secondary structure combinations:</text><text fill="#000000" font-family="sans-serif" font-size="12" font-style="italic" lengthAdjust="spacingAndGlyphs" textLength="103" x="266" y="634.4414">L+ - H{1,2} - L+</text><rect fill="#FFFFFF" filter="url(#f2z7v2y9e8se8)" height="136.2344" style="stroke: #000000; stroke-width: 2.0;" width="392" x="10" y="680.7881"/><path d="M167,681.7881 L167,690.085 L157,700.085 L10,700.085 " fill="none" style="stroke: #000000; stroke-width: 2.0;"/><text fill="#000000" font-family="sans-serif" font-size="14" lengthAdjust="spacingAndGlyphs" textLength="147" x="13" y="694.7832">Second layer request</text><rect fill="#FEFECE" filter="url(#f2z7v2y9e8se8)" height="33.9688" rx="12.5" ry="12.5" style="stroke: #A80036; stroke-width: 1.5;" width="257" x="77.5" y="717.085"/><text fill="#000000" font-family="sans-serif" font-size="12" lengthAdjust="spacingAndGlyphs" textLength="237" x="87.5" y="738.2236">FASTA sequence match - 100% match</text><rect fill="#FEFECE" filter="url(#f2z7v2y9e8se8)" height="33.9688" rx="12.5" ry="12.5" style="stroke: #A80036; stroke-width: 1.5;" width="372" x="20" y="771.0537"/><text fill="#000000" font-family="sans-serif" font-size="12" lengthAdjust="spacingAndGlyphs" textLength="352" x="30" y="792.1924">FASTA sequence pattern match - user/analysis specified</text><line style="stroke: #A80036; stroke-width: 1.5;" x1="206" x2="206" y1="30" y2="50"/><polygon fill="#A80036" points="202,40,206,50,210,40,206,44" style="stroke: #A80036; stroke-width: 1.0;"/><line style="stroke: #A80036; stroke-width: 1.5;" x1="206" x2="206" y1="83.9688" y2="131.0674"/><polygon fill="#A80036" points="202,121.0674,206,131.0674,210,121.0674,206,125.0674" style="stroke: #A80036; stroke-width: 1.0;"/><line style="stroke: #A80036; stroke-width: 1.5;" x1="206" x2="206" y1="165.0361" y2="197.0361"/><polygon fill="#A80036" points="202,187.0361,206,197.0361,210,187.0361,206,191.0361" style="stroke: #A80036; stroke-width: 1.0;"/><line style="stroke: #A80036; stroke-width: 1.5;" x1="206" x2="206" y1="427.8223" y2="447.8223"/><polygon fill="#A80036" points="202,437.8223,206,447.8223,210,437.8223,206,441.8223" style="stroke: #A80036; stroke-width: 1.0;"/><line style="stroke: #A80036; stroke-width: 1.5;" x1="206" x2="206" y1="481.791" y2="525.2051"/><polygon fill="#A80036" points="202,515.2051,206,525.2051,210,515.2051,206,519.2051" style="stroke: #A80036; stroke-width: 1.0;"/><line style="stroke: #A80036; stroke-width: 1.5;" x1="206" x2="206" y1="559.1738" y2="613.3027"/><polygon fill="#A80036" points="202,603.3027,206,613.3027,210,603.3027,206,607.3027" style="stroke: #A80036; stroke-width: 1.0;"/><line style="stroke: #A80036; stroke-width: 1.5;" x1="206" x2="206" y1="346.7549" y2="393.8535"/><polygon fill="#A80036" points="202,383.8535,206,393.8535,210,383.8535,206,387.8535" style="stroke: #A80036; stroke-width: 1.0;"/><line style="stroke: #A80036; stroke-width: 1.5;" x1="206" x2="206" y1="751.0537" y2="771.0537"/><polygon fill="#A80036" points="202,761.0537,206,771.0537,210,761.0537,206,765.0537" style="stroke: #A80036; stroke-width: 1.0;"/><line style="stroke: #A80036; stroke-width: 1.5;" x1="206" x2="206" y1="647.2715" y2="717.085"/><polygon fill="#A80036" points="202,707.085,206,717.085,210,707.085,206,711.085" style="stroke: #A80036; stroke-width: 1.0;"/><!--MD5=[fb1ec3cda03b3f7ac76910a6068e26e5]
@startuml

start

:idpconfgen //build//;

partition #LIGHTGREY Examples {
    #WHITE:$ idpconfgen build pdbdb;
    }

:parsing pdbdbs to filter DB

|= PHI |= PSI |= OMEGA |= AA residue name  |= DSSP |
| - | x | x | M | L |
| x | x | x | D | L |
| (...) | (...) | (...)  | (...) | (...) |
| x | - | - | E | L |

;


partition "First layer requests" {
    :unique secondary structure of observed length;
    note right
        ~ 0.8 sec
    end note
    :unique secondary structure of user defined length;
    note right
        fixed length **no overlap**: ~ 0.5 sec
    end note
    :unique secondary structure of variable (range) length;
    note right
        (?=(L{2}))
        (?=(L{3}))
        (?=(L{4}))
        (?=(L{5}))
        (?=(L{6}))
        14.898 secs single core
    end note
    :secondary structure combinations: //L+ - H{1,2} - L+//;
    note right
        H{1,2} dummy example
        range [1 to 20]
        103.777 secs
    end note
    }

partition "Second layer request" {
    :FASTA sequence match - 100% match;
    :FASTA sequence pattern match - user/analysis specified;
    }

@enduml

PlantUML version 1.2020.05(Thu Mar 19 17:17:32 EDT 2020)
(GPL source distribution)
Java Runtime: OpenJDK Runtime Environment
JVM: OpenJDK 64-Bit Server VM
Java Version: 11.0.7+10-post-Ubuntu-2ubuntu218.04
Operating System: Linux
Default Encoding: UTF-8
Language: en
Country: US
--></g></svg>