<?xml version="1.0" encoding="UTF-8" standalone="no"?><svg xmlns="http://www.w3.org/2000/svg" xmlns:xlink="http://www.w3.org/1999/xlink" contentScriptType="application/ecmascript" contentStyleType="text/css" height="1946px" preserveAspectRatio="none" style="width:1144px;height:1946px;" version="1.1" viewBox="0 0 1144 1946" width="1144px" zoomAndPan="magnify"><defs><filter height="300%" id="fvivwmxy5fhsf" width="300%" x="-1" y="-1"><feGaussianBlur result="blurOut" stdDeviation="2.0"/><feColorMatrix in="blurOut" result="blurOut2" type="matrix" values="0 0 0 0 0 0 0 0 0 0 0 0 0 0 0 0 0 0 .4 0"/><feOffset dx="4.0" dy="4.0" in="blurOut2" result="blurOut3"/><feBlend in="SourceGraphic" in2="blurOut3" mode="normal"/></filter></defs><g><ellipse cx="322" cy="20" fill="#000000" filter="url(#fvivwmxy5fhsf)" rx="10" ry="10" style="stroke: none; stroke-width: 1.0;"/><rect fill="#FEFECE" filter="url(#fvivwmxy5fhsf)" height="33.9688" rx="12.5" ry="12.5" style="stroke: #A80036; stroke-width: 1.5;" width="129" x="257.5" y="50"/><text fill="#000000" font-family="sans-serif" font-size="12" lengthAdjust="spacingAndGlyphs" textLength="70" x="267.5" y="71.1387">idpconfgen</text><text fill="#000000" font-family="sans-serif" font-size="12" font-style="italic" lengthAdjust="spacingAndGlyphs" textLength="35" x="341.5" y="71.1387">pdbdl</text><rect fill="#D3D3D3" filter="url(#fvivwmxy5fhsf)" height="199.5" style="stroke: #000000; stroke-width: 2.0;" width="815.5" x="63.5" y="94.7705"/><path d="M139.5,95.7705 L139.5,104.0674 L129.5,114.0674 L63.5,114.0674 " fill="none" style="stroke: #000000; stroke-width: 2.0;"/><text fill="#000000" font-family="sans-serif" font-size="14" lengthAdjust="spacingAndGlyphs" textLength="66" x="66.5" y="108.7656">Examples</text><path d="M488,130.9189 L488,147.0518 L468,151.0518 L488,155.0518 L488,171.1846 A0,0 0 0 0 488,171.1846 L869,171.1846 A0,0 0 0 0 869,171.1846 L869,140.9189 L859,130.9189 L488,130.9189 A0,0 0 0 0 488,130.9189 " fill="#FBFB77" filter="url(#fvivwmxy5fhsf)" style="stroke: #A80036; stroke-width: 1.0;"/><path d="M859,130.9189 L859,140.9189 L869,140.9189 L859,130.9189 " fill="#FBFB77" style="stroke: #A80036; stroke-width: 1.0;"/><text fill="#000000" font-family="sans-serif" font-size="13" lengthAdjust="spacingAndGlyphs" textLength="38" x="494" y="147.9858">where</text><text fill="#000000" font-family="sans-serif" font-size="13" font-style="italic" lengthAdjust="spacingAndGlyphs" textLength="59" x="536" y="147.9858">culled.list</text><text fill="#000000" font-family="sans-serif" font-size="13" lengthAdjust="spacingAndGlyphs" textLength="255" x="599" y="147.9858">is a list containing PDBID[CHAIN] codes,</text><text fill="#000000" font-family="sans-serif" font-size="13" lengthAdjust="spacingAndGlyphs" textLength="24" x="494" y="163.1187">and</text><text fill="#000000" font-family="sans-serif" font-size="13" font-style="italic" lengthAdjust="spacingAndGlyphs" textLength="36" x="522" y="163.1187">folder</text><text fill="#000000" font-family="sans-serif" font-size="13" lengthAdjust="spacingAndGlyphs" textLength="262" x="562" y="163.1187">is a destination folder that may not exist.</text><rect fill="#FFFFFF" filter="url(#fvivwmxy5fhsf)" height="33.9688" rx="12.5" ry="12.5" style="stroke: #A80036; stroke-width: 1.5;" width="292" x="176" y="134.0674"/><text fill="#000000" font-family="sans-serif" font-size="12" lengthAdjust="spacingAndGlyphs" textLength="272" x="186" y="155.2061">$ idpconfgen pdbdl culled.list -d folder -u -n</text><path d="M590.5,188.0361 L590.5,204.1689 L570.5,208.1689 L590.5,212.1689 L590.5,228.3018 A0,0 0 0 0 590.5,228.3018 L807.5,228.3018 A0,0 0 0 0 807.5,228.3018 L807.5,198.0361 L797.5,188.0361 L590.5,188.0361 A0,0 0 0 0 590.5,188.0361 " fill="#FBFB77" filter="url(#fvivwmxy5fhsf)" style="stroke: #A80036; stroke-width: 1.0;"/><path d="M797.5,188.0361 L797.5,198.0361 L807.5,198.0361 L797.5,188.0361 " fill="#FBFB77" style="stroke: #A80036; stroke-width: 1.0;"/><text fill="#000000" font-family="sans-serif" font-size="13" lengthAdjust="spacingAndGlyphs" textLength="38" x="596.5" y="205.103">where</text><text fill="#000000" font-family="sans-serif" font-size="13" font-style="italic" lengthAdjust="spacingAndGlyphs" textLength="53" x="638.5" y="205.103">pdbs.tar</text><text fill="#000000" font-family="sans-serif" font-size="13" lengthAdjust="spacingAndGlyphs" textLength="97" x="695.5" y="205.103">is a destination</text><text fill="#000000" font-family="sans-serif" font-size="13" lengthAdjust="spacingAndGlyphs" textLength="44" x="596.5" y="220.2358">tar file.</text><rect fill="#FFFFFF" filter="url(#fvivwmxy5fhsf)" height="33.9688" rx="12.5" ry="12.5" style="stroke: #A80036; stroke-width: 1.5;" width="497" x="73.5" y="191.1846"/><text fill="#000000" font-family="sans-serif" font-size="12" lengthAdjust="spacingAndGlyphs" textLength="477" x="83.5" y="212.3232">$ idpconfgen pdbdl 12AS_A 4YBB_B culled.list -d pdbs.tar -u -n -chunks 5000</text><rect fill="#FFFFFF" filter="url(#fvivwmxy5fhsf)" height="33.9688" rx="12.5" ry="12.5" style="stroke: #A80036; stroke-width: 1.5;" width="266" x="189" y="248.3018"/><text fill="#000000" font-family="sans-serif" font-size="12" lengthAdjust="spacingAndGlyphs" textLength="246" x="199" y="269.4404">$ idpconfgen pdbdl 12AS -d pdbs.tar -u</text><rect fill="#FEFECE" filter="url(#fvivwmxy5fhsf)" height="47.9375" rx="12.5" ry="12.5" style="stroke: #A80036; stroke-width: 1.5;" width="235" x="204.5" y="314.2705"/><text fill="#000000" font-family="sans-serif" font-size="12" lengthAdjust="spacingAndGlyphs" textLength="215" x="214.5" y="335.4092">tokenizes input, identifying PDBIDs</text><text fill="#000000" font-family="sans-serif" font-size="12" lengthAdjust="spacingAndGlyphs" textLength="138" x="214.5" y="349.3779">and respective chains</text><rect fill="#FEFECE" filter="url(#fvivwmxy5fhsf)" height="47.9375" rx="12.5" ry="12.5" style="stroke: #A80036; stroke-width: 1.5;" width="225" x="209.5" y="382.208"/><text fill="#000000" font-family="sans-serif" font-size="12" lengthAdjust="spacingAndGlyphs" textLength="204" x="219.5" y="403.3467">Compares destination folder/file,</text><text fill="#000000" font-family="sans-serif" font-size="12" lengthAdjust="spacingAndGlyphs" textLength="205" x="219.5" y="417.3154">to download only missing entries</text><path d="M444,461.5479 L444,470.1143 L424,474.1143 L444,478.1143 L444,486.6807 A0,0 0 0 0 444,486.6807 L518,486.6807 A0,0 0 0 0 518,486.6807 L518,471.5479 L508,461.5479 L444,461.5479 A0,0 0 0 0 444,461.5479 " fill="#FBFB77" filter="url(#fvivwmxy5fhsf)" style="stroke: #A80036; stroke-width: 1.0;"/><path d="M508,461.5479 L508,471.5479 L518,471.5479 L508,461.5479 " fill="#FBFB77" style="stroke: #A80036; stroke-width: 1.0;"/><text fill="#000000" font-family="sans-serif" font-size="13" lengthAdjust="spacingAndGlyphs" textLength="53" x="450" y="478.6147">1MH1_A</text><rect fill="#FEFECE" filter="url(#fvivwmxy5fhsf)" height="47.9375" rx="12.5" ry="12.5" style="stroke: #A80036; stroke-width: 1.5;" width="204" x="220" y="450.1455"/><text fill="#000000" font-family="sans-serif" font-size="12" lengthAdjust="spacingAndGlyphs" textLength="184" x="230" y="471.2842">filters out PDBID:CHAIN codes</text><text fill="#000000" font-family="sans-serif" font-size="12" lengthAdjust="spacingAndGlyphs" textLength="143" x="230" y="485.2529">known to be conflictive</text><path d="M656,1061.7998 L656,1147.4639 L965,1147.4639 L965,1071.7998 L955,1061.7998 L656,1061.7998 " fill="#FBFB77" filter="url(#fvivwmxy5fhsf)" style="stroke: #A80036; stroke-width: 1.0;"/><path d="M955,1061.7998 L955,1071.7998 L965,1071.7998 L955,1061.7998 " fill="#FBFB77" style="stroke: #A80036; stroke-width: 1.0;"/><text fill="#000000" font-family="sans-serif" font-size="13" lengthAdjust="spacingAndGlyphs" textLength="203" x="662" y="1078.8667">This block is performed for each</text><text fill="#000000" font-family="sans-serif" font-size="13" lengthAdjust="spacingAndGlyphs" textLength="218" x="662" y="1093.9995">PDB file. In multiprocessing mode,</text><text fill="#000000" font-family="sans-serif" font-size="13" lengthAdjust="spacingAndGlyphs" textLength="288" x="662" y="1109.1323">each core pick a PDB code and run the whole</text><text fill="#000000" font-family="sans-serif" font-size="13" lengthAdjust="spacingAndGlyphs" textLength="271" x="662" y="1124.2651">block, once it is finished another PDB code</text><text fill="#000000" font-family="sans-serif" font-size="13" lengthAdjust="spacingAndGlyphs" textLength="59" x="662" y="1139.3979">is picked.</text><rect fill="#000000" filter="url(#fvivwmxy5fhsf)" height="6" rx="2.5" ry="2.5" style="stroke: #000000; stroke-width: 1.0;" width="626" x="10" y="572.0518"/><path d="M323,594.9033 L323,611.0361 L303,615.0361 L323,619.0361 L323,635.1689 A0,0 0 0 0 323,635.1689 L521,635.1689 A0,0 0 0 0 521,635.1689 L521,604.9033 L511,594.9033 L323,594.9033 A0,0 0 0 0 323,594.9033 " fill="#FBFB77" filter="url(#fvivwmxy5fhsf)" style="stroke: #A80036; stroke-width: 1.0;"/><path d="M511,594.9033 L511,604.9033 L521,604.9033 L511,594.9033 " fill="#FBFB77" style="stroke: #A80036; stroke-width: 1.0;"/><text fill="#000000" font-family="sans-serif" font-size="13" lengthAdjust="spacingAndGlyphs" textLength="176" x="329" y="611.9702">Attempts to download PDB,</text><text fill="#000000" font-family="sans-serif" font-size="13" lengthAdjust="spacingAndGlyphs" textLength="177" x="329" y="627.103">if unavailable, attempts CIF.</text><rect fill="#FEFECE" filter="url(#fvivwmxy5fhsf)" height="33.9688" rx="12.5" ry="12.5" style="stroke: #A80036; stroke-width: 1.5;" width="177" x="126" y="598.0518"/><text fill="#000000" font-family="sans-serif" font-size="12" lengthAdjust="spacingAndGlyphs" textLength="157" x="136" y="619.1904">downloads PDB or mmCIF</text><rect fill="#E6FFE6" filter="url(#fvivwmxy5fhsf)" height="244.1719" style="stroke: #000000; stroke-width: 2.0;" width="387" x="28.5" y="645.9707"/><path d="M106.5,646.9707 L106.5,655.2676 L96.5,665.2676 L28.5,665.2676 " fill="none" style="stroke: #000000; stroke-width: 2.0;"/><text fill="#000000" font-family="sans-serif" font-size="14" lengthAdjust="spacingAndGlyphs" textLength="50" x="31.5" y="659.9658">filtering</text><text fill="#000000" font-family="sans-serif" font-size="14" font-weight="bold" lengthAdjust="spacingAndGlyphs" textLength="14" x="85.5" y="659.9658">in</text><rect fill="#FEFECE" filter="url(#fvivwmxy5fhsf)" height="33.9688" rx="12.5" ry="12.5" style="stroke: #A80036; stroke-width: 1.5;" width="352" x="38.5" y="682.2676"/><text fill="#000000" font-family="sans-serif" font-size="12" lengthAdjust="spacingAndGlyphs" textLength="332" x="48.5" y="703.4063">converts PDB and mmCIF to the same internal format</text><rect fill="#FEFECE" filter="url(#fvivwmxy5fhsf)" height="33.9688" rx="12.5" ry="12.5" style="stroke: #A80036; stroke-width: 1.5;" width="244" x="92.5" y="736.2363"/><text fill="#000000" font-family="sans-serif" font-size="12" lengthAdjust="spacingAndGlyphs" textLength="224" x="102.5" y="757.375">select MODEL 1 (if multiple MODELS)</text><path d="M309.5,794.623 L309.5,803.1895 L289.5,807.1895 L309.5,811.1895 L309.5,819.7559 A0,0 0 0 0 309.5,819.7559 L405.5,819.7559 A0,0 0 0 0 405.5,819.7559 L405.5,804.623 L395.5,794.623 L309.5,794.623 A0,0 0 0 0 309.5,794.623 " fill="#FBFB77" filter="url(#fvivwmxy5fhsf)" style="stroke: #A80036; stroke-width: 1.0;"/><path d="M395.5,794.623 L395.5,804.623 L405.5,804.623 L395.5,794.623 " fill="#FBFB77" style="stroke: #A80036; stroke-width: 1.0;"/><text fill="#000000" font-family="sans-serif" font-size="13" lengthAdjust="spacingAndGlyphs" textLength="75" x="315.5" y="811.6899">details later</text><rect fill="#FEFECE" filter="url(#fvivwmxy5fhsf)" height="33.9688" rx="12.5" ry="12.5" style="stroke: #A80036; stroke-width: 1.5;" width="150" x="139.5" y="790.2051"/><text fill="#000000" font-family="sans-serif" font-size="12" lengthAdjust="spacingAndGlyphs" textLength="130" x="149.5" y="811.3438">select desired CHAIN</text><rect fill="#FEFECE" filter="url(#fvivwmxy5fhsf)" height="33.9688" rx="12.5" ry="12.5" style="stroke: #A80036; stroke-width: 1.5;" width="170" x="129.5" y="844.1738"/><text fill="#000000" font-family="sans-serif" font-size="12" lengthAdjust="spacingAndGlyphs" textLength="150" x="139.5" y="865.3125">keep altLoc `A` or None</text><rect fill="#FFE6E6" filter="url(#fvivwmxy5fhsf)" height="198.2031" style="stroke: #000000; stroke-width: 2.0;" width="215" x="107" y="900.9443"/><path d="M173,901.9443 L173,910.2412 L163,920.2412 L107,920.2412 " fill="none" style="stroke: #000000; stroke-width: 2.0;"/><text fill="#000000" font-family="sans-serif" font-size="14" lengthAdjust="spacingAndGlyphs" textLength="56" x="110" y="914.9395">filter out</text><rect fill="#FEFECE" filter="url(#fvivwmxy5fhsf)" height="33.9688" rx="12.5" ry="12.5" style="stroke: #A80036; stroke-width: 1.5;" width="192" x="118.5" y="937.2412"/><text fill="#000000" font-family="sans-serif" font-size="12" lengthAdjust="spacingAndGlyphs" textLength="172" x="128.5" y="958.3799">non- N, C, CA, O, S, Se, H, D</text><rect fill="#FEFECE" filter="url(#fvivwmxy5fhsf)" height="33.9688" rx="12.5" ry="12.5" style="stroke: #A80036; stroke-width: 1.5;" width="152" x="138.5" y="991.21"/><text fill="#000000" font-family="sans-serif" font-size="12" lengthAdjust="spacingAndGlyphs" textLength="132" x="148.5" y="1012.3486">non- ribonucleiotides</text><rect fill="#FEFECE" filter="url(#fvivwmxy5fhsf)" height="33.9688" rx="12.5" ry="12.5" style="stroke: #A80036; stroke-width: 1.5;" width="195" x="117" y="1045.1787"/><text fill="#000000" font-family="sans-serif" font-size="12" lengthAdjust="spacingAndGlyphs" textLength="175" x="127" y="1066.3174">non- ligand/solvent (&gt;1500)</text><rect fill="#FFFFFF" filter="url(#fvivwmxy5fhsf)" height="350.3159" style="stroke: #000000; stroke-width: 2.0;" width="600" x="22" y="1134.1475"/><path d="M134,1135.1475 L134,1143.4443 L124,1153.4443 L22,1153.4443 " fill="none" style="stroke: #000000; stroke-width: 2.0;"/><text fill="#000000" font-family="sans-serif" font-size="14" lengthAdjust="spacingAndGlyphs" textLength="102" x="25" y="1148.1426">probing chains</text><path d="M330,1163.4443 L330,1187.1436 L310,1191.1436 L330,1195.1436 L330,1218.8428 A0,0 0 0 0 330,1218.8428 L612,1218.8428 A0,0 0 0 0 612,1218.8428 L612,1173.4443 L602,1163.4443 L330,1163.4443 A0,0 0 0 0 330,1163.4443 " fill="#FBFB77" filter="url(#fvivwmxy5fhsf)" style="stroke: #A80036; stroke-width: 1.0;"/><path d="M602,1163.4443 L602,1173.4443 L612,1173.4443 L602,1163.4443 " fill="#FBFB77" style="stroke: #A80036; stroke-width: 1.0;"/><text fill="#000000" font-family="sans-serif" font-size="13" lengthAdjust="spacingAndGlyphs" textLength="237" x="336" y="1180.5112">However, Dunbrack PISCES culled list</text><text fill="#000000" font-family="sans-serif" font-size="13" lengthAdjust="spacingAndGlyphs" textLength="243" x="336" y="1195.644">provides all chains in UPPER case, this</text><text fill="#000000" font-family="sans-serif" font-size="13" lengthAdjust="spacingAndGlyphs" textLength="261" x="336" y="1210.7769">many times conflicts with mmCIF format.</text><rect fill="#FEFECE" filter="url(#fvivwmxy5fhsf)" height="33.9688" rx="12.5" ry="12.5" style="stroke: #A80036; stroke-width: 1.5;" width="191" x="119" y="1174.1592"/><text fill="#000000" font-family="sans-serif" font-size="12" lengthAdjust="spacingAndGlyphs" textLength="171" x="129" y="1195.2979">attempt the selected chain</text><rect fill="#FEFECE" filter="url(#fvivwmxy5fhsf)" height="33.9688" rx="12.5" ry="12.5" style="stroke: #A80036; stroke-width: 1.5;" width="317" x="56" y="1299.4595"/><text fill="#000000" font-family="sans-serif" font-size="12" lengthAdjust="spacingAndGlyphs" textLength="297" x="66" y="1320.5981">probe another UPPER/LOWER case combination</text><rect fill="#FEFECE" filter="url(#fvivwmxy5fhsf)" height="33.9688" rx="12.5" ry="12.5" style="stroke: #A80036; stroke-width: 1.5;" width="172" x="128.5" y="1362.5259"/><text fill="#000000" font-family="sans-serif" font-size="12" lengthAdjust="spacingAndGlyphs" textLength="152" x="138.5" y="1383.6646">Example: AA, Aa, aA, aa.</text><polygon fill="#FEFECE" filter="url(#fvivwmxy5fhsf)" points="172,1243.749,257,1243.749,269,1255.749,257,1267.749,172,1267.749,160,1255.749,172,1243.749" style="stroke: #A80036; stroke-width: 1.5;"/><text fill="#000000" font-family="sans-serif" font-size="11" lengthAdjust="spacingAndGlyphs" textLength="123" x="218.5" y="1277.9595">empty selection or all</text><text fill="#000000" font-family="sans-serif" font-size="11" font-style="italic" lengthAdjust="spacingAndGlyphs" textLength="46" x="345.5" y="1277.9595">HETATM</text><text fill="#000000" font-family="sans-serif" font-size="11" lengthAdjust="spacingAndGlyphs" textLength="85" x="172" y="1259.5571">chain selection</text><text fill="#000000" font-family="sans-serif" font-size="11" lengthAdjust="spacingAndGlyphs" textLength="118" x="42" y="1253.1548">meaningful selection</text><rect fill="#FEFECE" filter="url(#fvivwmxy5fhsf)" height="33.9688" rx="12.5" ry="12.5" style="stroke: #A80036; stroke-width: 1.5;" width="75" x="177" y="1438.4946"/><text fill="#000000" font-family="sans-serif" font-size="12" lengthAdjust="spacingAndGlyphs" textLength="55" x="187" y="1459.6333">continue</text><rect fill="#FFFFFF" filter="url(#fvivwmxy5fhsf)" height="150.2031" style="stroke: #000000; stroke-width: 2.0;" width="263" x="83" y="1495.2651"/><path d="M214,1496.2651 L214,1504.562 L204,1514.562 L83,1514.562 " fill="none" style="stroke: #000000; stroke-width: 2.0;"/><text fill="#000000" font-family="sans-serif" font-size="14" lengthAdjust="spacingAndGlyphs" textLength="121" x="86" y="1509.2603">additional parsing</text><rect fill="#FEFECE" filter="url(#fvivwmxy5fhsf)" height="33.9688" rx="12.5" ry="12.5" style="stroke: #A80036; stroke-width: 1.5;" width="231" x="99" y="1531.562"/><text fill="#000000" font-family="sans-serif" font-size="12" lengthAdjust="spacingAndGlyphs" textLength="211" x="109" y="1552.7007">renumber atoms for saved chains</text><rect fill="#FEFECE" filter="url(#fvivwmxy5fhsf)" height="47.9375" rx="12.5" ry="12.5" style="stroke: #A80036; stroke-width: 1.5;" width="243" x="93" y="1585.5308"/><text fill="#000000" font-family="sans-serif" font-size="12" lengthAdjust="spacingAndGlyphs" textLength="141" x="103" y="1606.6694">delete insertion codes</text><text fill="#000000" font-family="sans-serif" font-size="12" lengthAdjust="spacingAndGlyphs" textLength="5" x="119" y="1620.6382">(</text><text fill="#000000" font-family="sans-serif" font-size="12" font-style="italic" lengthAdjust="spacingAndGlyphs" textLength="103" x="124" y="1620.6382">pdb_delinsertion</text><text fill="#000000" font-family="sans-serif" font-size="12" lengthAdjust="spacingAndGlyphs" textLength="28" x="231" y="1620.6382">from</text><text fill="#000000" font-family="sans-serif" font-size="12" font-style="italic" lengthAdjust="spacingAndGlyphs" textLength="58" x="263" y="1620.6382">pdb-tools</text><text fill="#000000" font-family="sans-serif" font-size="12" lengthAdjust="spacingAndGlyphs" textLength="5" x="321" y="1620.6382">)</text><rect fill="#000000" filter="url(#fvivwmxy5fhsf)" height="6" rx="2.5" ry="2.5" style="stroke: #000000; stroke-width: 1.0;" width="626" x="10" y="1665.4683"/><rect fill="#FEFECE" filter="url(#fvivwmxy5fhsf)" height="33.9688" rx="12.5" ry="12.5" style="stroke: #A80036; stroke-width: 1.5;" width="243" x="200.5" y="1691.4683"/><text fill="#000000" font-family="sans-serif" font-size="12" lengthAdjust="spacingAndGlyphs" textLength="223" x="210.5" y="1712.6069">Data is saved per chunk to the disk</text><polygon fill="#FEFECE" filter="url(#fvivwmxy5fhsf)" points="277,1745.437,367,1745.437,379,1757.437,367,1769.437,277,1769.437,265,1757.437,277,1745.437" style="stroke: #A80036; stroke-width: 1.5;"/><text fill="#000000" font-family="sans-serif" font-size="11" lengthAdjust="spacingAndGlyphs" textLength="90" x="277" y="1761.2451">destination `-d`</text><text fill="#000000" font-family="sans-serif" font-size="11" lengthAdjust="spacingAndGlyphs" textLength="21" x="244" y="1754.8428">TAR</text><text fill="#000000" font-family="sans-serif" font-size="11" lengthAdjust="spacingAndGlyphs" textLength="33" x="379" y="1754.8428">folder</text><rect fill="#FEFECE" filter="url(#fvivwmxy5fhsf)" height="33.9688" rx="12.5" ry="12.5" style="stroke: #A80036; stroke-width: 1.5;" width="151" x="163.25" y="1779.437"/><text fill="#000000" font-family="sans-serif" font-size="12" lengthAdjust="spacingAndGlyphs" textLength="131" x="173.25" y="1800.5757">save PDBs to TAR file</text><path d="M496.25,1779.437 L496.25,1795.5698 L476.25,1799.5698 L496.25,1803.5698 L496.25,1819.7026 A0,0 0 0 0 496.25,1819.7026 L726.25,1819.7026 A0,0 0 0 0 726.25,1819.7026 L726.25,1789.437 L716.25,1779.437 L496.25,1779.437 A0,0 0 0 0 496.25,1779.437 " fill="#D3D3D3" filter="url(#fvivwmxy5fhsf)" style="stroke: #A80036; stroke-width: 1.0;"/><path d="M716.25,1779.437 L716.25,1789.437 L726.25,1789.437 L716.25,1779.437 " fill="#D3D3D3" style="stroke: #A80036; stroke-width: 1.0;"/><text fill="#000000" font-family="sans-serif" font-size="13" lengthAdjust="spacingAndGlyphs" textLength="209" x="502.25" y="1796.5039">mmCIF chains have been parsed</text><text fill="#000000" font-family="sans-serif" font-size="13" lengthAdjust="spacingAndGlyphs" textLength="91" x="502.25" y="1811.6367">to PDB format</text><rect fill="#FEFECE" filter="url(#fvivwmxy5fhsf)" height="33.9688" rx="12.5" ry="12.5" style="stroke: #A80036; stroke-width: 1.5;" width="142" x="334.25" y="1782.5854"/><text fill="#000000" font-family="sans-serif" font-size="12" lengthAdjust="spacingAndGlyphs" textLength="122" x="344.25" y="1803.7241">save PDBs to folder</text><polygon fill="#FEFECE" filter="url(#fvivwmxy5fhsf)" points="322,1825.7026,334,1837.7026,322,1849.7026,310,1837.7026,322,1825.7026" style="stroke: #A80036; stroke-width: 1.5;"/><rect fill="#FFD3F2" filter="url(#fvivwmxy5fhsf)" height="33.9688" rx="12.5" ry="12.5" style="stroke: #A80036; stroke-width: 1.5;" width="169" x="237.5" y="518.083"/><text fill="#000000" font-family="sans-serif" font-size="12" font-style="italic" lengthAdjust="spacingAndGlyphs" textLength="149" x="247.5" y="539.2217">for each chunk of paths</text><polygon fill="#FEFECE" filter="url(#fvivwmxy5fhsf)" points="256,1869.7026,388,1869.7026,400,1881.7026,388,1893.7026,256,1893.7026,244,1881.7026,256,1869.7026" style="stroke: #A80036; stroke-width: 1.5;"/><text fill="#000000" font-family="sans-serif" font-size="11" font-style="italic" lengthAdjust="spacingAndGlyphs" textLength="132" x="256" y="1885.5107">more PDBs to process?</text><rect fill="#FEFECE" filter="url(#fvivwmxy5fhsf)" height="33.9688" rx="12.5" ry="12.5" style="stroke: #A80036; stroke-width: 1.5;" width="158" x="975" y="1179.7803"/><text fill="#000000" font-family="sans-serif" font-size="12" font-style="italic" lengthAdjust="spacingAndGlyphs" textLength="138" x="985" y="1200.9189">launch another chunk</text><ellipse cx="322" cy="1924.7026" fill="#FFFFFF" filter="url(#fvivwmxy5fhsf)" rx="11" ry="11" style="stroke: #000000; stroke-width: 1.0;"/><ellipse cx="322" cy="1924.7026" fill="#000000" rx="6" ry="6" style="stroke: #7F7F7F; stroke-width: 1.0;"/><line style="stroke: #A80036; stroke-width: 1.5;" x1="322" x2="322" y1="30" y2="50"/><polygon fill="#A80036" points="318,40,322,50,326,40,322,44" style="stroke: #A80036; stroke-width: 1.0;"/><line style="stroke: #A80036; stroke-width: 1.5;" x1="322" x2="322" y1="168.0361" y2="191.1846"/><polygon fill="#A80036" points="318,181.1846,322,191.1846,326,181.1846,322,185.1846" style="stroke: #A80036; stroke-width: 1.0;"/><line style="stroke: #A80036; stroke-width: 1.5;" x1="322" x2="322" y1="225.1533" y2="248.3018"/><polygon fill="#A80036" points="318,238.3018,322,248.3018,326,238.3018,322,242.3018" style="stroke: #A80036; stroke-width: 1.0;"/><line style="stroke: #A80036; stroke-width: 1.5;" x1="322" x2="322" y1="83.9688" y2="134.0674"/><polygon fill="#A80036" points="318,124.0674,322,134.0674,326,124.0674,322,128.0674" style="stroke: #A80036; stroke-width: 1.0;"/><line style="stroke: #A80036; stroke-width: 1.5;" x1="322" x2="322" y1="282.2705" y2="314.2705"/><polygon fill="#A80036" points="318,304.2705,322,314.2705,326,304.2705,322,308.2705" style="stroke: #A80036; stroke-width: 1.0;"/><line style="stroke: #A80036; stroke-width: 1.5;" x1="322" x2="322" y1="362.208" y2="382.208"/><polygon fill="#A80036" points="318,372.208,322,382.208,326,372.208,322,376.208" style="stroke: #A80036; stroke-width: 1.0;"/><line style="stroke: #A80036; stroke-width: 1.5;" x1="322" x2="322" y1="430.1455" y2="450.1455"/><polygon fill="#A80036" points="318,440.1455,322,450.1455,326,440.1455,322,444.1455" style="stroke: #A80036; stroke-width: 1.0;"/><line style="stroke: #A80036; stroke-width: 1.5;" x1="214.5" x2="214.5" y1="716.2363" y2="736.2363"/><polygon fill="#A80036" points="210.5,726.2363,214.5,736.2363,218.5,726.2363,214.5,730.2363" style="stroke: #A80036; stroke-width: 1.0;"/><line style="stroke: #A80036; stroke-width: 1.5;" x1="214.5" x2="214.5" y1="770.2051" y2="790.2051"/><polygon fill="#A80036" points="210.5,780.2051,214.5,790.2051,218.5,780.2051,214.5,784.2051" style="stroke: #A80036; stroke-width: 1.0;"/><line style="stroke: #A80036; stroke-width: 1.5;" x1="214.5" x2="214.5" y1="824.1738" y2="844.1738"/><polygon fill="#A80036" points="210.5,834.1738,214.5,844.1738,218.5,834.1738,214.5,838.1738" style="stroke: #A80036; stroke-width: 1.0;"/><line style="stroke: #A80036; stroke-width: 1.5;" x1="214.5" x2="214.5" y1="632.0205" y2="682.2676"/><polygon fill="#A80036" points="210.5,672.2676,214.5,682.2676,218.5,672.2676,214.5,676.2676" style="stroke: #A80036; stroke-width: 1.0;"/><line style="stroke: #A80036; stroke-width: 1.5;" x1="214.5" x2="214.5" y1="971.21" y2="991.21"/><polygon fill="#A80036" points="210.5,981.21,214.5,991.21,218.5,981.21,214.5,985.21" style="stroke: #A80036; stroke-width: 1.0;"/><line style="stroke: #A80036; stroke-width: 1.5;" x1="214.5" x2="214.5" y1="1025.1787" y2="1045.1787"/><polygon fill="#A80036" points="210.5,1035.1787,214.5,1045.1787,218.5,1035.1787,214.5,1039.1787" style="stroke: #A80036; stroke-width: 1.0;"/><line style="stroke: #A80036; stroke-width: 1.5;" x1="214.5" x2="214.5" y1="878.1426" y2="937.2412"/><polygon fill="#A80036" points="210.5,927.2412,214.5,937.2412,218.5,927.2412,214.5,931.2412" style="stroke: #A80036; stroke-width: 1.0;"/><line style="stroke: #A80036; stroke-width: 1.5;" x1="214.5" x2="214.5" y1="1333.4282" y2="1362.5259"/><polygon fill="#A80036" points="210.5,1352.5259,214.5,1362.5259,218.5,1352.5259,214.5,1356.5259" style="stroke: #A80036; stroke-width: 1.0;"/><line style="stroke: #A80036; stroke-width: 1.5;" x1="214.5" x2="214.5" y1="1267.749" y2="1299.4595"/><polygon fill="#A80036" points="210.5,1289.4595,214.5,1299.4595,218.5,1289.4595,214.5,1293.4595" style="stroke: #A80036; stroke-width: 1.0;"/><line style="stroke: #A80036; stroke-width: 1.5;" x1="214.5" x2="214.5" y1="1396.4946" y2="1406.4946"/><line style="stroke: #A80036; stroke-width: 1.5;" x1="214.5" x2="385" y1="1406.4946" y2="1406.4946"/><polygon fill="#A80036" points="381,1342.5259,385,1332.5259,389,1342.5259,385,1338.5259" style="stroke: #A80036; stroke-width: 1.5;"/><line style="stroke: #A80036; stroke-width: 1.5;" x1="385" x2="385" y1="1255.749" y2="1406.4946"/><line style="stroke: #A80036; stroke-width: 1.5;" x1="385" x2="269" y1="1255.749" y2="1255.749"/><polygon fill="#A80036" points="279,1251.749,269,1255.749,279,1259.749,275,1255.749" style="stroke: #A80036; stroke-width: 1.0;"/><line style="stroke: #A80036; stroke-width: 1.5;" x1="160" x2="44" y1="1255.749" y2="1255.749"/><polygon fill="#A80036" points="40,1328.5259,44,1338.5259,48,1328.5259,44,1332.5259" style="stroke: #A80036; stroke-width: 1.5;"/><line style="stroke: #A80036; stroke-width: 1.5;" x1="44" x2="44" y1="1255.749" y2="1418.4946"/><line style="stroke: #A80036; stroke-width: 1.5;" x1="44" x2="214.5" y1="1418.4946" y2="1418.4946"/><line style="stroke: #A80036; stroke-width: 1.5;" x1="214.5" x2="214.5" y1="1418.4946" y2="1438.4946"/><polygon fill="#A80036" points="210.5,1428.4946,214.5,1438.4946,218.5,1428.4946,214.5,1432.4946" style="stroke: #A80036; stroke-width: 1.0;"/><line style="stroke: #A80036; stroke-width: 1.5;" x1="214.5" x2="214.5" y1="1208.1279" y2="1243.749"/><polygon fill="#A80036" points="210.5,1233.749,214.5,1243.749,218.5,1233.749,214.5,1237.749" style="stroke: #A80036; stroke-width: 1.0;"/><line style="stroke: #A80036; stroke-width: 1.5;" x1="214.5" x2="214.5" y1="1079.1475" y2="1174.1592"/><polygon fill="#A80036" points="210.5,1164.1592,214.5,1174.1592,218.5,1164.1592,214.5,1168.1592" style="stroke: #A80036; stroke-width: 1.0;"/><line style="stroke: #A80036; stroke-width: 1.5;" x1="214.5" x2="214.5" y1="1565.5308" y2="1585.5308"/><polygon fill="#A80036" points="210.5,1575.5308,214.5,1585.5308,218.5,1575.5308,214.5,1579.5308" style="stroke: #A80036; stroke-width: 1.0;"/><line style="stroke: #A80036; stroke-width: 1.5;" x1="214.5" x2="214.5" y1="1472.4634" y2="1531.562"/><polygon fill="#A80036" points="210.5,1521.562,214.5,1531.562,218.5,1521.562,214.5,1525.562" style="stroke: #A80036; stroke-width: 1.0;"/><line style="stroke: #A80036; stroke-width: 1.5;" x1="214.5" x2="214.5" y1="578.0518" y2="598.0518"/><polygon fill="#A80036" points="210.5,588.0518,214.5,598.0518,218.5,588.0518,214.5,592.0518" style="stroke: #A80036; stroke-width: 1.0;"/><line style="stroke: #A80036; stroke-width: 1.5;" x1="214.5" x2="214.5" y1="1633.4683" y2="1665.4683"/><polygon fill="#A80036" points="210.5,1655.4683,214.5,1665.4683,218.5,1655.4683,214.5,1659.4683" style="stroke: #A80036; stroke-width: 1.0;"/><line style="stroke: #A80036; stroke-width: 1.5;" x1="322" x2="322" y1="1671.4683" y2="1691.4683"/><polygon fill="#A80036" points="318,1681.4683,322,1691.4683,326,1681.4683,322,1685.4683" style="stroke: #A80036; stroke-width: 1.0;"/><line style="stroke: #A80036; stroke-width: 1.5;" x1="265" x2="238.75" y1="1757.437" y2="1757.437"/><line style="stroke: #A80036; stroke-width: 1.5;" x1="238.75" x2="238.75" y1="1757.437" y2="1779.437"/><polygon fill="#A80036" points="234.75,1769.437,238.75,1779.437,242.75,1769.437,238.75,1773.437" style="stroke: #A80036; stroke-width: 1.0;"/><line style="stroke: #A80036; stroke-width: 1.5;" x1="379" x2="405.25" y1="1757.437" y2="1757.437"/><line style="stroke: #A80036; stroke-width: 1.5;" x1="405.25" x2="405.25" y1="1757.437" y2="1782.5854"/><polygon fill="#A80036" points="401.25,1772.5854,405.25,1782.5854,409.25,1772.5854,405.25,1776.5854" style="stroke: #A80036; stroke-width: 1.0;"/><line style="stroke: #A80036; stroke-width: 1.5;" x1="238.75" x2="238.75" y1="1813.4058" y2="1837.7026"/><line style="stroke: #A80036; stroke-width: 1.5;" x1="238.75" x2="310" y1="1837.7026" y2="1837.7026"/><polygon fill="#A80036" points="300,1833.7026,310,1837.7026,300,1841.7026,304,1837.7026" style="stroke: #A80036; stroke-width: 1.0;"/><line style="stroke: #A80036; stroke-width: 1.5;" x1="405.25" x2="405.25" y1="1816.5542" y2="1837.7026"/><line style="stroke: #A80036; stroke-width: 1.5;" x1="405.25" x2="334" y1="1837.7026" y2="1837.7026"/><polygon fill="#A80036" points="344,1833.7026,334,1837.7026,344,1841.7026,340,1837.7026" style="stroke: #A80036; stroke-width: 1.0;"/><line style="stroke: #A80036; stroke-width: 1.5;" x1="322" x2="322" y1="1725.437" y2="1745.437"/><polygon fill="#A80036" points="318,1735.437,322,1745.437,326,1735.437,322,1739.437" style="stroke: #A80036; stroke-width: 1.0;"/><line style="stroke: #A80036; stroke-width: 1.5;" x1="322" x2="322" y1="552.0518" y2="572.0518"/><polygon fill="#A80036" points="318,562.0518,322,572.0518,326,562.0518,322,566.0518" style="stroke: #A80036; stroke-width: 1.0;"/><line style="stroke: #A80036; stroke-width: 1.5;" x1="400" x2="1054" y1="1881.7026" y2="1881.7026"/><line style="stroke: #A80036; stroke-width: 1.5;" x1="1054" x2="1054" y1="1213.749" y2="1881.7026"/><polygon fill="#A80036" points="1050,1223.749,1054,1213.749,1058,1223.749,1054,1219.749" style="stroke: #A80036; stroke-width: 1.0;"/><polygon fill="#A80036" points="1050,851.8496,1054,841.8496,1058,851.8496,1054,847.8496" style="stroke: #A80036; stroke-width: 1.5;"/><line style="stroke: #A80036; stroke-width: 1.5;" x1="1054" x2="1054" y1="535.0674" y2="1179.7803"/><line style="stroke: #A80036; stroke-width: 1.5;" x1="1054" x2="406.5" y1="535.0674" y2="535.0674"/><polygon fill="#A80036" points="416.5,531.0674,406.5,535.0674,416.5,539.0674,412.5,535.0674" style="stroke: #A80036; stroke-width: 1.0;"/><line style="stroke: #A80036; stroke-width: 1.5;" x1="322" x2="322" y1="1849.7026" y2="1869.7026"/><polygon fill="#A80036" points="318,1859.7026,322,1869.7026,326,1859.7026,322,1863.7026" style="stroke: #A80036; stroke-width: 1.0;"/><line style="stroke: #A80036; stroke-width: 1.5;" x1="322" x2="322" y1="498.083" y2="518.083"/><polygon fill="#A80036" points="318,508.083,322,518.083,326,508.083,322,512.083" style="stroke: #A80036; stroke-width: 1.0;"/><line style="stroke: #A80036; stroke-width: 1.5;" x1="322" x2="322" y1="1893.7026" y2="1913.7026"/><polygon fill="#A80036" points="318,1903.7026,322,1913.7026,326,1903.7026,322,1907.7026" style="stroke: #A80036; stroke-width: 1.0;"/><!--MD5=[41ba7afbbee7073cadb52ec3847ff11d]
@startuml

start

:idpconfgen //pdbdl//;

partition #LIGHTGREY Examples {
    #WHITE:$ idpconfgen pdbdl culled.list -d folder -u -n;
    note right
        where //culled.list// is a list containing PDBID[CHAIN] codes,
        and //folder// is a destination folder that may not exist.
    end note
    #WHITE:$ idpconfgen pdbdl 12AS_A 4YBB_B culled.list -d pdbs.tar -u -n -chunks 5000;
    note right
        where //pdbs.tar// is a destination
        tar file.
    end note
    #WHITE:$ idpconfgen pdbdl 12AS -d pdbs.tar -u;
    }

:tokenizes input, identifying PDBIDs
and respective chains;

:Compares destination folder/file,
to download only missing entries;

:filters out PDBID:CHAIN codes
known to be conflictive;
note right
    1MH1_A
end note

#FFD3F2:repeat ://for each chunk of paths//;
fork

:downloads PDB or mmCIF;
note right
    Attempts to download PDB,
    if unavailable, attempts CIF.
end note

partition #e6ffe6 "filtering **in**" {
    :converts PDB and mmCIF to the same internal format;
    :select MODEL 1 (if multiple MODELS);
    :select desired CHAIN;
    note right
        details later
    end note
    :keep altLoc `A` or None;
}

partition #ffe6e6 "filter out" {
    :non- N, C, CA, O, S, Se, H, D;
    :non- ribonucleiotides;
    :non- ligand/solvent (>1500);

}

partition "probing chains" {
    :attempt the selected chain;
    note right
        However, Dunbrack PISCES culled list
        provides all chains in UPPER case, this
        many times conflicts with mmCIF format.
    end note
    while (chain selection) is (empty selection or all //HETATM//)
        :probe another UPPER/LOWER case combination;
        :Example: AA, Aa, aA, aa.;
    endwhile (meaningful selection)
    :continue;
}

partition "additional parsing" {
    :renumber atoms for saved chains;
    :delete insertion codes
        (//pdb_delinsertion// from //pdb-tools//);
}


end fork
note right
    This block is performed for each
    PDB file. In multiprocessing mode,
    each core pick a PDB code and run the whole
    block, once it is finished another PDB code
    is picked.
end note
:Data is saved per chunk to the disk;
if (destination `-d`) then (TAR)
    :save PDBs to TAR file;
else (folder)
    :save PDBs to folder;
    note right #lightgrey
    mmCIF chains have been parsed
    to PDB format
    end note
endif
backward://launch another chunk//;
repeat while (//more PDBs to process?//)

stop

@enduml

PlantUML version 1.2020.05(Thu Mar 19 17:17:32 EDT 2020)
(GPL source distribution)
Java Runtime: OpenJDK Runtime Environment
JVM: OpenJDK 64-Bit Server VM
Java Version: 11.0.7+10-post-Ubuntu-2ubuntu218.04
Operating System: Linux
Default Encoding: UTF-8
Language: en
Country: US
--></g></svg>