<?xml version="1.0" encoding="UTF-8" standalone="no"?><svg xmlns="http://www.w3.org/2000/svg" xmlns:xlink="http://www.w3.org/1999/xlink" contentScriptType="application/ecmascript" contentStyleType="text/css" height="1822px" preserveAspectRatio="none" style="width:767px;height:1822px;" version="1.1" viewBox="0 0 767 1822" width="767px" zoomAndPan="magnify"><defs><filter height="300%" id="f1oik287qletx3" width="300%" x="-1" y="-1"><feGaussianBlur result="blurOut" stdDeviation="2.0"/><feColorMatrix in="blurOut" result="blurOut2" type="matrix" values="0 0 0 0 0 0 0 0 0 0 0 0 0 0 0 0 0 0 .4 0"/><feOffset dx="4.0" dy="4.0" in="blurOut2" result="blurOut3"/><feBlend in="SourceGraphic" in2="blurOut3" mode="normal"/></filter></defs><g><!--MD5=[50b049a0445a14ae8697c0df23522692]
cluster libcif--><polygon fill="#FFFFFF" filter="url(#f1oik287qletx3)" points="14,760,57,760,64,782.2969,212,782.2969,212,1246,14,1246,14,760" style="stroke: #000000; stroke-width: 1.5;"/><line style="stroke: #000000; stroke-width: 1.5;" x1="14" x2="64" y1="782.2969" y2="782.2969"/><text fill="#000000" font-family="sans-serif" font-size="14" font-weight="bold" lengthAdjust="spacingAndGlyphs" textLength="37" x="18" y="774.9951">libcif</text><!--MD5=[0847fc6195428b151da59b89472db356]
cluster libpdb--><polygon fill="#FFFFFF" filter="url(#f1oik287qletx3)" points="483,1083,537,1083,544,1105.2969,639,1105.2969,639,1810,483,1810,483,1083" style="stroke: #000000; stroke-width: 1.5;"/><line style="stroke: #000000; stroke-width: 1.5;" x1="483" x2="544" y1="1105.2969" y2="1105.2969"/><text fill="#000000" font-family="sans-serif" font-size="14" font-weight="bold" lengthAdjust="spacingAndGlyphs" textLength="48" x="487" y="1097.9951">libpdb</text><!--MD5=[c5d28e909d8dbe9cb2d8f35a91e6e13d]
cluster libstructure--><polygon fill="#FFFFFF" filter="url(#f1oik287qletx3)" points="220,16,318,16,325,38.2969,472,38.2969,472,1528,220,1528,220,16" style="stroke: #000000; stroke-width: 1.5;"/><line style="stroke: #000000; stroke-width: 1.5;" x1="220" x2="325" y1="38.2969" y2="38.2969"/><text fill="#000000" font-family="sans-serif" font-size="14" font-weight="bold" lengthAdjust="spacingAndGlyphs" textLength="92" x="224" y="30.9951">libstructure</text><!--MD5=[6c412477c24a87903f8c252ef5dd9d97]
class CIFParser--><rect fill="#FEFECE" filter="url(#f1oik287qletx3)" height="60.8047" id="CIFParser" style="stroke: #A80036; stroke-width: 1.5;" width="91" x="112.5" y="787"/><ellipse cx="127.5" cy="803" fill="#ADD1B2" rx="11" ry="11" style="stroke: #A80036; stroke-width: 1.0;"/><path d="M130.4688,808.6406 Q129.8906,808.9375 129.25,809.0781 Q128.6094,809.2344 127.9063,809.2344 Q125.4063,809.2344 124.0781,807.5938 Q122.7656,805.9375 122.7656,802.8125 Q122.7656,799.6875 124.0781,798.0313 Q125.4063,796.375 127.9063,796.375 Q128.6094,796.375 129.25,796.5313 Q129.9063,796.6875 130.4688,796.9844 L130.4688,799.7031 Q129.8438,799.125 129.25,798.8594 Q128.6563,798.5781 128.0313,798.5781 Q126.6875,798.5781 126,799.6563 Q125.3125,800.7188 125.3125,802.8125 Q125.3125,804.9063 126,805.9844 Q126.6875,807.0469 128.0313,807.0469 Q128.6563,807.0469 129.25,806.7813 Q129.8438,806.5 130.4688,805.9219 L130.4688,808.6406 Z "/><text fill="#000000" font-family="sans-serif" font-size="12" lengthAdjust="spacingAndGlyphs" textLength="59" x="141.5" y="807.1543">CIFParser</text><line style="stroke: #A80036; stroke-width: 1.5;" x1="113.5" x2="202.5" y1="819" y2="819"/><text fill="#000000" font-family="sans-serif" font-size="11" lengthAdjust="spacingAndGlyphs" textLength="7" x="118.5" y="833.2104">a</text><line style="stroke: #A80036; stroke-width: 1.5;" x1="113.5" x2="202.5" y1="839.8047" y2="839.8047"/><rect fill="#FEFECE" filter="url(#f1oik287qletx3)" height="33.9688" style="stroke: #A80036; stroke-width: 1.5;" width="182" x="22" y="915"/><text fill="#000000" font-family="sans-serif" font-size="12" lengthAdjust="spacingAndGlyphs" textLength="168" x="29" y="928.1387">find_cif_atom_site_headers</text><line style="stroke: #A80036; stroke-width: 1.5;" x1="23" x2="203" y1="932.9688" y2="932.9688"/><rect fill="#FEFECE" filter="url(#f1oik287qletx3)" height="33.9688" style="stroke: #A80036; stroke-width: 1.5;" width="44" x="91" y="1016"/><text fill="#000000" font-family="sans-serif" font-size="12" lengthAdjust="spacingAndGlyphs" textLength="30" x="98" y="1029.1387">is_cif</text><line style="stroke: #A80036; stroke-width: 1.5;" x1="92" x2="134" y1="1033.9688" y2="1033.9688"/><rect fill="#FEFECE" filter="url(#f1oik287qletx3)" height="33.9688" style="stroke: #A80036; stroke-width: 1.5;" width="98" x="61" y="1110"/><text fill="#000000" font-family="sans-serif" font-size="12" lengthAdjust="spacingAndGlyphs" textLength="84" x="68" y="1123.1387">parse_cif_line</text><line style="stroke: #A80036; stroke-width: 1.5;" x1="62" x2="158" y1="1127.9688" y2="1127.9688"/><rect fill="#FEFECE" filter="url(#f1oik287qletx3)" height="33.9688" style="stroke: #A80036; stroke-width: 1.5;" width="157" x="31.5" y="1204"/><text fill="#000000" font-family="sans-serif" font-size="12" lengthAdjust="spacingAndGlyphs" textLength="143" x="38.5" y="1217.1387">populate_cif_dictionary</text><line style="stroke: #A80036; stroke-width: 1.5;" x1="32.5" x2="187.5" y1="1221.9688" y2="1221.9688"/><rect fill="#FEFECE" filter="url(#f1oik287qletx3)" height="33.9688" style="stroke: #A80036; stroke-width: 1.5;" width="68" x="525" y="1110"/><text fill="#000000" font-family="sans-serif" font-size="12" lengthAdjust="spacingAndGlyphs" textLength="54" x="532" y="1123.1387">_nothing</text><line style="stroke: #A80036; stroke-width: 1.5;" x1="526" x2="592" y1="1127.9688" y2="1127.9688"/><rect fill="#FEFECE" filter="url(#f1oik287qletx3)" height="33.9688" style="stroke: #A80036; stroke-width: 1.5;" width="52" x="533" y="1204"/><text fill="#000000" font-family="sans-serif" font-size="12" lengthAdjust="spacingAndGlyphs" textLength="38" x="540" y="1217.1387">atom_</text><line style="stroke: #A80036; stroke-width: 1.5;" x1="534" x2="584" y1="1221.9688" y2="1221.9688"/><rect fill="#FEFECE" filter="url(#f1oik287qletx3)" height="33.9688" style="stroke: #A80036; stroke-width: 1.5;" width="133" x="492.5" y="1298"/><text fill="#000000" font-family="sans-serif" font-size="12" lengthAdjust="spacingAndGlyphs" textLength="119" x="499.5" y="1311.1387">atom_format_funcs</text><line style="stroke: #A80036; stroke-width: 1.5;" x1="493.5" x2="624.5" y1="1315.9688" y2="1315.9688"/><rect fill="#FEFECE" filter="url(#f1oik287qletx3)" height="33.9688" style="stroke: #A80036; stroke-width: 1.5;" width="139" x="491.5" y="1392"/><text fill="#000000" font-family="sans-serif" font-size="12" lengthAdjust="spacingAndGlyphs" textLength="125" x="498.5" y="1405.1387">atom_line_formatter</text><line style="stroke: #A80036; stroke-width: 1.5;" x1="492.5" x2="629.5" y1="1409.9688" y2="1409.9688"/><rect fill="#FEFECE" filter="url(#f1oik287qletx3)" height="33.9688" style="stroke: #A80036; stroke-width: 1.5;" width="92" x="513" y="1486"/><text fill="#000000" font-family="sans-serif" font-size="12" lengthAdjust="spacingAndGlyphs" textLength="78" x="520" y="1499.1387">atom_slicers</text><line style="stroke: #A80036; stroke-width: 1.5;" x1="514" x2="604" y1="1503.9688" y2="1503.9688"/><rect fill="#FEFECE" filter="url(#f1oik287qletx3)" height="33.9688" style="stroke: #A80036; stroke-width: 1.5;" width="134" x="491" y="1580"/><text fill="#000000" font-family="sans-serif" font-size="12" lengthAdjust="spacingAndGlyphs" textLength="120" x="498" y="1593.1387">format_atom_name</text><line style="stroke: #A80036; stroke-width: 1.5;" x1="492" x2="624" y1="1597.9688" y2="1597.9688"/><rect fill="#FEFECE" filter="url(#f1oik287qletx3)" height="33.9688" style="stroke: #A80036; stroke-width: 1.5;" width="106" x="498" y="1674"/><text fill="#000000" font-family="sans-serif" font-size="12" lengthAdjust="spacingAndGlyphs" textLength="92" x="505" y="1687.1387">format_chainid</text><line style="stroke: #A80036; stroke-width: 1.5;" x1="499" x2="603" y1="1691.9688" y2="1691.9688"/><rect fill="#FEFECE" filter="url(#f1oik287qletx3)" height="33.9688" style="stroke: #A80036; stroke-width: 1.5;" width="54" x="507" y="1768"/><text fill="#000000" font-family="sans-serif" font-size="12" lengthAdjust="spacingAndGlyphs" textLength="40" x="514" y="1781.1387">is_pdb</text><line style="stroke: #A80036; stroke-width: 1.5;" x1="508" x2="560" y1="1785.9688" y2="1785.9688"/><!--MD5=[3915787db80ab162e3259f8f86339844]
class Structure--><rect fill="#FEFECE" filter="url(#f1oik287qletx3)" height="214.4609" id="Structure" style="stroke: #A80036; stroke-width: 1.5;" width="168" x="261" y="43"/><ellipse cx="311.25" cy="59" fill="#ADD1B2" rx="11" ry="11" style="stroke: #A80036; stroke-width: 1.0;"/><path d="M314.2188,64.6406 Q313.6406,64.9375 313,65.0781 Q312.3594,65.2344 311.6563,65.2344 Q309.1563,65.2344 307.8281,63.5938 Q306.5156,61.9375 306.5156,58.8125 Q306.5156,55.6875 307.8281,54.0313 Q309.1563,52.375 311.6563,52.375 Q312.3594,52.375 313,52.5313 Q313.6563,52.6875 314.2188,52.9844 L314.2188,55.7031 Q313.5938,55.125 313,54.8594 Q312.4063,54.5781 311.7813,54.5781 Q310.4375,54.5781 309.75,55.6563 Q309.0625,56.7188 309.0625,58.8125 Q309.0625,60.9063 309.75,61.9844 Q310.4375,63.0469 311.7813,63.0469 Q312.4063,63.0469 313,62.7813 Q313.5938,62.5 314.2188,61.9219 L314.2188,64.6406 Z "/><text fill="#000000" font-family="sans-serif" font-size="12" lengthAdjust="spacingAndGlyphs" textLength="59" x="331.75" y="63.1543">Structure</text><line style="stroke: #A80036; stroke-width: 1.5;" x1="262" x2="428" y1="75" y2="75"/><ellipse cx="272" cy="86" fill="none" rx="3" ry="3" style="stroke: #038048; stroke-width: 1.0;"/><text fill="#000000" font-family="sans-serif" font-size="11" lengthAdjust="spacingAndGlyphs" textLength="54" x="281" y="89.2104">chain_set</text><ellipse cx="272" cy="98.8047" fill="none" rx="3" ry="3" style="stroke: #038048; stroke-width: 1.0;"/><text fill="#000000" font-family="sans-serif" font-size="11" lengthAdjust="spacingAndGlyphs" textLength="82" x="281" y="102.0151">filtered_atoms</text><rect fill="none" height="6" style="stroke: #C82930; stroke-width: 1.0;" width="6" x="269" y="108.6094"/><text fill="#000000" font-family="sans-serif" font-size="11" lengthAdjust="spacingAndGlyphs" textLength="137" x="281" y="114.8198">_data_str, del after .buil</text><rect fill="none" height="6" style="stroke: #C82930; stroke-width: 1.0;" width="6" x="269" y="121.4141"/><text fill="#000000" font-family="sans-serif" font-size="11" lengthAdjust="spacingAndGlyphs" textLength="39" x="281" y="127.6245">_filters</text><rect fill="none" height="6" style="stroke: #C82930; stroke-width: 1.0;" width="6" x="269" y="134.2188"/><text fill="#000000" font-family="sans-serif" font-size="11" lengthAdjust="spacingAndGlyphs" textLength="102" x="281" y="140.4292">_structure_parser</text><ellipse cx="272" cy="150.0234" fill="none" rx="3" ry="3" style="stroke: #038048; stroke-width: 1.0;"/><text fill="#000000" font-family="sans-serif" font-size="11" lengthAdjust="spacingAndGlyphs" textLength="61" x="281" y="153.2339">data_array</text><line style="stroke: #A80036; stroke-width: 1.5;" x1="262" x2="428" y1="159.8281" y2="159.8281"/><ellipse cx="272" cy="170.8281" fill="#84BE84" rx="3" ry="3" style="stroke: #038048; stroke-width: 1.0;"/><text fill="#000000" font-family="sans-serif" font-size="11" lengthAdjust="spacingAndGlyphs" textLength="61" x="281" y="174.0386">add_filter()</text><ellipse cx="272" cy="183.6328" fill="#84BE84" rx="3" ry="3" style="stroke: #038048; stroke-width: 1.0;"/><text fill="#000000" font-family="sans-serif" font-size="11" lengthAdjust="spacingAndGlyphs" textLength="97" x="281" y="186.8433">add_filter_chain()</text><ellipse cx="272" cy="196.4375" fill="#84BE84" rx="3" ry="3" style="stroke: #038048; stroke-width: 1.0;"/><text fill="#000000" font-family="sans-serif" font-size="11" lengthAdjust="spacingAndGlyphs" textLength="142" x="281" y="199.6479">add_filter_record_name()</text><ellipse cx="272" cy="209.2422" fill="#84BE84" rx="3" ry="3" style="stroke: #038048; stroke-width: 1.0;"/><text fill="#000000" font-family="sans-serif" font-size="11" lengthAdjust="spacingAndGlyphs" textLength="35" x="281" y="212.4526">build()</text><ellipse cx="272" cy="222.0469" fill="#84BE84" rx="3" ry="3" style="stroke: #038048; stroke-width: 1.0;"/><text fill="#000000" font-family="sans-serif" font-size="11" lengthAdjust="spacingAndGlyphs" textLength="75" x="281" y="225.2573">clear_filters()</text><ellipse cx="272" cy="234.8516" fill="#84BE84" rx="3" ry="3" style="stroke: #038048; stroke-width: 1.0;"/><text fill="#000000" font-family="sans-serif" font-size="11" lengthAdjust="spacingAndGlyphs" textLength="88" x="281" y="238.062">pop_last_filter()</text><ellipse cx="272" cy="247.6563" fill="#84BE84" rx="3" ry="3" style="stroke: #038048; stroke-width: 1.0;"/><text fill="#000000" font-family="sans-serif" font-size="11" lengthAdjust="spacingAndGlyphs" textLength="65" x="281" y="250.8667">write_PDB()</text><rect fill="#FEFECE" filter="url(#f1oik287qletx3)" height="33.9688" style="stroke: #A80036; stroke-width: 1.5;" width="39" x="325.5" y="317"/><text fill="#000000" font-family="sans-serif" font-size="12" lengthAdjust="spacingAndGlyphs" textLength="25" x="332.5" y="330.1387">cols</text><line style="stroke: #A80036; stroke-width: 1.5;" x1="326.5" x2="363.5" y1="334.9688" y2="334.9688"/><rect fill="#FEFECE" filter="url(#f1oik287qletx3)" height="33.9688" style="stroke: #A80036; stroke-width: 1.5;" width="152" x="270" y="411"/><text fill="#000000" font-family="sans-serif" font-size="12" lengthAdjust="spacingAndGlyphs" textLength="138" x="277" y="424.1387">detect_structure_type</text><line style="stroke: #A80036; stroke-width: 1.5;" x1="271" x2="421" y1="428.9688" y2="428.9688"/><rect fill="#FEFECE" filter="url(#f1oik287qletx3)" height="33.9688" style="stroke: #A80036; stroke-width: 1.5;" width="124" x="284" y="505"/><text fill="#000000" font-family="sans-serif" font-size="12" lengthAdjust="spacingAndGlyphs" textLength="110" x="291" y="518.1387">filter_record_lines</text><line style="stroke: #A80036; stroke-width: 1.5;" x1="285" x2="407" y1="522.9688" y2="522.9688"/><rect fill="#FEFECE" filter="url(#f1oik287qletx3)" height="33.9688" style="stroke: #A80036; stroke-width: 1.5;" width="219" x="236.5" y="599"/><text fill="#000000" font-family="sans-serif" font-size="12" lengthAdjust="spacingAndGlyphs" textLength="205" x="243.5" y="612.1387">gen_empty_structure_data_array</text><line style="stroke: #A80036; stroke-width: 1.5;" x1="237.5" x2="454.5" y1="616.9688" y2="616.9688"/><rect fill="#FEFECE" filter="url(#f1oik287qletx3)" height="33.9688" style="stroke: #A80036; stroke-width: 1.5;" width="87" x="302.5" y="693"/><text fill="#000000" font-family="sans-serif" font-size="12" lengthAdjust="spacingAndGlyphs" textLength="73" x="309.5" y="706.1387">get_datastr</text><line style="stroke: #A80036; stroke-width: 1.5;" x1="303.5" x2="388.5" y1="710.9688" y2="710.9688"/><rect fill="#FEFECE" filter="url(#f1oik287qletx3)" height="33.9688" style="stroke: #A80036; stroke-width: 1.5;" width="127" x="282.5" y="800.5"/><text fill="#000000" font-family="sans-serif" font-size="12" lengthAdjust="spacingAndGlyphs" textLength="113" x="289.5" y="813.6387">parse_cif_to_array</text><line style="stroke: #A80036; stroke-width: 1.5;" x1="283.5" x2="408.5" y1="818.4688" y2="818.4688"/><rect fill="#FEFECE" filter="url(#f1oik287qletx3)" height="33.9688" style="stroke: #A80036; stroke-width: 1.5;" width="236" x="228" y="1016"/><text fill="#000000" font-family="sans-serif" font-size="12" lengthAdjust="spacingAndGlyphs" textLength="222" x="235" y="1029.1387">populate_structure_array_from_pdb</text><line style="stroke: #A80036; stroke-width: 1.5;" x1="229" x2="463" y1="1033.9688" y2="1033.9688"/><rect fill="#FEFECE" filter="url(#f1oik287qletx3)" height="33.9688" style="stroke: #A80036; stroke-width: 1.5;" width="119" x="265.5" y="1110"/><text fill="#000000" font-family="sans-serif" font-size="12" lengthAdjust="spacingAndGlyphs" textLength="105" x="272.5" y="1123.1387">record_headings</text><line style="stroke: #A80036; stroke-width: 1.5;" x1="266.5" x2="383.5" y1="1127.9688" y2="1127.9688"/><rect fill="#FEFECE" filter="url(#f1oik287qletx3)" height="33.9688" style="stroke: #A80036; stroke-width: 1.5;" width="126" x="244" y="1204"/><text fill="#000000" font-family="sans-serif" font-size="12" lengthAdjust="spacingAndGlyphs" textLength="112" x="251" y="1217.1387">structure_parsers</text><line style="stroke: #A80036; stroke-width: 1.5;" x1="245" x2="369" y1="1221.9688" y2="1221.9688"/><rect fill="#FEFECE" filter="url(#f1oik287qletx3)" height="33.9688" style="stroke: #A80036; stroke-width: 1.5;" width="121" x="263.5" y="1298"/><text fill="#000000" font-family="sans-serif" font-size="12" lengthAdjust="spacingAndGlyphs" textLength="107" x="270.5" y="1311.1387">structure_to_pdb</text><line style="stroke: #A80036; stroke-width: 1.5;" x1="264.5" x2="383.5" y1="1315.9688" y2="1315.9688"/><rect fill="#FEFECE" filter="url(#f1oik287qletx3)" height="33.9688" style="stroke: #A80036; stroke-width: 1.5;" width="85" x="228.5" y="1392"/><text fill="#000000" font-family="sans-serif" font-size="12" lengthAdjust="spacingAndGlyphs" textLength="71" x="235.5" y="1405.1387">type2string</text><line style="stroke: #A80036; stroke-width: 1.5;" x1="229.5" x2="312.5" y1="1409.9688" y2="1409.9688"/><rect fill="#FEFECE" filter="url(#f1oik287qletx3)" height="33.9688" style="stroke: #A80036; stroke-width: 1.5;" width="75" x="233.5" y="1486"/><text fill="#000000" font-family="sans-serif" font-size="12" lengthAdjust="spacingAndGlyphs" textLength="61" x="240.5" y="1499.1387">write_PDB</text><line style="stroke: #A80036; stroke-width: 1.5;" x1="234.5" x2="307.5" y1="1503.9688" y2="1503.9688"/><!--MD5=[85693f5d9eaba3bf71c39a4edb6816c6]
class parse_pdb_to_array--><rect fill="#FEFECE" filter="url(#f1oik287qletx3)" height="48" id="parse_pdb_to_array" style="stroke: #A80036; stroke-width: 1.5;" width="155" x="268.5" y="908"/><ellipse cx="283.5" cy="924" fill="#ADD1B2" rx="11" ry="11" style="stroke: #A80036; stroke-width: 1.0;"/><path d="M286.4688,929.6406 Q285.8906,929.9375 285.25,930.0781 Q284.6094,930.2344 283.9063,930.2344 Q281.4063,930.2344 280.0781,928.5938 Q278.7656,926.9375 278.7656,923.8125 Q278.7656,920.6875 280.0781,919.0313 Q281.4063,917.375 283.9063,917.375 Q284.6094,917.375 285.25,917.5313 Q285.9063,917.6875 286.4688,917.9844 L286.4688,920.7031 Q285.8438,920.125 285.25,919.8594 Q284.6563,919.5781 284.0313,919.5781 Q282.6875,919.5781 282,920.6563 Q281.3125,921.7188 281.3125,923.8125 Q281.3125,925.9063 282,926.9844 Q282.6875,928.0469 284.0313,928.0469 Q284.6563,928.0469 285.25,927.7813 Q285.8438,927.5 286.4688,926.9219 L286.4688,929.6406 Z "/><text fill="#000000" font-family="sans-serif" font-size="12" lengthAdjust="spacingAndGlyphs" textLength="123" x="297.5" y="928.1543">parse_pdb_to_array</text><line style="stroke: #A80036; stroke-width: 1.5;" x1="269.5" x2="422.5" y1="940" y2="940"/><line style="stroke: #A80036; stroke-width: 1.5;" x1="269.5" x2="422.5" y1="948" y2="948"/><!--MD5=[7411ddc128a135f51d70a85c27fa86c0]
link CIFParser to find_cif_atom_site_headers--><path d="M145.9408,848.1839 C138.2782,867.681 128.5397,892.4601 121.6442,910.0053 " fill="none" id="CIFParser-&gt;find_cif_atom_site_headers" style="stroke: #A80036; stroke-width: 1.0;"/><polygon fill="#A80036" points="119.7788,914.7517,126.7937,907.8386,121.6078,910.0982,119.3482,904.9123,119.7788,914.7517" style="stroke: #A80036; stroke-width: 1.0;"/><!--MD5=[46922b98f94dc00a7aa18cf9e9630d7a]
reverse link find_cif_atom_site_headers to is_cif--><path d="M113,954.1492 C113,972.6911 113,998.7761 113,1015.7827 " fill="none" id="find_cif_atom_site_headers&lt;-is_cif" style="stroke: #D3D3D3; stroke-width: 1.0;"/><rect fill="#FFFFFF" height="10" style="stroke: #D3D3D3; stroke-width: 1.5;" width="10" x="108" y="944.1333"/><!--MD5=[73941de4909ead1a9d731ccb9da5b8b9]
reverse link is_cif to parse_cif_line--><path d="M112.2767,1055.6621 C111.7445,1072.3399 111.032,1094.6642 110.5468,1109.8683 " fill="none" id="is_cif&lt;-parse_cif_line" style="stroke: #D3D3D3; stroke-width: 1.0;"/><rect fill="#FFFFFF" height="10" style="stroke: #D3D3D3; stroke-width: 1.5;" width="10" x="107.4498" y="1045.241"/><!--MD5=[057a03cff701ae3e3f8932a53f2f8af0]
reverse link parse_cif_line to populate_cif_dictionary--><path d="M110,1149.6621 C110,1166.3399 110,1188.6642 110,1203.8683 " fill="none" id="parse_cif_line&lt;-populate_cif_dictionary" style="stroke: #D3D3D3; stroke-width: 1.0;"/><rect fill="#FFFFFF" height="10" style="stroke: #D3D3D3; stroke-width: 1.5;" width="10" x="105" y="1139.241"/><!--MD5=[9cca03aecd1e3e931074c3a10ce671ce]
reverse link _nothing to atom_--><path d="M559,1149.6621 C559,1166.3399 559,1188.6642 559,1203.8683 " fill="none" id="_nothing&lt;-atom_" style="stroke: #D3D3D3; stroke-width: 1.0;"/><rect fill="#FFFFFF" height="10" style="stroke: #D3D3D3; stroke-width: 1.5;" width="10" x="554" y="1139.241"/><!--MD5=[83967dcdf8debea255f40444542dd564]
reverse link atom_ to atom_format_funcs--><path d="M559,1243.6621 C559,1260.3399 559,1282.6642 559,1297.8683 " fill="none" id="atom_&lt;-atom_format_funcs" style="stroke: #D3D3D3; stroke-width: 1.0;"/><rect fill="#FFFFFF" height="10" style="stroke: #D3D3D3; stroke-width: 1.5;" width="10" x="554" y="1233.241"/><!--MD5=[670645160e8a453b8ade38371704fe47]
reverse link atom_format_funcs to atom_line_formatter--><path d="M559.4822,1337.6621 C559.837,1354.3399 560.312,1376.6642 560.6355,1391.8683 " fill="none" id="atom_format_funcs&lt;-atom_line_formatter" style="stroke: #D3D3D3; stroke-width: 1.0;"/><rect fill="#FFFFFF" height="10" style="stroke: #D3D3D3; stroke-width: 1.5;" width="10" x="554.3668" y="1327.241"/><!--MD5=[97a683405cd0a463d76b9424af835613]
reverse link atom_line_formatter to atom_slicers--><path d="M560.5178,1431.6621 C560.163,1448.3399 559.688,1470.6642 559.3645,1485.8683 " fill="none" id="atom_line_formatter&lt;-atom_slicers" style="stroke: #D3D3D3; stroke-width: 1.0;"/><rect fill="#FFFFFF" height="10" style="stroke: #D3D3D3; stroke-width: 1.5;" width="10" x="555.6332" y="1421.241"/><!--MD5=[70973213522638a479a041bafd263a44]
reverse link atom_slicers to format_atom_name--><path d="M558.7589,1525.6621 C558.5815,1542.3399 558.344,1564.6642 558.1823,1579.8683 " fill="none" id="atom_slicers&lt;-format_atom_name" style="stroke: #D3D3D3; stroke-width: 1.0;"/><rect fill="#FFFFFF" height="10" style="stroke: #D3D3D3; stroke-width: 1.5;" width="10" x="553.8166" y="1515.241"/><!--MD5=[a734fac7a81d878dba2c988e35fea149]
reverse link format_atom_name to format_chainid--><path d="M556.3447,1619.2283 C555.0994,1635.9511 553.4178,1658.532 552.2758,1673.8683 " fill="none" id="format_atom_name&lt;-format_chainid" style="stroke: #D3D3D3; stroke-width: 1.0;"/><rect fill="#FFFFFF" height="10" style="stroke: #D3D3D3; stroke-width: 1.5;" width="10" x="551.7161" y="1609.241"/><!--MD5=[b3825fc7ac307dd53201f96e84a17202]
reverse link format_chainid to is_pdb--><path d="M546.98,1713.2283 C543.9557,1729.9511 539.8719,1752.532 537.0983,1767.8683 " fill="none" id="format_chainid&lt;-is_pdb" style="stroke: #D3D3D3; stroke-width: 1.0;"/><rect fill="#FFFFFF" height="10" style="stroke: #D3D3D3; stroke-width: 1.5;" width="10" x="542.8819" y="1703.241"/><!--MD5=[c814fa1828abe78bb034dd3b4e13fb6f]
link Structure to cols--><path d="M345,257.0336 C345,277.8757 345,297.6598 345,311.9499 " fill="none" id="Structure-&gt;cols" style="stroke: #A80036; stroke-width: 1.0;"/><polygon fill="#A80036" points="345,316.9579,349,307.9579,345,311.9579,341,307.9579,345,316.9579" style="stroke: #A80036; stroke-width: 1.0;"/><!--MD5=[cabc52d65c2fc782796f960757d8e1f6]
reverse link cols to detect_structure_type--><path d="M345.2411,356.6621 C345.4185,373.3399 345.656,395.6642 345.8177,410.8683 " fill="none" id="cols&lt;-detect_structure_type" style="stroke: #D3D3D3; stroke-width: 1.0;"/><rect fill="#FFFFFF" height="10" style="stroke: #D3D3D3; stroke-width: 1.5;" width="10" x="340.1834" y="346.241"/><!--MD5=[b60b0f6a722faec3d689c820099e2673]
reverse link detect_structure_type to filter_record_lines--><path d="M346,450.6621 C346,467.3399 346,489.6642 346,504.8683 " fill="none" id="detect_structure_type&lt;-filter_record_lines" style="stroke: #D3D3D3; stroke-width: 1.0;"/><rect fill="#FFFFFF" height="10" style="stroke: #D3D3D3; stroke-width: 1.5;" width="10" x="341" y="440.241"/><!--MD5=[ef4fc504ec4a050af2ba53212d7cb6aa]
reverse link filter_record_lines to gen_empty_structure_data_array--><path d="M346,544.6621 C346,561.3399 346,583.6642 346,598.8683 " fill="none" id="filter_record_lines&lt;-gen_empty_structure_data_array" style="stroke: #D3D3D3; stroke-width: 1.0;"/><rect fill="#FFFFFF" height="10" style="stroke: #D3D3D3; stroke-width: 1.5;" width="10" x="341" y="534.241"/><!--MD5=[537ceb91476e06ed0c0561de3d834fc6]
reverse link gen_empty_structure_data_array to get_datastr--><path d="M346,638.6621 C346,655.3399 346,677.6642 346,692.8683 " fill="none" id="gen_empty_structure_data_array&lt;-get_datastr" style="stroke: #D3D3D3; stroke-width: 1.0;"/><rect fill="#FFFFFF" height="10" style="stroke: #D3D3D3; stroke-width: 1.5;" width="10" x="341" y="628.241"/><!--MD5=[d13f48b29db8b87a1bdc893d464f7c99]
reverse link get_datastr to parse_cif_to_array--><path d="M346,732.4535 C346,752.643 346,781.8729 346,800.2711 " fill="none" id="get_datastr&lt;-parse_cif_to_array" style="stroke: #D3D3D3; stroke-width: 1.0;"/><rect fill="#FFFFFF" height="10" style="stroke: #D3D3D3; stroke-width: 1.5;" width="10" x="341" y="722.2717"/><!--MD5=[90c31e97610a093d890b9d01014fdc8d]
reverse link parse_cif_to_array to parse_pdb_to_array--><path d="M346,840.1446 C346,859.6281 346,887.6699 346,907.6365 " fill="none" id="parse_cif_to_array&lt;-parse_pdb_to_array" style="stroke: #D3D3D3; stroke-width: 1.0;"/><rect fill="#FFFFFF" height="10" style="stroke: #D3D3D3; stroke-width: 1.5;" width="10" x="341" y="829.8901"/><!--MD5=[894411f603366805c75d13b34b4475a4]
reverse link parse_pdb_to_array to populate_structure_array_from_pdb--><path d="M346,961.5375 C346,979.2338 346,1001.1055 346,1015.9578 " fill="none" id="parse_pdb_to_array&lt;-populate_structure_array_from_pdb" style="stroke: #D3D3D3; stroke-width: 1.0;"/><rect fill="#FFFFFF" height="10" style="stroke: #D3D3D3; stroke-width: 1.5;" width="10" x="341" y="951.192"/><!--MD5=[80cf34901448db36a4d13a698bfc55b4]
reverse link populate_structure_array_from_pdb to record_headings--><path d="M341.0341,1055.2283 C337.2982,1071.9511 332.2535,1094.532 328.8273,1109.8683 " fill="none" id="populate_structure_array_from_pdb&lt;-record_headings" style="stroke: #D3D3D3; stroke-width: 1.0;"/><rect fill="#FFFFFF" height="10" style="stroke: #D3D3D3; stroke-width: 1.5;" width="10" x="337.1483" y="1045.241"/><!--MD5=[89bd1ae1dd20c94176b0b1f51f756189]
reverse link record_headings to structure_parsers--><path d="M320.7435,1149.2283 C317.5413,1165.9511 313.2173,1188.532 310.2805,1203.8683 " fill="none" id="record_headings&lt;-structure_parsers" style="stroke: #D3D3D3; stroke-width: 1.0;"/><rect fill="#FFFFFF" height="10" style="stroke: #D3D3D3; stroke-width: 1.5;" width="10" x="316.6985" y="1139.241"/><!--MD5=[09045981a5be01f0dcee6ad0d7f2df47]
reverse link structure_parsers to structure_to_pdb--><path d="M311.02,1243.2283 C314.0443,1259.9511 318.1281,1282.532 320.9017,1297.8683 " fill="none" id="structure_parsers&lt;-structure_to_pdb" style="stroke: #D3D3D3; stroke-width: 1.0;"/><rect fill="#FFFFFF" height="10" style="stroke: #D3D3D3; stroke-width: 1.5;" width="10" x="305.1181" y="1233.241"/><!--MD5=[f4b53a4c9948e94c53e39c88b01c420e]
reverse link structure_to_pdb to type2string--><path d="M311.7101,1336.7971 C302.258,1353.5612 289.381,1376.3998 280.6594,1391.8683 " fill="none" id="structure_to_pdb&lt;-type2string" style="stroke: #D3D3D3; stroke-width: 1.0;"/><rect fill="#FFFFFF" height="10" style="stroke: #D3D3D3; stroke-width: 1.5;" width="10" x="309.279" y="1327.241"/><!--MD5=[f5b37d5ff2af65b97d1088c85fd00db9]
reverse link type2string to write_PDB--><path d="M271,1431.6621 C271,1448.3399 271,1470.6642 271,1485.8683 " fill="none" id="type2string&lt;-write_PDB" style="stroke: #D3D3D3; stroke-width: 1.0;"/><rect fill="#FFFFFF" height="10" style="stroke: #D3D3D3; stroke-width: 1.5;" width="10" x="266" y="1421.241"/><!--MD5=[0437a18b9d7e83c7c1c2097c231519f1]
link gen_empty_structure_data_array to atom_slicers--><path d="M450.6306,633.1042 C549.8977,656.0095 684,707.3391 684,817.5 C684,817.5 684,817.5 684,1315 C684,1366.8631 676.6643,1382.7781 648,1426 C632.8823,1448.7954 609.2368,1468.8068 590.1171,1482.712 " fill="none" id="gen_empty_structure_data_array-&gt;atom_slicers" style="stroke: #A80036; stroke-width: 1.0;"/><polygon fill="#A80036" points="585.8623,1485.7607,595.5079,1483.77,589.9266,1482.8484,590.8482,1477.2671,585.8623,1485.7607" style="stroke: #A80036; stroke-width: 1.0;"/><!--MD5=[086881f955e71e6b480bffa076820038]
reverse link CIFParser to parse_cif_to_array--><path d="M208.7606,817.5 C233.2666,817.5 257.7726,817.5 282.2786,817.5 " fill="none" id="CIFParser&lt;-parse_cif_to_array" style="stroke: #A80036; stroke-width: 1.0;"/><polygon fill="#A80036" points="203.5313,817.5,212.5313,821.5,208.5313,817.5,212.5313,813.5,203.5313,817.5" style="stroke: #A80036; stroke-width: 1.0;"/><!--MD5=[ffe0cc384279ac665035760fa1d3625b]
link populate_structure_array_from_pdb to atom_slicers--><path d="M371.1378,1050.1561 C382.0896,1058.8218 394.184,1070.2106 402,1083 C435.0533,1137.0857 438,1157.6141 438,1221 C438,1221 438,1221 438,1315 C438,1366.8631 445.8307,1382.4538 474,1426 C488.579,1448.5374 511.3734,1468.6904 529.6885,1482.7208 " fill="none" id="populate_structure_array_from_pdb-&gt;atom_slicers" style="stroke: #A80036; stroke-width: 1.0;"/><polygon fill="#A80036" points="533.7616,1485.7975,528.9911,1477.1811,529.7719,1482.7838,524.1692,1483.5646,533.7616,1485.7975" style="stroke: #A80036; stroke-width: 1.0;"/><!--MD5=[b714272b757de7033856dd6d13318cea]
reverse link is_cif to structure_parsers--><path d="M139.3567,1052.5886 C150.9095,1061.5089 164.4404,1072.421 176,1083 C220.5958,1123.8129 268.3747,1176.7944 291.9974,1203.6916 " fill="none" id="is_cif&lt;-structure_parsers" style="stroke: #A80036; stroke-width: 1.0;"/><polygon fill="#A80036" points="135.1973,1049.3966,139.902,1058.0491,139.1639,1052.4406,144.7724,1051.7026,135.1973,1049.3966" style="stroke: #A80036; stroke-width: 1.0;"/><!--MD5=[02493a122e060f5308d26446456f8d94]
link structure_parsers to is_pdb--><path d="M283.7049,1238.1163 C245.8103,1268.1319 175,1334.2237 175,1409 C175,1409 175,1409 175,1597 C175,1743.7576 413.3533,1776.1723 501.6283,1783.1449 " fill="none" id="structure_parsers-&gt;is_pdb" style="stroke: #A80036; stroke-width: 1.0;"/><polygon fill="#A80036" points="506.722,1783.532,498.0511,1778.8613,501.7364,1783.153,497.4447,1786.8383,506.722,1783.532" style="stroke: #A80036; stroke-width: 1.0;"/><!--MD5=[86ea27500baae4d806d12e18682b5885]
link structure_to_pdb to atom_format_funcs--><path d="M384.5859,1315 C418.786,1315 452.9861,1315 487.1862,1315 " fill="none" id="structure_to_pdb-&gt;atom_format_funcs" style="stroke: #A80036; stroke-width: 1.0;"/><polygon fill="#A80036" points="492.2321,1315,483.2321,1311,487.2321,1315,483.2321,1319,492.2321,1315" style="stroke: #A80036; stroke-width: 1.0;"/><!--MD5=[606a7328c26d03738b5e1eec5b4e0f74]
link structure_to_pdb to atom_line_formatter--><path d="M366.9189,1332.0227 C408.1489,1348.3755 470.3294,1373.0378 513.1396,1390.0174 " fill="none" id="structure_to_pdb-&gt;atom_line_formatter" style="stroke: #A80036; stroke-width: 1.0;"/><polygon fill="#A80036" points="518.0006,1391.9454,511.1094,1384.909,513.3528,1390.102,508.1599,1392.3454,518.0006,1391.9454" style="stroke: #A80036; stroke-width: 1.0;"/><!--MD5=[7ad191bb23cd5c4d81e01aa0a61f996b]
link structure_to_pdb to format_atom_name--><path d="M337.2492,1332.1368 C365.6469,1368.7022 434.7772,1456.8393 496,1528 C510.113,1544.4039 526.4914,1562.5968 538.8691,1576.1815 " fill="none" id="structure_to_pdb-&gt;format_atom_name" style="stroke: #A80036; stroke-width: 1.0;"/><polygon fill="#A80036" points="542.2489,1579.8856,539.1373,1570.5412,538.8787,1576.1921,533.2278,1575.9335,542.2489,1579.8856" style="stroke: #A80036; stroke-width: 1.0;"/><!--MD5=[682f3193ed90ed64cdd91005732d59f4]
link libstructure to libpdb--><!--MD5=[d6e7794e6d2581adfcdc6fdb1d86f25e]
link libstructure to libcif--><!--MD5=[d7feaee559b3451a73264f35292af672]
@startuml


package libcif {
class CIFParser {
a
}

object find_cif_atom_site_headers
object is_cif
object parse_cif_line
object populate_cif_dictionary

CIFParser -down-> find_cif_atom_site_headers

find_cif_atom_site_headers  #-down-  is_cif                   #lightgrey
is_cif                      #-down-  parse_cif_line           #lightgrey
parse_cif_line              #-down-  populate_cif_dictionary  #lightgrey

}


package libpdb {
object _nothing
object atom_
object atom_format_funcs
object atom_line_formatter
object atom_slicers
object format_atom_name
object format_chainid
object is_pdb

_nothing             #-down-  atom_                #lightgrey
atom_                #-down-  atom_format_funcs    #lightgrey
atom_format_funcs    #-down-  atom_line_formatter  #lightgrey
atom_line_formatter  #-down-  atom_slicers         #lightgrey
atom_slicers         #-down-  format_atom_name     #lightgrey
format_atom_name     #-down-  format_chainid       #lightgrey
format_chainid       #-down-  is_pdb               #lightgrey

}

package libstructure {
class Structure {
+chain_set
+filtered_atoms
-_data_str, del after .buil
-_filters
-_structure_parser
+add_filter()
+add_filter_chain()
+add_filter_record_name()
+build()
+clear_filters()
+data_array
+pop_last_filter()
+write_PDB()
}

object cols
object detect_structure_type
object filter_record_lines
object gen_empty_structure_data_array
object get_datastr
object parse_cif_to_array
object populate_structure_array_from_pdb
object record_headings
object structure_parsers
object structure_to_pdb
object type2string
object write_PDB

Structure -down-> cols

cols                               #-down-  detect_structure_type              #lightgrey
detect_structure_type              #-down-  filter_record_lines                #lightgrey
filter_record_lines                #-down-  gen_empty_structure_data_array     #lightgrey
gen_empty_structure_data_array     #-down-  get_datastr                        #lightgrey
get_datastr                        #-down-  parse_cif_to_array                 #lightgrey
parse_cif_to_array                 #-down-  parse_pdb_to_array                 #lightgrey
parse_pdb_to_array                 #-down-  populate_structure_array_from_pdb  #lightgrey
populate_structure_array_from_pdb  #-down-  record_headings                    #lightgrey
record_headings                    #-down-  structure_parsers                  #lightgrey
structure_parsers                  #-down-  structure_to_pdb                   #lightgrey
structure_to_pdb                   #-down-  type2string                        #lightgrey
type2string                        #-down-  write_PDB                          #lightgrey

gen_empty_structure_data_array     -right->  atom_slicers
parse_cif_to_array                 -left->   CIFParser
populate_structure_array_from_pdb  -right->  atom_slicers
structure_parsers                  -left->   is_cif
structure_parsers                  -right->  is_pdb
structure_to_pdb                   -right->  atom_format_funcs
structure_to_pdb                   -right->  atom_line_formatter
structure_to_pdb                   -right->  format_atom_name

}


libstructure  -right[hidden]->  libpdb
libstructure        -left[hidden]->  libcif



@enduml

PlantUML version 1.2020.00(Sat Jan 11 07:30:53 EST 2020)
(GPL source distribution)
Java Runtime: OpenJDK Runtime Environment
JVM: OpenJDK 64-Bit Server VM
Java Version: 11.0.7+10-post-Ubuntu-2ubuntu218.04
Operating System: Linux
Default Encoding: UTF-8
Language: en
Country: US
--></g></svg>