<?xml version="1.0" encoding="UTF-8" standalone="no"?><svg xmlns="http://www.w3.org/2000/svg" xmlns:xlink="http://www.w3.org/1999/xlink" contentScriptType="application/ecmascript" contentStyleType="text/css" height="1062px" preserveAspectRatio="none" style="width:921px;height:1062px;" version="1.1" viewBox="0 0 921 1062" width="921px" zoomAndPan="magnify"><defs><filter height="300%" id="f19h3blzx5uyje" width="300%" x="-1" y="-1"><feGaussianBlur result="blurOut" stdDeviation="2.0"/><feColorMatrix in="blurOut" result="blurOut2" type="matrix" values="0 0 0 0 0 0 0 0 0 0 0 0 0 0 0 0 0 0 .4 0"/><feOffset dx="4.0" dy="4.0" in="blurOut2" result="blurOut3"/><feBlend in="SourceGraphic" in2="blurOut3" mode="normal"/></filter></defs><g><ellipse cx="420.25" cy="20" fill="#000000" filter="url(#f19h3blzx5uyje)" rx="10" ry="10" style="stroke: none; stroke-width: 1.0;"/><rect fill="#FEFECE" filter="url(#f19h3blzx5uyje)" height="33.9688" rx="12.5" ry="12.5" style="stroke: #A80036; stroke-width: 1.5;" width="131" x="354.75" y="50"/><text fill="#000000" font-family="sans-serif" font-size="12" lengthAdjust="spacingAndGlyphs" textLength="70" x="364.75" y="71.1387">idpconfgen</text><text fill="#000000" font-family="sans-serif" font-size="12" font-style="italic" lengthAdjust="spacingAndGlyphs" textLength="37" x="438.75" y="71.1387">sscalc</text><rect fill="#D3D3D3" filter="url(#f19h3blzx5uyje)" height="256.6172" style="stroke: #000000; stroke-width: 2.0;" width="752" x="113.75" y="94.7705"/><path d="M189.75,95.7705 L189.75,104.0674 L179.75,114.0674 L113.75,114.0674 " fill="none" style="stroke: #000000; stroke-width: 2.0;"/><text fill="#000000" font-family="sans-serif" font-size="14" lengthAdjust="spacingAndGlyphs" textLength="66" x="116.75" y="108.7656">Examples</text><path d="M631.25,130.9189 L631.25,147.0518 L611.25,151.0518 L631.25,155.0518 L631.25,171.1846 A0,0 0 0 0 631.25,171.1846 L842.25,171.1846 A0,0 0 0 0 842.25,171.1846 L842.25,140.9189 L832.25,130.9189 L631.25,130.9189 A0,0 0 0 0 631.25,130.9189 " fill="#FBFB77" filter="url(#f19h3blzx5uyje)" style="stroke: #A80036; stroke-width: 1.0;"/><path d="M832.25,130.9189 L832.25,140.9189 L842.25,140.9189 L832.25,130.9189 " fill="#FBFB77" style="stroke: #A80036; stroke-width: 1.0;"/><text fill="#000000" font-family="sans-serif" font-size="13" lengthAdjust="spacingAndGlyphs" textLength="38" x="637.25" y="147.9858">where</text><text fill="#000000" font-family="sans-serif" font-size="13" font-style="italic" lengthAdjust="spacingAndGlyphs" textLength="82" x="679.25" y="147.9858">filtered_pdbs</text><text fill="#000000" font-family="sans-serif" font-size="13" lengthAdjust="spacingAndGlyphs" textLength="62" x="765.25" y="147.9858">is a folder</text><text fill="#000000" font-family="sans-serif" font-size="13" lengthAdjust="spacingAndGlyphs" textLength="66" x="637.25" y="163.1187">containing</text><text fill="#000000" font-family="sans-serif" font-size="13" font-style="italic" lengthAdjust="spacingAndGlyphs" textLength="35" x="707.25" y="163.1187">*.pdb</text><text fill="#000000" font-family="sans-serif" font-size="13" lengthAdjust="spacingAndGlyphs" textLength="29" x="746.25" y="163.1187">files.</text><rect fill="#FFFFFF" filter="url(#f19h3blzx5uyje)" height="33.9688" rx="12.5" ry="12.5" style="stroke: #A80036; stroke-width: 1.5;" width="382" x="229.25" y="134.0674"/><text fill="#000000" font-family="sans-serif" font-size="12" lengthAdjust="spacingAndGlyphs" textLength="362" x="239.25" y="155.2061">$ idpconfgen sscalc mkdssp filtered_pdbs/ -o dssp.json -n</text><path d="M640.25,188.0361 L640.25,204.1689 L620.25,208.1689 L640.25,212.1689 L640.25,228.3018 A0,0 0 0 0 640.25,228.3018 L828.25,228.3018 A0,0 0 0 0 828.25,228.3018 L828.25,198.0361 L818.25,188.0361 L640.25,188.0361 A0,0 0 0 0 640.25,188.0361 " fill="#FBFB77" filter="url(#f19h3blzx5uyje)" style="stroke: #A80036; stroke-width: 1.0;"/><path d="M818.25,188.0361 L818.25,198.0361 L828.25,198.0361 L818.25,188.0361 " fill="#FBFB77" style="stroke: #A80036; stroke-width: 1.0;"/><text fill="#000000" font-family="sans-serif" font-size="13" lengthAdjust="spacingAndGlyphs" textLength="38" x="646.25" y="205.103">where</text><text fill="#000000" font-family="sans-serif" font-size="13" font-style="italic" lengthAdjust="spacingAndGlyphs" textLength="97" x="688.25" y="205.103">filtered_pdb.tar</text><text fill="#000000" font-family="sans-serif" font-size="13" lengthAdjust="spacingAndGlyphs" textLength="22" x="789.25" y="205.103">is a</text><text fill="#000000" font-family="sans-serif" font-size="13" lengthAdjust="spacingAndGlyphs" textLength="167" x="646.25" y="220.2358">tarfile containing pdb files.</text><rect fill="#FFFFFF" filter="url(#f19h3blzx5uyje)" height="33.9688" rx="12.5" ry="12.5" style="stroke: #A80036; stroke-width: 1.5;" width="400" x="220.25" y="191.1846"/><text fill="#000000" font-family="sans-serif" font-size="12" lengthAdjust="spacingAndGlyphs" textLength="380" x="230.25" y="212.3232">$ idpconfgen sscalc mkdssp filtered_pdbs.tar -o dssp.json -n</text><path d="M683.75,245.1533 L683.75,261.2861 L663.75,265.2861 L683.75,269.2861 L683.75,285.4189 A0,0 0 0 0 683.75,285.4189 L855.75,285.4189 A0,0 0 0 0 855.75,285.4189 L855.75,255.1533 L845.75,245.1533 L683.75,245.1533 A0,0 0 0 0 683.75,245.1533 " fill="#FBFB77" filter="url(#f19h3blzx5uyje)" style="stroke: #A80036; stroke-width: 1.0;"/><path d="M845.75,245.1533 L845.75,255.1533 L855.75,255.1533 L845.75,245.1533 " fill="#FBFB77" style="stroke: #A80036; stroke-width: 1.0;"/><text fill="#000000" font-family="sans-serif" font-size="13" font-style="italic" lengthAdjust="spacingAndGlyphs" textLength="52" x="689.75" y="262.2202">reduced</text><text fill="#000000" font-family="sans-serif" font-size="13" lengthAdjust="spacingAndGlyphs" textLength="73" x="745.75" y="262.2202">converts all</text><text fill="#000000" font-family="sans-serif" font-size="13" lengthAdjust="spacingAndGlyphs" textLength="151" x="689.75" y="277.353">DSSP tags to H, E, or L/</text><rect fill="#FFFFFF" filter="url(#f19h3blzx5uyje)" height="33.9688" rx="12.5" ry="12.5" style="stroke: #A80036; stroke-width: 1.5;" width="487" x="176.75" y="248.3018"/><text fill="#000000" font-family="sans-serif" font-size="12" lengthAdjust="spacingAndGlyphs" textLength="467" x="186.75" y="269.4404">$ idpconfgen sscalc mkdssp filtered_pdbs.tar -o dssp.json [-r|--reduced] -n</text><rect fill="#FFFFFF" filter="url(#f19h3blzx5uyje)" height="33.9688" rx="12.5" ry="12.5" style="stroke: #A80036; stroke-width: 1.5;" width="593" x="123.75" y="305.4189"/><text fill="#000000" font-family="sans-serif" font-size="12" lengthAdjust="spacingAndGlyphs" textLength="573" x="133.75" y="326.5576">$ idpconfgen sscalc mkdssp filtered_pdbs.tar -o dssp.json --complete previous_dssp.json -n</text><polygon fill="#FEFECE" filter="url(#f19h3blzx5uyje)" points="391.75,371.3877,448.75,371.3877,460.75,383.3877,448.75,395.3877,391.75,395.3877,379.75,383.3877,391.75,371.3877" style="stroke: #A80036; stroke-width: 1.5;"/><text fill="#000000" font-family="sans-serif" font-size="11" lengthAdjust="spacingAndGlyphs" textLength="57" x="391.75" y="387.1958">input data</text><text fill="#000000" font-family="sans-serif" font-size="11" lengthAdjust="spacingAndGlyphs" textLength="37" x="342.75" y="380.7935">tar file</text><text fill="#000000" font-family="sans-serif" font-size="11" lengthAdjust="spacingAndGlyphs" textLength="33" x="460.75" y="380.7935">folder</text><path d="M72.75,409.8057 L72.75,434.9385 A0,0 0 0 0 72.75,434.9385 L214.75,434.9385 A0,0 0 0 0 214.75,434.9385 L214.75,427.8057 L234.75,422.3721 L214.75,419.8057 L214.75,419.8057 L204.75,409.8057 L72.75,409.8057 A0,0 0 0 0 72.75,409.8057 " fill="#FBFB77" filter="url(#f19h3blzx5uyje)" style="stroke: #A80036; stroke-width: 1.0;"/><path d="M204.75,409.8057 L204.75,419.8057 L214.75,419.8057 L204.75,409.8057 " fill="#FBFB77" style="stroke: #A80036; stroke-width: 1.0;"/><text fill="#000000" font-family="sans-serif" font-size="13" lengthAdjust="spacingAndGlyphs" textLength="60" x="78.75" y="426.8726">uses only</text><text fill="#000000" font-family="sans-serif" font-size="13" font-style="italic" lengthAdjust="spacingAndGlyphs" textLength="28" x="142.75" y="426.8726">.pdb</text><text fill="#000000" font-family="sans-serif" font-size="13" lengthAdjust="spacingAndGlyphs" textLength="25" x="174.75" y="426.8726">files</text><rect fill="#FEFECE" filter="url(#f19h3blzx5uyje)" height="33.9688" rx="12.5" ry="12.5" style="stroke: #A80036; stroke-width: 1.5;" width="153" x="234.75" y="405.3877"/><text fill="#000000" font-family="sans-serif" font-size="12" lengthAdjust="spacingAndGlyphs" textLength="133" x="244.75" y="426.5264">unpack tar to tmp dir</text><rect fill="#FEFECE" filter="url(#f19h3blzx5uyje)" height="33.9688" rx="12.5" ry="12.5" style="stroke: #A80036; stroke-width: 1.5;" width="200" x="211.25" y="459.3564"/><text fill="#000000" font-family="sans-serif" font-size="12" lengthAdjust="spacingAndGlyphs" textLength="180" x="221.25" y="480.4951">tmp dir is deleted at the end</text><rect fill="#FEFECE" filter="url(#f19h3blzx5uyje)" height="33.9688" rx="12.5" ry="12.5" style="stroke: #A80036; stroke-width: 1.5;" width="196" x="431.25" y="405.3877"/><text fill="#000000" font-family="sans-serif" font-size="12" lengthAdjust="spacingAndGlyphs" textLength="30" x="441.25" y="426.5264">uses</text><text fill="#000000" font-family="sans-serif" font-size="12" font-style="italic" lengthAdjust="spacingAndGlyphs" textLength="28" x="475.25" y="426.5264">.pdb</text><text fill="#000000" font-family="sans-serif" font-size="12" lengthAdjust="spacingAndGlyphs" textLength="110" x="507.25" y="426.5264">files in that folder</text><polygon fill="#FEFECE" filter="url(#f19h3blzx5uyje)" points="420.25,499.3252,432.25,511.3252,420.25,523.3252,408.25,511.3252,420.25,499.3252" style="stroke: #A80036; stroke-width: 1.5;"/><polygon fill="#FEFECE" filter="url(#f19h3blzx5uyje)" points="390.25,543.3252,450.25,543.3252,462.25,555.3252,450.25,567.3252,390.25,567.3252,378.25,555.3252,390.25,543.3252" style="stroke: #A80036; stroke-width: 1.5;"/><text fill="#000000" font-family="sans-serif" font-size="11" lengthAdjust="spacingAndGlyphs" textLength="60" x="390.25" y="559.1333">--complete</text><text fill="#000000" font-family="sans-serif" font-size="11" lengthAdjust="spacingAndGlyphs" textLength="86" x="292.25" y="552.731">reads previous</text><text fill="#000000" font-family="sans-serif" font-size="11" lengthAdjust="spacingAndGlyphs" textLength="52" x="462.25" y="552.731">not given</text><path d="M10,588.1455 L10,628.4111 A0,0 0 0 0 10,628.4111 L186,628.4111 A0,0 0 0 0 186,628.4111 L186,612.2783 L206,608.2783 L186,604.2783 L186,598.1455 L176,588.1455 L10,588.1455 A0,0 0 0 0 10,588.1455 " fill="#FBFB77" filter="url(#f19h3blzx5uyje)" style="stroke: #A80036; stroke-width: 1.0;"/><path d="M176,588.1455 L176,598.1455 L186,598.1455 L176,588.1455 " fill="#FBFB77" style="stroke: #A80036; stroke-width: 1.0;"/><text fill="#000000" font-family="sans-serif" font-size="13" lengthAdjust="spacingAndGlyphs" textLength="155" x="16" y="605.2124">Entries with the same ID</text><text fill="#000000" font-family="sans-serif" font-size="13" lengthAdjust="spacingAndGlyphs" textLength="100" x="16" y="620.3452">are overwritten;</text><rect fill="#FEFECE" filter="url(#f19h3blzx5uyje)" height="61.9063" rx="12.5" ry="12.5" style="stroke: #A80036; stroke-width: 1.5;" width="214" x="206" y="577.3252"/><text fill="#000000" font-family="sans-serif" font-size="12" lengthAdjust="spacingAndGlyphs" textLength="93" x="216" y="598.4639">reads previous</text><text fill="#000000" font-family="sans-serif" font-size="12" font-style="italic" lengthAdjust="spacingAndGlyphs" textLength="37" x="313" y="598.4639">sscalc</text><text fill="#000000" font-family="sans-serif" font-size="12" lengthAdjust="spacingAndGlyphs" textLength="194" x="216" y="612.4326">information file, and completes</text><text fill="#000000" font-family="sans-serif" font-size="12" lengthAdjust="spacingAndGlyphs" textLength="163" x="216" y="626.4014">it with the new calculation</text><rect fill="#FEFECE" filter="url(#f19h3blzx5uyje)" height="33.9688" rx="12.5" ry="12.5" style="stroke: #A80036; stroke-width: 1.5;" width="175" x="440" y="577.3252"/><text fill="#000000" font-family="sans-serif" font-size="12" lengthAdjust="spacingAndGlyphs" textLength="155" x="450" y="598.4639">starts a blank output file</text><polygon fill="#FEFECE" filter="url(#f19h3blzx5uyje)" points="420.25,645.2314,432.25,657.2314,420.25,669.2314,408.25,657.2314,420.25,645.2314" style="stroke: #A80036; stroke-width: 1.5;"/><path d="M567.75,759.2002 L567.75,814.5986 L855.75,814.5986 L855.75,769.2002 L845.75,759.2002 L567.75,759.2002 " fill="#F5F5F5" filter="url(#f19h3blzx5uyje)" style="stroke: #A80036; stroke-width: 1.0;"/><path d="M845.75,759.2002 L845.75,769.2002 L855.75,769.2002 L845.75,759.2002 " fill="#F5F5F5" style="stroke: #A80036; stroke-width: 1.0;"/><text fill="#000000" font-family="sans-serif" font-size="13" lengthAdjust="spacingAndGlyphs" textLength="229" x="573.75" y="776.2671">This process is performed in parallel</text><text fill="#000000" font-family="sans-serif" font-size="13" lengthAdjust="spacingAndGlyphs" textLength="267" x="573.75" y="791.3999">where cores extract PDBs from the queue</text><text fill="#000000" font-family="sans-serif" font-size="13" lengthAdjust="spacingAndGlyphs" textLength="181" x="573.75" y="806.5327">until the queue is exhausted</text><rect fill="#000000" filter="url(#f19h3blzx5uyje)" height="6" rx="2.5" ry="2.5" style="stroke: #000000; stroke-width: 1.0;" width="255" x="292.75" y="689.2314"/><rect fill="#FEFECE" filter="url(#f19h3blzx5uyje)" height="33.9688" rx="12.5" ry="12.5" style="stroke: #A80036; stroke-width: 1.5;" width="227" x="306.75" y="715.2314"/><text fill="#000000" font-family="sans-serif" font-size="12" lengthAdjust="spacingAndGlyphs" textLength="73" x="316.75" y="736.3701">subprocess</text><text fill="#000000" font-family="sans-serif" font-size="12" font-style="italic" lengthAdjust="spacingAndGlyphs" textLength="46" x="393.75" y="736.3701">mkdssp</text><text fill="#000000" font-family="sans-serif" font-size="12" lengthAdjust="spacingAndGlyphs" textLength="80" x="443.75" y="736.3701">on each PDB</text><rect fill="#FEFECE" filter="url(#f19h3blzx5uyje)" height="75.875" rx="12.5" ry="12.5" style="stroke: #A80036; stroke-width: 1.5;" width="162" x="339.25" y="783.4463"/><text fill="#000000" font-family="sans-serif" font-size="12" lengthAdjust="spacingAndGlyphs" textLength="52" x="349.25" y="804.585">collects:</text><text fill="#000000" font-family="sans-serif" font-size="12" lengthAdjust="spacingAndGlyphs" textLength="99" x="381.25" y="818.5537">residue number</text><text fill="#000000" font-family="sans-serif" font-size="12" lengthAdjust="spacingAndGlyphs" textLength="110" x="381.25" y="832.5225">Sec Str character</text><text fill="#000000" font-family="sans-serif" font-size="12" lengthAdjust="spacingAndGlyphs" textLength="103" x="381.25" y="846.4912">FASTA character</text><rect fill="#000000" filter="url(#f19h3blzx5uyje)" height="6" rx="2.5" ry="2.5" style="stroke: #000000; stroke-width: 1.0;" width="255" x="292.75" y="879.3213"/><polygon fill="#FEFECE" filter="url(#f19h3blzx5uyje)" points="371.25,905.3213,469.25,905.3213,481.25,917.3213,469.25,929.3213,371.25,929.3213,359.25,917.3213,371.25,905.3213" style="stroke: #A80036; stroke-width: 1.5;"/><text fill="#000000" font-family="sans-serif" font-size="11" lengthAdjust="spacingAndGlyphs" textLength="98" x="371.25" y="921.1294">save data to disk</text><text fill="#000000" font-family="sans-serif" font-size="11" lengthAdjust="spacingAndGlyphs" textLength="28" x="331.25" y="914.7271">JSON</text><text fill="#000000" font-family="sans-serif" font-size="11" lengthAdjust="spacingAndGlyphs" textLength="38" x="481.25" y="914.7271">PICKLE</text><rect fill="#FEFECE" filter="url(#f19h3blzx5uyje)" height="33.9688" rx="12.5" ry="12.5" style="stroke: #A80036; stroke-width: 1.5;" width="193" x="210.25" y="939.3213"/><text fill="#000000" font-family="sans-serif" font-size="12" lengthAdjust="spacingAndGlyphs" textLength="118" x="220.25" y="960.46">saves dictionary to</text><text fill="#000000" font-family="sans-serif" font-size="12" font-style="italic" lengthAdjust="spacingAndGlyphs" textLength="29" x="342.25" y="960.46">.json</text><text fill="#000000" font-family="sans-serif" font-size="12" lengthAdjust="spacingAndGlyphs" textLength="18" x="375.25" y="960.46">file</text><path d="M664.25,939.3213 L664.25,955.4541 L644.25,959.4541 L664.25,963.4541 L664.25,979.5869 A0,0 0 0 0 664.25,979.5869 L909.25,979.5869 A0,0 0 0 0 909.25,979.5869 L909.25,949.3213 L899.25,939.3213 L664.25,939.3213 A0,0 0 0 0 664.25,939.3213 " fill="#FBFB77" filter="url(#f19h3blzx5uyje)" style="stroke: #A80036; stroke-width: 1.0;"/><path d="M899.25,939.3213 L899.25,949.3213 L909.25,949.3213 L899.25,939.3213 " fill="#FBFB77" style="stroke: #A80036; stroke-width: 1.0;"/><text fill="#000000" font-family="sans-serif" font-size="13" font-style="italic" lengthAdjust="spacingAndGlyphs" textLength="36" x="670.25" y="956.3882">pickle</text><text fill="#000000" font-family="sans-serif" font-size="13" lengthAdjust="spacingAndGlyphs" textLength="184" x="710.25" y="956.3882">currently disable for security,</text><text fill="#000000" font-family="sans-serif" font-size="13" lengthAdjust="spacingAndGlyphs" textLength="100" x="670.25" y="971.521">adds nothing to</text><text fill="#000000" font-family="sans-serif" font-size="13" font-style="italic" lengthAdjust="spacingAndGlyphs" textLength="26" x="774.25" y="971.521">json</text><text fill="#000000" font-family="sans-serif" font-size="13" lengthAdjust="spacingAndGlyphs" textLength="4" x="800.25" y="971.521">.</text><rect fill="#FEFECE" filter="url(#f19h3blzx5uyje)" height="33.9688" rx="12.5" ry="12.5" style="stroke: #A80036; stroke-width: 1.5;" width="221" x="423.25" y="942.4697"/><text fill="#000000" font-family="sans-serif" font-size="12" lengthAdjust="spacingAndGlyphs" textLength="118" x="433.25" y="963.6084">saves dictionary to</text><text fill="#000000" font-family="sans-serif" font-size="12" font-style="italic" lengthAdjust="spacingAndGlyphs" textLength="36" x="555.25" y="963.6084">pickle</text><text fill="#000000" font-family="sans-serif" font-size="12" lengthAdjust="spacingAndGlyphs" textLength="39" x="595.25" y="963.6084">object</text><polygon fill="#FEFECE" filter="url(#f19h3blzx5uyje)" points="420.25,985.5869,432.25,997.5869,420.25,1009.5869,408.25,997.5869,420.25,985.5869" style="stroke: #A80036; stroke-width: 1.5;"/><ellipse cx="420.25" cy="1040.5869" fill="#FFFFFF" filter="url(#f19h3blzx5uyje)" rx="11" ry="11" style="stroke: #000000; stroke-width: 1.0;"/><ellipse cx="420.25" cy="1040.5869" fill="#000000" rx="6" ry="6" style="stroke: #7F7F7F; stroke-width: 1.0;"/><line style="stroke: #A80036; stroke-width: 1.5;" x1="420.25" x2="420.25" y1="30" y2="50"/><polygon fill="#A80036" points="416.25,40,420.25,50,424.25,40,420.25,44" style="stroke: #A80036; stroke-width: 1.0;"/><line style="stroke: #A80036; stroke-width: 1.5;" x1="420.25" x2="420.25" y1="168.0361" y2="191.1846"/><polygon fill="#A80036" points="416.25,181.1846,420.25,191.1846,424.25,181.1846,420.25,185.1846" style="stroke: #A80036; stroke-width: 1.0;"/><line style="stroke: #A80036; stroke-width: 1.5;" x1="420.25" x2="420.25" y1="225.1533" y2="248.3018"/><polygon fill="#A80036" points="416.25,238.3018,420.25,248.3018,424.25,238.3018,420.25,242.3018" style="stroke: #A80036; stroke-width: 1.0;"/><line style="stroke: #A80036; stroke-width: 1.5;" x1="420.25" x2="420.25" y1="282.2705" y2="305.4189"/><polygon fill="#A80036" points="416.25,295.4189,420.25,305.4189,424.25,295.4189,420.25,299.4189" style="stroke: #A80036; stroke-width: 1.0;"/><line style="stroke: #A80036; stroke-width: 1.5;" x1="420.25" x2="420.25" y1="83.9688" y2="134.0674"/><polygon fill="#A80036" points="416.25,124.0674,420.25,134.0674,424.25,124.0674,420.25,128.0674" style="stroke: #A80036; stroke-width: 1.0;"/><line style="stroke: #A80036; stroke-width: 1.5;" x1="311.25" x2="311.25" y1="439.3564" y2="459.3564"/><polygon fill="#A80036" points="307.25,449.3564,311.25,459.3564,315.25,449.3564,311.25,453.3564" style="stroke: #A80036; stroke-width: 1.0;"/><line style="stroke: #A80036; stroke-width: 1.5;" x1="379.75" x2="311.25" y1="383.3877" y2="383.3877"/><line style="stroke: #A80036; stroke-width: 1.5;" x1="311.25" x2="311.25" y1="383.3877" y2="405.3877"/><polygon fill="#A80036" points="307.25,395.3877,311.25,405.3877,315.25,395.3877,311.25,399.3877" style="stroke: #A80036; stroke-width: 1.0;"/><line style="stroke: #A80036; stroke-width: 1.5;" x1="460.75" x2="529.25" y1="383.3877" y2="383.3877"/><line style="stroke: #A80036; stroke-width: 1.5;" x1="529.25" x2="529.25" y1="383.3877" y2="405.3877"/><polygon fill="#A80036" points="525.25,395.3877,529.25,405.3877,533.25,395.3877,529.25,399.3877" style="stroke: #A80036; stroke-width: 1.0;"/><line style="stroke: #A80036; stroke-width: 1.5;" x1="311.25" x2="311.25" y1="493.3252" y2="511.3252"/><line style="stroke: #A80036; stroke-width: 1.5;" x1="311.25" x2="408.25" y1="511.3252" y2="511.3252"/><polygon fill="#A80036" points="398.25,507.3252,408.25,511.3252,398.25,515.3252,402.25,511.3252" style="stroke: #A80036; stroke-width: 1.0;"/><line style="stroke: #A80036; stroke-width: 1.5;" x1="529.25" x2="529.25" y1="439.3564" y2="511.3252"/><line style="stroke: #A80036; stroke-width: 1.5;" x1="529.25" x2="432.25" y1="511.3252" y2="511.3252"/><polygon fill="#A80036" points="442.25,507.3252,432.25,511.3252,442.25,515.3252,438.25,511.3252" style="stroke: #A80036; stroke-width: 1.0;"/><line style="stroke: #A80036; stroke-width: 1.5;" x1="420.25" x2="420.25" y1="339.3877" y2="371.3877"/><polygon fill="#A80036" points="416.25,361.3877,420.25,371.3877,424.25,361.3877,420.25,365.3877" style="stroke: #A80036; stroke-width: 1.0;"/><line style="stroke: #A80036; stroke-width: 1.5;" x1="378.25" x2="313" y1="555.3252" y2="555.3252"/><line style="stroke: #A80036; stroke-width: 1.5;" x1="313" x2="313" y1="555.3252" y2="577.3252"/><polygon fill="#A80036" points="309,567.3252,313,577.3252,317,567.3252,313,571.3252" style="stroke: #A80036; stroke-width: 1.0;"/><line style="stroke: #A80036; stroke-width: 1.5;" x1="462.25" x2="527.5" y1="555.3252" y2="555.3252"/><line style="stroke: #A80036; stroke-width: 1.5;" x1="527.5" x2="527.5" y1="555.3252" y2="577.3252"/><polygon fill="#A80036" points="523.5,567.3252,527.5,577.3252,531.5,567.3252,527.5,571.3252" style="stroke: #A80036; stroke-width: 1.0;"/><line style="stroke: #A80036; stroke-width: 1.5;" x1="313" x2="313" y1="639.2314" y2="657.2314"/><line style="stroke: #A80036; stroke-width: 1.5;" x1="313" x2="408.25" y1="657.2314" y2="657.2314"/><polygon fill="#A80036" points="398.25,653.2314,408.25,657.2314,398.25,661.2314,402.25,657.2314" style="stroke: #A80036; stroke-width: 1.0;"/><line style="stroke: #A80036; stroke-width: 1.5;" x1="527.5" x2="527.5" y1="611.2939" y2="657.2314"/><line style="stroke: #A80036; stroke-width: 1.5;" x1="527.5" x2="432.25" y1="657.2314" y2="657.2314"/><polygon fill="#A80036" points="442.25,653.2314,432.25,657.2314,442.25,661.2314,438.25,657.2314" style="stroke: #A80036; stroke-width: 1.0;"/><line style="stroke: #A80036; stroke-width: 1.5;" x1="420.25" x2="420.25" y1="523.3252" y2="543.3252"/><polygon fill="#A80036" points="416.25,533.3252,420.25,543.3252,424.25,533.3252,420.25,537.3252" style="stroke: #A80036; stroke-width: 1.0;"/><line style="stroke: #A80036; stroke-width: 1.5;" x1="420.25" x2="420.25" y1="749.2002" y2="783.4463"/><polygon fill="#A80036" points="416.25,773.4463,420.25,783.4463,424.25,773.4463,420.25,777.4463" style="stroke: #A80036; stroke-width: 1.0;"/><line style="stroke: #A80036; stroke-width: 1.5;" x1="420.25" x2="420.25" y1="695.2314" y2="715.2314"/><polygon fill="#A80036" points="416.25,705.2314,420.25,715.2314,424.25,705.2314,420.25,709.2314" style="stroke: #A80036; stroke-width: 1.0;"/><line style="stroke: #A80036; stroke-width: 1.5;" x1="420.25" x2="420.25" y1="859.3213" y2="879.3213"/><polygon fill="#A80036" points="416.25,869.3213,420.25,879.3213,424.25,869.3213,420.25,873.3213" style="stroke: #A80036; stroke-width: 1.0;"/><line style="stroke: #A80036; stroke-width: 1.5;" x1="420.25" x2="420.25" y1="669.2314" y2="689.2314"/><polygon fill="#A80036" points="416.25,679.2314,420.25,689.2314,424.25,679.2314,420.25,683.2314" style="stroke: #A80036; stroke-width: 1.0;"/><line style="stroke: #A80036; stroke-width: 1.5;" x1="359.25" x2="306.75" y1="917.3213" y2="917.3213"/><line style="stroke: #A80036; stroke-width: 1.5;" x1="306.75" x2="306.75" y1="917.3213" y2="939.3213"/><polygon fill="#A80036" points="302.75,929.3213,306.75,939.3213,310.75,929.3213,306.75,933.3213" style="stroke: #A80036; stroke-width: 1.0;"/><line style="stroke: #A80036; stroke-width: 1.5;" x1="481.25" x2="533.75" y1="917.3213" y2="917.3213"/><line style="stroke: #A80036; stroke-width: 1.5;" x1="533.75" x2="533.75" y1="917.3213" y2="942.4697"/><polygon fill="#A80036" points="529.75,932.4697,533.75,942.4697,537.75,932.4697,533.75,936.4697" style="stroke: #A80036; stroke-width: 1.0;"/><line style="stroke: #A80036; stroke-width: 1.5;" x1="306.75" x2="306.75" y1="973.29" y2="997.5869"/><line style="stroke: #A80036; stroke-width: 1.5;" x1="306.75" x2="408.25" y1="997.5869" y2="997.5869"/><polygon fill="#A80036" points="398.25,993.5869,408.25,997.5869,398.25,1001.5869,402.25,997.5869" style="stroke: #A80036; stroke-width: 1.0;"/><line style="stroke: #A80036; stroke-width: 1.5;" x1="533.75" x2="533.75" y1="976.4385" y2="997.5869"/><line style="stroke: #A80036; stroke-width: 1.5;" x1="533.75" x2="432.25" y1="997.5869" y2="997.5869"/><polygon fill="#A80036" points="442.25,993.5869,432.25,997.5869,442.25,1001.5869,438.25,997.5869" style="stroke: #A80036; stroke-width: 1.0;"/><line style="stroke: #A80036; stroke-width: 1.5;" x1="420.25" x2="420.25" y1="885.3213" y2="905.3213"/><polygon fill="#A80036" points="416.25,895.3213,420.25,905.3213,424.25,895.3213,420.25,899.3213" style="stroke: #A80036; stroke-width: 1.0;"/><line style="stroke: #A80036; stroke-width: 1.5;" x1="420.25" x2="420.25" y1="1009.5869" y2="1029.5869"/><polygon fill="#A80036" points="416.25,1019.5869,420.25,1029.5869,424.25,1019.5869,420.25,1023.5869" style="stroke: #A80036; stroke-width: 1.0;"/><!--MD5=[f80a4e46f309d962dc2049c9b605f883]
@startuml

start

:idpconfgen //sscalc//;

partition #LIGHTGREY Examples {
    #WHITE:$ idpconfgen sscalc mkdssp filtered_pdbs/ -o dssp.json -n;
    note right
        where //filtered_pdbs// is a folder
        containing //*.pdb// files.
    end note
    #WHITE:$ idpconfgen sscalc mkdssp filtered_pdbs.tar -o dssp.json -n;
    note right
        where //filtered_pdb.tar// is a
        tarfile containing pdb files.
    end note
    #WHITE:$ idpconfgen sscalc mkdssp filtered_pdbs.tar -o dssp.json [-r|- -reduced] -n;
    note right
        //reduced// converts all
        DSSP tags to H, E, or L/
    end note
    #WHITE:$ idpconfgen sscalc mkdssp filtered_pdbs.tar -o dssp.json - -complete previous_dssp.json -n;
    }

if (input data) then (tar file)
    :unpack tar to tmp dir;
    note left
        uses only //.pdb// files
    end note
    :tmp dir is deleted at the end;
else (folder)
    :uses //.pdb// files in that folder;
endif

if (- -complete) then (reads previous)
    :reads previous //sscalc//
    information file, and completes
    it with the new calculation;
    note left
        Entries with the same ID
        are overwritten;
    end note
else (not given)
    :starts a blank output file;
endif

fork

:subprocess //mkdssp// on each PDB;
:collects:
        residue number
        Sec Str character
        FASTA character;
end fork
note right #whitesmoke
    This process is performed in parallel
    where cores extract PDBs from the queue
    until the queue is exhausted
end note

if (save data to disk) then (JSON)
    :saves dictionary to //.json// file;
else (PICKLE)
    :saves dictionary to //pickle// object;
    note right
        //pickle// currently disable for security,
        adds nothing to //json//.
    end note
endif

stop

@enduml

PlantUML version 1.2020.05(Thu Mar 19 17:17:32 EDT 2020)
(GPL source distribution)
Java Runtime: OpenJDK Runtime Environment
JVM: OpenJDK 64-Bit Server VM
Java Version: 11.0.7+10-post-Ubuntu-2ubuntu218.04
Operating System: Linux
Default Encoding: UTF-8
Language: en
Country: US
--></g></svg>