<?xml version="1.0" encoding="UTF-8" standalone="no"?><svg xmlns="http://www.w3.org/2000/svg" xmlns:xlink="http://www.w3.org/1999/xlink" contentScriptType="application/ecmascript" contentStyleType="text/css" height="1445px" preserveAspectRatio="none" style="width:1085px;height:1445px;" version="1.1" viewBox="0 0 1085 1445" width="1085px" zoomAndPan="magnify"><defs><filter height="300%" id="ftrxabfqlzq69" width="300%" x="-1" y="-1"><feGaussianBlur result="blurOut" stdDeviation="2.0"/><feColorMatrix in="blurOut" result="blurOut2" type="matrix" values="0 0 0 0 0 0 0 0 0 0 0 0 0 0 0 0 0 0 .4 0"/><feOffset dx="4.0" dy="4.0" in="blurOut2" result="blurOut3"/><feBlend in="SourceGraphic" in2="blurOut3" mode="normal"/></filter></defs><g><ellipse cx="420.25" cy="20" fill="#000000" filter="url(#ftrxabfqlzq69)" rx="10" ry="10" style="stroke: none; stroke-width: 1.0;"/><path d="M505.75,40 L505.75,71.2656 L485.75,75.2656 L505.75,79.2656 L505.75,110.5313 A0,0 0 0 0 505.75,110.5313 L818.75,110.5313 A0,0 0 0 0 818.75,110.5313 L818.75,50 L808.75,40 L505.75,40 A0,0 0 0 0 505.75,40 " fill="#FBFB77" filter="url(#ftrxabfqlzq69)" style="stroke: #A80036; stroke-width: 1.0;"/><path d="M808.75,40 L808.75,50 L818.75,50 L808.75,40 " fill="#FBFB77" style="stroke: #A80036; stroke-width: 1.0;"/><text fill="#000000" font-family="sans-serif" font-size="13" lengthAdjust="spacingAndGlyphs" textLength="172" x="511.75" y="57.0669">This pipeline currently uses</text><text fill="#000000" font-family="sans-serif" font-size="13" font-style="italic" lengthAdjust="spacingAndGlyphs" textLength="50" x="687.75" y="57.0669">mkdssp</text><text fill="#000000" font-family="sans-serif" font-size="13" lengthAdjust="spacingAndGlyphs" textLength="292" x="511.75" y="72.1997">but can be configured to others by dispaching</text><text fill="#000000" font-family="sans-serif" font-size="13" lengthAdjust="spacingAndGlyphs" textLength="278" x="511.75" y="87.3325">different functions without altering the main</text><text fill="#000000" font-family="sans-serif" font-size="13" lengthAdjust="spacingAndGlyphs" textLength="49" x="511.75" y="102.4653">pipeline</text><rect fill="#FEFECE" filter="url(#ftrxabfqlzq69)" height="33.9688" rx="12.5" ry="12.5" style="stroke: #A80036; stroke-width: 1.5;" width="131" x="354.75" y="58.2813"/><text fill="#000000" font-family="sans-serif" font-size="12" lengthAdjust="spacingAndGlyphs" textLength="70" x="364.75" y="79.4199">idpconfgen</text><text fill="#000000" font-family="sans-serif" font-size="12" font-style="italic" lengthAdjust="spacingAndGlyphs" textLength="37" x="438.75" y="79.4199">sscalc</text><rect fill="#D3D3D3" filter="url(#ftrxabfqlzq69)" height="256.6172" style="stroke: #000000; stroke-width: 2.0;" width="752" x="113.75" y="121.333"/><path d="M189.75,122.333 L189.75,130.6299 L179.75,140.6299 L113.75,140.6299 " fill="none" style="stroke: #000000; stroke-width: 2.0;"/><text fill="#000000" font-family="sans-serif" font-size="14" lengthAdjust="spacingAndGlyphs" textLength="66" x="116.75" y="135.3281">Examples</text><path d="M631.25,157.4814 L631.25,173.6143 L611.25,177.6143 L631.25,181.6143 L631.25,197.7471 A0,0 0 0 0 631.25,197.7471 L842.25,197.7471 A0,0 0 0 0 842.25,197.7471 L842.25,167.4814 L832.25,157.4814 L631.25,157.4814 A0,0 0 0 0 631.25,157.4814 " fill="#FBFB77" filter="url(#ftrxabfqlzq69)" style="stroke: #A80036; stroke-width: 1.0;"/><path d="M832.25,157.4814 L832.25,167.4814 L842.25,167.4814 L832.25,157.4814 " fill="#FBFB77" style="stroke: #A80036; stroke-width: 1.0;"/><text fill="#000000" font-family="sans-serif" font-size="13" lengthAdjust="spacingAndGlyphs" textLength="38" x="637.25" y="174.5483">where</text><text fill="#000000" font-family="sans-serif" font-size="13" font-style="italic" lengthAdjust="spacingAndGlyphs" textLength="82" x="679.25" y="174.5483">filtered_pdbs</text><text fill="#000000" font-family="sans-serif" font-size="13" lengthAdjust="spacingAndGlyphs" textLength="62" x="765.25" y="174.5483">is a folder</text><text fill="#000000" font-family="sans-serif" font-size="13" lengthAdjust="spacingAndGlyphs" textLength="66" x="637.25" y="189.6812">containing</text><text fill="#000000" font-family="sans-serif" font-size="13" font-style="italic" lengthAdjust="spacingAndGlyphs" textLength="35" x="707.25" y="189.6812">*.pdb</text><text fill="#000000" font-family="sans-serif" font-size="13" lengthAdjust="spacingAndGlyphs" textLength="29" x="746.25" y="189.6812">files.</text><rect fill="#FFFFFF" filter="url(#ftrxabfqlzq69)" height="33.9688" rx="12.5" ry="12.5" style="stroke: #A80036; stroke-width: 1.5;" width="382" x="229.25" y="160.6299"/><text fill="#000000" font-family="sans-serif" font-size="12" lengthAdjust="spacingAndGlyphs" textLength="362" x="239.25" y="181.7686">$ idpconfgen sscalc mkdssp filtered_pdbs/ -o dssp.json -n</text><path d="M640.25,214.5986 L640.25,230.7314 L620.25,234.7314 L640.25,238.7314 L640.25,254.8643 A0,0 0 0 0 640.25,254.8643 L828.25,254.8643 A0,0 0 0 0 828.25,254.8643 L828.25,224.5986 L818.25,214.5986 L640.25,214.5986 A0,0 0 0 0 640.25,214.5986 " fill="#FBFB77" filter="url(#ftrxabfqlzq69)" style="stroke: #A80036; stroke-width: 1.0;"/><path d="M818.25,214.5986 L818.25,224.5986 L828.25,224.5986 L818.25,214.5986 " fill="#FBFB77" style="stroke: #A80036; stroke-width: 1.0;"/><text fill="#000000" font-family="sans-serif" font-size="13" lengthAdjust="spacingAndGlyphs" textLength="38" x="646.25" y="231.6655">where</text><text fill="#000000" font-family="sans-serif" font-size="13" font-style="italic" lengthAdjust="spacingAndGlyphs" textLength="97" x="688.25" y="231.6655">filtered_pdb.tar</text><text fill="#000000" font-family="sans-serif" font-size="13" lengthAdjust="spacingAndGlyphs" textLength="22" x="789.25" y="231.6655">is a</text><text fill="#000000" font-family="sans-serif" font-size="13" lengthAdjust="spacingAndGlyphs" textLength="167" x="646.25" y="246.7983">tarfile containing pdb files.</text><rect fill="#FFFFFF" filter="url(#ftrxabfqlzq69)" height="33.9688" rx="12.5" ry="12.5" style="stroke: #A80036; stroke-width: 1.5;" width="400" x="220.25" y="217.7471"/><text fill="#000000" font-family="sans-serif" font-size="12" lengthAdjust="spacingAndGlyphs" textLength="380" x="230.25" y="238.8857">$ idpconfgen sscalc mkdssp filtered_pdbs.tar -o dssp.json -n</text><path d="M687.75,271.7158 L687.75,287.8486 L667.75,291.8486 L687.75,295.8486 L687.75,311.9814 A0,0 0 0 0 687.75,311.9814 L855.75,311.9814 A0,0 0 0 0 855.75,311.9814 L855.75,281.7158 L845.75,271.7158 L687.75,271.7158 A0,0 0 0 0 687.75,271.7158 " fill="#FBFB77" filter="url(#ftrxabfqlzq69)" style="stroke: #A80036; stroke-width: 1.0;"/><path d="M845.75,271.7158 L845.75,281.7158 L855.75,281.7158 L845.75,271.7158 " fill="#FBFB77" style="stroke: #A80036; stroke-width: 1.0;"/><text fill="#000000" font-family="sans-serif" font-size="13" font-style="italic" lengthAdjust="spacingAndGlyphs" textLength="52" x="693.75" y="288.7827">reduced</text><text fill="#000000" font-family="sans-serif" font-size="13" lengthAdjust="spacingAndGlyphs" textLength="73" x="749.75" y="288.7827">converts all</text><text fill="#000000" font-family="sans-serif" font-size="13" lengthAdjust="spacingAndGlyphs" textLength="147" x="693.75" y="303.9155">DSSP tags to H, E, or L</text><rect fill="#FFFFFF" filter="url(#ftrxabfqlzq69)" height="33.9688" rx="12.5" ry="12.5" style="stroke: #A80036; stroke-width: 1.5;" width="495" x="172.75" y="274.8643"/><text fill="#000000" font-family="sans-serif" font-size="12" lengthAdjust="spacingAndGlyphs" textLength="475" x="182.75" y="296.0029">$ idpconfgen sscalc mkdssp filtered_pdbs.tar -o dssp.json [-rd|--reduced] -n</text><rect fill="#FFFFFF" filter="url(#ftrxabfqlzq69)" height="33.9688" rx="12.5" ry="12.5" style="stroke: #A80036; stroke-width: 1.5;" width="593" x="123.75" y="331.9814"/><text fill="#000000" font-family="sans-serif" font-size="12" lengthAdjust="spacingAndGlyphs" textLength="573" x="133.75" y="353.1201">$ idpconfgen sscalc mkdssp filtered_pdbs.tar -o dssp.json --complete previous_dssp.json -n</text><polygon fill="#FEFECE" filter="url(#ftrxabfqlzq69)" points="391.75,397.9502,448.75,397.9502,460.75,409.9502,448.75,421.9502,391.75,421.9502,379.75,409.9502,391.75,397.9502" style="stroke: #A80036; stroke-width: 1.5;"/><text fill="#000000" font-family="sans-serif" font-size="11" lengthAdjust="spacingAndGlyphs" textLength="57" x="391.75" y="413.7583">input data</text><text fill="#000000" font-family="sans-serif" font-size="11" lengthAdjust="spacingAndGlyphs" textLength="37" x="342.75" y="407.356">tar file</text><text fill="#000000" font-family="sans-serif" font-size="11" lengthAdjust="spacingAndGlyphs" textLength="33" x="460.75" y="407.356">folder</text><path d="M72.75,436.3682 L72.75,461.501 A0,0 0 0 0 72.75,461.501 L214.75,461.501 A0,0 0 0 0 214.75,461.501 L214.75,454.3682 L234.75,448.9346 L214.75,446.3682 L214.75,446.3682 L204.75,436.3682 L72.75,436.3682 A0,0 0 0 0 72.75,436.3682 " fill="#FBFB77" filter="url(#ftrxabfqlzq69)" style="stroke: #A80036; stroke-width: 1.0;"/><path d="M204.75,436.3682 L204.75,446.3682 L214.75,446.3682 L204.75,436.3682 " fill="#FBFB77" style="stroke: #A80036; stroke-width: 1.0;"/><text fill="#000000" font-family="sans-serif" font-size="13" lengthAdjust="spacingAndGlyphs" textLength="60" x="78.75" y="453.4351">uses only</text><text fill="#000000" font-family="sans-serif" font-size="13" font-style="italic" lengthAdjust="spacingAndGlyphs" textLength="28" x="142.75" y="453.4351">.pdb</text><text fill="#000000" font-family="sans-serif" font-size="13" lengthAdjust="spacingAndGlyphs" textLength="25" x="174.75" y="453.4351">files</text><rect fill="#FEFECE" filter="url(#ftrxabfqlzq69)" height="33.9688" rx="12.5" ry="12.5" style="stroke: #A80036; stroke-width: 1.5;" width="153" x="234.75" y="431.9502"/><text fill="#000000" font-family="sans-serif" font-size="12" lengthAdjust="spacingAndGlyphs" textLength="133" x="244.75" y="453.0889">unpack tar to tmp dir</text><rect fill="#FEFECE" filter="url(#ftrxabfqlzq69)" height="33.9688" rx="12.5" ry="12.5" style="stroke: #A80036; stroke-width: 1.5;" width="200" x="211.25" y="485.9189"/><text fill="#000000" font-family="sans-serif" font-size="12" lengthAdjust="spacingAndGlyphs" textLength="180" x="221.25" y="507.0576">tmp dir is deleted at the end</text><rect fill="#FEFECE" filter="url(#ftrxabfqlzq69)" height="33.9688" rx="12.5" ry="12.5" style="stroke: #A80036; stroke-width: 1.5;" width="196" x="431.25" y="431.9502"/><text fill="#000000" font-family="sans-serif" font-size="12" lengthAdjust="spacingAndGlyphs" textLength="30" x="441.25" y="453.0889">uses</text><text fill="#000000" font-family="sans-serif" font-size="12" font-style="italic" lengthAdjust="spacingAndGlyphs" textLength="28" x="475.25" y="453.0889">.pdb</text><text fill="#000000" font-family="sans-serif" font-size="12" lengthAdjust="spacingAndGlyphs" textLength="110" x="507.25" y="453.0889">files in that folder</text><polygon fill="#FEFECE" filter="url(#ftrxabfqlzq69)" points="420.25,525.8877,432.25,537.8877,420.25,549.8877,408.25,537.8877,420.25,525.8877" style="stroke: #A80036; stroke-width: 1.5;"/><polygon fill="#FEFECE" filter="url(#ftrxabfqlzq69)" points="390.25,569.8877,450.25,569.8877,462.25,581.8877,450.25,593.8877,390.25,593.8877,378.25,581.8877,390.25,569.8877" style="stroke: #A80036; stroke-width: 1.5;"/><text fill="#000000" font-family="sans-serif" font-size="11" lengthAdjust="spacingAndGlyphs" textLength="60" x="390.25" y="585.6958">--complete</text><text fill="#000000" font-family="sans-serif" font-size="11" lengthAdjust="spacingAndGlyphs" textLength="86" x="292.25" y="579.2935">reads previous</text><text fill="#000000" font-family="sans-serif" font-size="11" lengthAdjust="spacingAndGlyphs" textLength="52" x="462.25" y="579.2935">not given</text><path d="M10,614.708 L10,654.9736 A0,0 0 0 0 10,654.9736 L186,654.9736 A0,0 0 0 0 186,654.9736 L186,638.8408 L206,634.8408 L186,630.8408 L186,624.708 L176,614.708 L10,614.708 A0,0 0 0 0 10,614.708 " fill="#FBFB77" filter="url(#ftrxabfqlzq69)" style="stroke: #A80036; stroke-width: 1.0;"/><path d="M176,614.708 L176,624.708 L186,624.708 L176,614.708 " fill="#FBFB77" style="stroke: #A80036; stroke-width: 1.0;"/><text fill="#000000" font-family="sans-serif" font-size="13" lengthAdjust="spacingAndGlyphs" textLength="155" x="16" y="631.7749">Entries with the same ID</text><text fill="#000000" font-family="sans-serif" font-size="13" lengthAdjust="spacingAndGlyphs" textLength="96" x="16" y="646.9077">are overwritten</text><rect fill="#FEFECE" filter="url(#ftrxabfqlzq69)" height="61.9063" rx="12.5" ry="12.5" style="stroke: #A80036; stroke-width: 1.5;" width="214" x="206" y="603.8877"/><text fill="#000000" font-family="sans-serif" font-size="12" lengthAdjust="spacingAndGlyphs" textLength="93" x="216" y="625.0264">reads previous</text><text fill="#000000" font-family="sans-serif" font-size="12" font-style="italic" lengthAdjust="spacingAndGlyphs" textLength="37" x="313" y="625.0264">sscalc</text><text fill="#000000" font-family="sans-serif" font-size="12" lengthAdjust="spacingAndGlyphs" textLength="194" x="216" y="638.9951">information file, and completes</text><text fill="#000000" font-family="sans-serif" font-size="12" lengthAdjust="spacingAndGlyphs" textLength="163" x="216" y="652.9639">it with the new calculation</text><rect fill="#FEFECE" filter="url(#ftrxabfqlzq69)" height="33.9688" rx="12.5" ry="12.5" style="stroke: #A80036; stroke-width: 1.5;" width="175" x="440" y="603.8877"/><text fill="#000000" font-family="sans-serif" font-size="12" lengthAdjust="spacingAndGlyphs" textLength="155" x="450" y="625.0264">starts a blank output file</text><polygon fill="#FEFECE" filter="url(#ftrxabfqlzq69)" points="420.25,671.7939,432.25,683.7939,420.25,695.7939,408.25,683.7939,420.25,671.7939" style="stroke: #A80036; stroke-width: 1.5;"/><path d="M785.125,993.8564 L785.125,1049.2549 L1073.125,1049.2549 L1073.125,1003.8564 L1063.125,993.8564 L785.125,993.8564 " fill="#F5F5F5" filter="url(#ftrxabfqlzq69)" style="stroke: #A80036; stroke-width: 1.0;"/><path d="M1063.125,993.8564 L1063.125,1003.8564 L1073.125,1003.8564 L1063.125,993.8564 " fill="#F5F5F5" style="stroke: #A80036; stroke-width: 1.0;"/><text fill="#000000" font-family="sans-serif" font-size="13" lengthAdjust="spacingAndGlyphs" textLength="229" x="791.125" y="1010.9233">This process is performed in parallel</text><text fill="#000000" font-family="sans-serif" font-size="13" lengthAdjust="spacingAndGlyphs" textLength="267" x="791.125" y="1026.0562">where cores extract PDBs from the queue</text><text fill="#000000" font-family="sans-serif" font-size="13" lengthAdjust="spacingAndGlyphs" textLength="181" x="791.125" y="1041.189">until the queue is exhausted</text><rect fill="#000000" filter="url(#ftrxabfqlzq69)" height="6" rx="2.5" ry="2.5" style="stroke: #000000; stroke-width: 1.0;" width="689.75" x="75.375" y="715.7939"/><path d="M504.125,738.6455 L504.125,754.7783 L484.125,758.7783 L504.125,762.7783 L504.125,778.9111 A0,0 0 0 0 504.125,778.9111 L689.125,778.9111 A0,0 0 0 0 689.125,778.9111 L689.125,748.6455 L679.125,738.6455 L504.125,738.6455 A0,0 0 0 0 504.125,738.6455 " fill="#FBFB77" filter="url(#ftrxabfqlzq69)" style="stroke: #A80036; stroke-width: 1.0;"/><path d="M679.125,738.6455 L679.125,748.6455 L689.125,748.6455 L679.125,738.6455 " fill="#FBFB77" style="stroke: #A80036; stroke-width: 1.0;"/><text fill="#000000" font-family="sans-serif" font-size="13" lengthAdjust="spacingAndGlyphs" textLength="164" x="510.125" y="755.7124">At this stage, single chain</text><text fill="#000000" font-family="sans-serif" font-size="13" lengthAdjust="spacingAndGlyphs" textLength="126" x="510.125" y="770.8452">PDBs are expected;</text><rect fill="#FEFECE" filter="url(#ftrxabfqlzq69)" height="33.9688" rx="12.5" ry="12.5" style="stroke: #A80036; stroke-width: 1.5;" width="218" x="266.125" y="741.7939"/><text fill="#000000" font-family="sans-serif" font-size="12" lengthAdjust="spacingAndGlyphs" textLength="73" x="276.125" y="762.9326">subprocess</text><text fill="#000000" font-family="sans-serif" font-size="12" font-style="italic" lengthAdjust="spacingAndGlyphs" textLength="46" x="353.125" y="762.9326">mkdssp</text><text fill="#000000" font-family="sans-serif" font-size="12" lengthAdjust="spacingAndGlyphs" textLength="71" x="403.125" y="762.9326">for the PDB</text><path d="M502.125,802.7471 L502.125,818.8799 L482.125,822.8799 L502.125,826.8799 L502.125,843.0127 A0,0 0 0 0 502.125,843.0127 L751.125,843.0127 A0,0 0 0 0 751.125,843.0127 L751.125,812.7471 L741.125,802.7471 L502.125,802.7471 A0,0 0 0 0 502.125,802.7471 " fill="#FBFB77" filter="url(#ftrxabfqlzq69)" style="stroke: #A80036; stroke-width: 1.0;"/><path d="M741.125,802.7471 L741.125,812.7471 L751.125,812.7471 L741.125,802.7471 " fill="#FBFB77" style="stroke: #A80036; stroke-width: 1.0;"/><text fill="#000000" font-family="sans-serif" font-size="13" lengthAdjust="spacingAndGlyphs" textLength="228" x="508.125" y="819.814">This considers also carbonyl oxigen,</text><text fill="#000000" font-family="sans-serif" font-size="13" lengthAdjust="spacingAndGlyphs" textLength="216" x="508.125" y="834.9468">different from my initial approach;</text><rect fill="#FEFECE" filter="url(#ftrxabfqlzq69)" height="47.9375" rx="12.5" ry="12.5" style="stroke: #A80036; stroke-width: 1.5;" width="214" x="268.125" y="798.9111"/><text fill="#000000" font-family="sans-serif" font-size="12" lengthAdjust="spacingAndGlyphs" textLength="194" x="278.125" y="820.0498">identify backbone discontinuity</text><text fill="#000000" font-family="sans-serif" font-size="12" lengthAdjust="spacingAndGlyphs" textLength="107" x="294.125" y="834.0186">as given by DSSP</text><rect fill="#FEFECE" filter="url(#ftrxabfqlzq69)" height="75.875" rx="12.5" ry="12.5" style="stroke: #A80036; stroke-width: 1.5;" width="162" x="294.125" y="866.8486"/><text fill="#000000" font-family="sans-serif" font-size="12" lengthAdjust="spacingAndGlyphs" textLength="52" x="304.125" y="887.9873">collects:</text><text fill="#000000" font-family="sans-serif" font-size="12" lengthAdjust="spacingAndGlyphs" textLength="99" x="336.125" y="901.9561">residue number</text><text fill="#000000" font-family="sans-serif" font-size="12" lengthAdjust="spacingAndGlyphs" textLength="110" x="336.125" y="915.9248">Sec Str character</text><text fill="#000000" font-family="sans-serif" font-size="12" lengthAdjust="spacingAndGlyphs" textLength="103" x="336.125" y="929.8936">FASTA character</text><rect fill="#FEFECE" filter="url(#ftrxabfqlzq69)" height="33.9688" rx="12.5" ry="12.5" style="stroke: #A80036; stroke-width: 1.5;" width="103" x="323.625" y="962.7236"/><text fill="#000000" font-family="sans-serif" font-size="12" lengthAdjust="spacingAndGlyphs" textLength="83" x="333.625" y="983.8623">open PDB file</text><polygon fill="#FEFECE" filter="url(#ftrxabfqlzq69)" points="125.375,1075.6924,214.375,1075.6924,226.375,1087.6924,214.375,1099.6924,125.375,1099.6924,113.375,1087.6924,125.375,1075.6924" style="stroke: #A80036; stroke-width: 1.5;"/><text fill="#000000" font-family="sans-serif" font-size="11" lengthAdjust="spacingAndGlyphs" textLength="66" x="173.875" y="1109.9028">&lt; minimum</text><text fill="#000000" font-family="sans-serif" font-size="11" lengthAdjust="spacingAndGlyphs" textLength="89" x="125.375" y="1091.5005">length segment</text><rect fill="#FEFECE" filter="url(#ftrxabfqlzq69)" height="33.9688" rx="12.5" ry="12.5" style="stroke: #A80036; stroke-width: 1.5;" width="60" x="139.875" y="1131.4028"/><text fill="#000000" font-family="sans-serif" font-size="12" lengthAdjust="spacingAndGlyphs" textLength="40" x="149.875" y="1152.5415">ignore</text><ellipse cx="169.875" cy="1210.3716" fill="#FFFFFF" filter="url(#ftrxabfqlzq69)" rx="10" ry="10" style="stroke: #000000; stroke-width: 1.5;"/><line style="stroke: #000000; stroke-width: 2.5;" x1="163.6878" x2="176.0622" y1="1204.1844" y2="1216.5588"/><line style="stroke: #000000; stroke-width: 2.5;" x1="176.0622" x2="163.6878" y1="1204.1844" y2="1216.5588"/><polygon fill="#FEFECE" filter="url(#ftrxabfqlzq69)" points="267.875,1075.6924,311.875,1075.6924,323.875,1087.6924,311.875,1099.6924,267.875,1099.6924,255.875,1087.6924,267.875,1075.6924" style="stroke: #A80036; stroke-width: 1.5;"/><text fill="#000000" font-family="sans-serif" font-size="11" lengthAdjust="spacingAndGlyphs" textLength="85" x="293.875" y="1109.9028">are all HETATM</text><text fill="#000000" font-family="sans-serif" font-size="11" lengthAdjust="spacingAndGlyphs" textLength="44" x="267.875" y="1091.5005">records</text><text fill="#000000" font-family="sans-serif" font-size="11" lengthAdjust="spacingAndGlyphs" textLength="45" x="323.875" y="1085.0981">all good</text><rect fill="#FEFECE" filter="url(#ftrxabfqlzq69)" height="33.9688" rx="12.5" ry="12.5" style="stroke: #A80036; stroke-width: 1.5;" width="60" x="259.875" y="1131.4028"/><text fill="#000000" font-family="sans-serif" font-size="12" lengthAdjust="spacingAndGlyphs" textLength="40" x="269.875" y="1152.5415">ignore</text><ellipse cx="289.875" cy="1210.3716" fill="#FFFFFF" filter="url(#ftrxabfqlzq69)" rx="10" ry="10" style="stroke: #000000; stroke-width: 1.5;"/><line style="stroke: #000000; stroke-width: 2.5;" x1="283.6878" x2="296.0622" y1="1204.1844" y2="1216.5588"/><line style="stroke: #000000; stroke-width: 2.5;" x1="296.0622" x2="283.6878" y1="1204.1844" y2="1216.5588"/><rect fill="#FEFECE" filter="url(#ftrxabfqlzq69)" height="33.9688" rx="12.5" ry="12.5" style="stroke: #A80036; stroke-width: 1.5;" width="242" x="394.875" y="1155.5005"/><text fill="#000000" font-family="sans-serif" font-size="12" lengthAdjust="spacingAndGlyphs" textLength="222" x="404.875" y="1176.6392">saves segment from PDB in new file</text><polygon fill="#FEFECE" filter="url(#ftrxabfqlzq69)" points="295.625,1031.6924,454.625,1031.6924,466.625,1043.6924,454.625,1055.6924,295.625,1055.6924,283.625,1043.6924,295.625,1031.6924" style="stroke: #A80036; stroke-width: 1.5;"/><text fill="#000000" font-family="sans-serif" font-size="11" lengthAdjust="spacingAndGlyphs" textLength="159" x="295.625" y="1047.5005">for each backbone segment</text><text fill="#000000" font-family="sans-serif" font-size="11" lengthAdjust="spacingAndGlyphs" textLength="109" x="174.625" y="1041.0981">no more segments</text><rect fill="#000000" filter="url(#ftrxabfqlzq69)" height="6" rx="2.5" ry="2.5" style="stroke: #000000; stroke-width: 1.0;" width="689.75" x="75.375" y="1262.3716"/><polygon fill="#FEFECE" filter="url(#ftrxabfqlzq69)" points="371.25,1288.3716,469.25,1288.3716,481.25,1300.3716,469.25,1312.3716,371.25,1312.3716,359.25,1300.3716,371.25,1288.3716" style="stroke: #A80036; stroke-width: 1.5;"/><text fill="#000000" font-family="sans-serif" font-size="11" lengthAdjust="spacingAndGlyphs" textLength="98" x="371.25" y="1304.1797">save data to disk</text><text fill="#000000" font-family="sans-serif" font-size="11" lengthAdjust="spacingAndGlyphs" textLength="28" x="331.25" y="1297.7773">JSON</text><text fill="#000000" font-family="sans-serif" font-size="11" lengthAdjust="spacingAndGlyphs" textLength="38" x="481.25" y="1297.7773">PICKLE</text><rect fill="#FEFECE" filter="url(#ftrxabfqlzq69)" height="33.9688" rx="12.5" ry="12.5" style="stroke: #A80036; stroke-width: 1.5;" width="193" x="210.25" y="1322.3716"/><text fill="#000000" font-family="sans-serif" font-size="12" lengthAdjust="spacingAndGlyphs" textLength="118" x="220.25" y="1343.5103">saves dictionary to</text><text fill="#000000" font-family="sans-serif" font-size="12" font-style="italic" lengthAdjust="spacingAndGlyphs" textLength="29" x="342.25" y="1343.5103">.json</text><text fill="#000000" font-family="sans-serif" font-size="12" lengthAdjust="spacingAndGlyphs" textLength="18" x="375.25" y="1343.5103">file</text><path d="M664.25,1322.3716 L664.25,1338.5044 L644.25,1342.5044 L664.25,1346.5044 L664.25,1362.6372 A0,0 0 0 0 664.25,1362.6372 L909.25,1362.6372 A0,0 0 0 0 909.25,1362.6372 L909.25,1332.3716 L899.25,1322.3716 L664.25,1322.3716 A0,0 0 0 0 664.25,1322.3716 " fill="#FBFB77" filter="url(#ftrxabfqlzq69)" style="stroke: #A80036; stroke-width: 1.0;"/><path d="M899.25,1322.3716 L899.25,1332.3716 L909.25,1332.3716 L899.25,1322.3716 " fill="#FBFB77" style="stroke: #A80036; stroke-width: 1.0;"/><text fill="#000000" font-family="sans-serif" font-size="13" font-style="italic" lengthAdjust="spacingAndGlyphs" textLength="36" x="670.25" y="1339.4385">pickle</text><text fill="#000000" font-family="sans-serif" font-size="13" lengthAdjust="spacingAndGlyphs" textLength="184" x="710.25" y="1339.4385">currently disable for security,</text><text fill="#000000" font-family="sans-serif" font-size="13" lengthAdjust="spacingAndGlyphs" textLength="100" x="670.25" y="1354.5713">adds nothing to</text><text fill="#000000" font-family="sans-serif" font-size="13" font-style="italic" lengthAdjust="spacingAndGlyphs" textLength="26" x="774.25" y="1354.5713">json</text><text fill="#000000" font-family="sans-serif" font-size="13" lengthAdjust="spacingAndGlyphs" textLength="4" x="800.25" y="1354.5713">.</text><rect fill="#FEFECE" filter="url(#ftrxabfqlzq69)" height="33.9688" rx="12.5" ry="12.5" style="stroke: #A80036; stroke-width: 1.5;" width="221" x="423.25" y="1325.52"/><text fill="#000000" font-family="sans-serif" font-size="12" lengthAdjust="spacingAndGlyphs" textLength="118" x="433.25" y="1346.6587">saves dictionary to</text><text fill="#000000" font-family="sans-serif" font-size="12" font-style="italic" lengthAdjust="spacingAndGlyphs" textLength="36" x="555.25" y="1346.6587">pickle</text><text fill="#000000" font-family="sans-serif" font-size="12" lengthAdjust="spacingAndGlyphs" textLength="39" x="595.25" y="1346.6587">object</text><polygon fill="#FEFECE" filter="url(#ftrxabfqlzq69)" points="420.25,1368.6372,432.25,1380.6372,420.25,1392.6372,408.25,1380.6372,420.25,1368.6372" style="stroke: #A80036; stroke-width: 1.5;"/><ellipse cx="420.25" cy="1423.6372" fill="#FFFFFF" filter="url(#ftrxabfqlzq69)" rx="11" ry="11" style="stroke: #000000; stroke-width: 1.0;"/><ellipse cx="420.25" cy="1423.6372" fill="#000000" rx="6" ry="6" style="stroke: #7F7F7F; stroke-width: 1.0;"/><line style="stroke: #A80036; stroke-width: 1.5;" x1="420.25" x2="420.25" y1="30" y2="58.2813"/><polygon fill="#A80036" points="416.25,48.2813,420.25,58.2813,424.25,48.2813,420.25,52.2813" style="stroke: #A80036; stroke-width: 1.0;"/><line style="stroke: #A80036; stroke-width: 1.5;" x1="420.25" x2="420.25" y1="194.5986" y2="217.7471"/><polygon fill="#A80036" points="416.25,207.7471,420.25,217.7471,424.25,207.7471,420.25,211.7471" style="stroke: #A80036; stroke-width: 1.0;"/><line style="stroke: #A80036; stroke-width: 1.5;" x1="420.25" x2="420.25" y1="251.7158" y2="274.8643"/><polygon fill="#A80036" points="416.25,264.8643,420.25,274.8643,424.25,264.8643,420.25,268.8643" style="stroke: #A80036; stroke-width: 1.0;"/><line style="stroke: #A80036; stroke-width: 1.5;" x1="420.25" x2="420.25" y1="308.833" y2="331.9814"/><polygon fill="#A80036" points="416.25,321.9814,420.25,331.9814,424.25,321.9814,420.25,325.9814" style="stroke: #A80036; stroke-width: 1.0;"/><line style="stroke: #A80036; stroke-width: 1.5;" x1="420.25" x2="420.25" y1="92.25" y2="160.6299"/><polygon fill="#A80036" points="416.25,150.6299,420.25,160.6299,424.25,150.6299,420.25,154.6299" style="stroke: #A80036; stroke-width: 1.0;"/><line style="stroke: #A80036; stroke-width: 1.5;" x1="311.25" x2="311.25" y1="465.9189" y2="485.9189"/><polygon fill="#A80036" points="307.25,475.9189,311.25,485.9189,315.25,475.9189,311.25,479.9189" style="stroke: #A80036; stroke-width: 1.0;"/><line style="stroke: #A80036; stroke-width: 1.5;" x1="379.75" x2="311.25" y1="409.9502" y2="409.9502"/><line style="stroke: #A80036; stroke-width: 1.5;" x1="311.25" x2="311.25" y1="409.9502" y2="431.9502"/><polygon fill="#A80036" points="307.25,421.9502,311.25,431.9502,315.25,421.9502,311.25,425.9502" style="stroke: #A80036; stroke-width: 1.0;"/><line style="stroke: #A80036; stroke-width: 1.5;" x1="460.75" x2="529.25" y1="409.9502" y2="409.9502"/><line style="stroke: #A80036; stroke-width: 1.5;" x1="529.25" x2="529.25" y1="409.9502" y2="431.9502"/><polygon fill="#A80036" points="525.25,421.9502,529.25,431.9502,533.25,421.9502,529.25,425.9502" style="stroke: #A80036; stroke-width: 1.0;"/><line style="stroke: #A80036; stroke-width: 1.5;" x1="311.25" x2="311.25" y1="519.8877" y2="537.8877"/><line style="stroke: #A80036; stroke-width: 1.5;" x1="311.25" x2="408.25" y1="537.8877" y2="537.8877"/><polygon fill="#A80036" points="398.25,533.8877,408.25,537.8877,398.25,541.8877,402.25,537.8877" style="stroke: #A80036; stroke-width: 1.0;"/><line style="stroke: #A80036; stroke-width: 1.5;" x1="529.25" x2="529.25" y1="465.9189" y2="537.8877"/><line style="stroke: #A80036; stroke-width: 1.5;" x1="529.25" x2="432.25" y1="537.8877" y2="537.8877"/><polygon fill="#A80036" points="442.25,533.8877,432.25,537.8877,442.25,541.8877,438.25,537.8877" style="stroke: #A80036; stroke-width: 1.0;"/><line style="stroke: #A80036; stroke-width: 1.5;" x1="420.25" x2="420.25" y1="365.9502" y2="397.9502"/><polygon fill="#A80036" points="416.25,387.9502,420.25,397.9502,424.25,387.9502,420.25,391.9502" style="stroke: #A80036; stroke-width: 1.0;"/><line style="stroke: #A80036; stroke-width: 1.5;" x1="378.25" x2="313" y1="581.8877" y2="581.8877"/><line style="stroke: #A80036; stroke-width: 1.5;" x1="313" x2="313" y1="581.8877" y2="603.8877"/><polygon fill="#A80036" points="309,593.8877,313,603.8877,317,593.8877,313,597.8877" style="stroke: #A80036; stroke-width: 1.0;"/><line style="stroke: #A80036; stroke-width: 1.5;" x1="462.25" x2="527.5" y1="581.8877" y2="581.8877"/><line style="stroke: #A80036; stroke-width: 1.5;" x1="527.5" x2="527.5" y1="581.8877" y2="603.8877"/><polygon fill="#A80036" points="523.5,593.8877,527.5,603.8877,531.5,593.8877,527.5,597.8877" style="stroke: #A80036; stroke-width: 1.0;"/><line style="stroke: #A80036; stroke-width: 1.5;" x1="313" x2="313" y1="665.7939" y2="683.7939"/><line style="stroke: #A80036; stroke-width: 1.5;" x1="313" x2="408.25" y1="683.7939" y2="683.7939"/><polygon fill="#A80036" points="398.25,679.7939,408.25,683.7939,398.25,687.7939,402.25,683.7939" style="stroke: #A80036; stroke-width: 1.0;"/><line style="stroke: #A80036; stroke-width: 1.5;" x1="527.5" x2="527.5" y1="637.8564" y2="683.7939"/><line style="stroke: #A80036; stroke-width: 1.5;" x1="527.5" x2="432.25" y1="683.7939" y2="683.7939"/><polygon fill="#A80036" points="442.25,679.7939,432.25,683.7939,442.25,687.7939,438.25,683.7939" style="stroke: #A80036; stroke-width: 1.0;"/><line style="stroke: #A80036; stroke-width: 1.5;" x1="420.25" x2="420.25" y1="549.8877" y2="569.8877"/><polygon fill="#A80036" points="416.25,559.8877,420.25,569.8877,424.25,559.8877,420.25,563.8877" style="stroke: #A80036; stroke-width: 1.0;"/><line style="stroke: #A80036; stroke-width: 1.5;" x1="375.125" x2="375.125" y1="775.7627" y2="798.9111"/><polygon fill="#A80036" points="371.125,788.9111,375.125,798.9111,379.125,788.9111,375.125,792.9111" style="stroke: #A80036; stroke-width: 1.0;"/><line style="stroke: #A80036; stroke-width: 1.5;" x1="375.125" x2="375.125" y1="846.8486" y2="866.8486"/><polygon fill="#A80036" points="371.125,856.8486,375.125,866.8486,379.125,856.8486,375.125,860.8486" style="stroke: #A80036; stroke-width: 1.0;"/><line style="stroke: #A80036; stroke-width: 1.5;" x1="375.125" x2="375.125" y1="942.7236" y2="962.7236"/><polygon fill="#A80036" points="371.125,952.7236,375.125,962.7236,379.125,952.7236,375.125,956.7236" style="stroke: #A80036; stroke-width: 1.0;"/><line style="stroke: #A80036; stroke-width: 1.5;" x1="169.875" x2="169.875" y1="1165.3716" y2="1200.3716"/><polygon fill="#A80036" points="165.875,1190.3716,169.875,1200.3716,173.875,1190.3716,169.875,1194.3716" style="stroke: #A80036; stroke-width: 1.0;"/><line style="stroke: #A80036; stroke-width: 1.5;" x1="289.875" x2="289.875" y1="1165.3716" y2="1200.3716"/><polygon fill="#A80036" points="285.875,1190.3716,289.875,1200.3716,293.875,1190.3716,289.875,1194.3716" style="stroke: #A80036; stroke-width: 1.0;"/><line style="stroke: #A80036; stroke-width: 1.5;" x1="169.875" x2="169.875" y1="1099.6924" y2="1131.4028"/><polygon fill="#A80036" points="165.875,1121.4028,169.875,1131.4028,173.875,1121.4028,169.875,1125.4028" style="stroke: #A80036; stroke-width: 1.0;"/><line style="stroke: #A80036; stroke-width: 1.5;" x1="289.875" x2="289.875" y1="1099.6924" y2="1131.4028"/><polygon fill="#A80036" points="285.875,1121.4028,289.875,1131.4028,293.875,1121.4028,289.875,1125.4028" style="stroke: #A80036; stroke-width: 1.0;"/><line style="stroke: #A80036; stroke-width: 1.5;" x1="226.375" x2="255.875" y1="1087.6924" y2="1087.6924"/><polygon fill="#A80036" points="245.875,1083.6924,255.875,1087.6924,245.875,1091.6924,249.875,1087.6924" style="stroke: #A80036; stroke-width: 1.0;"/><line style="stroke: #A80036; stroke-width: 1.5;" x1="375.125" x2="375.125" y1="1055.6924" y2="1060.6924"/><line style="stroke: #A80036; stroke-width: 1.5;" x1="375.125" x2="169.875" y1="1060.6924" y2="1060.6924"/><line style="stroke: #A80036; stroke-width: 1.5;" x1="169.875" x2="169.875" y1="1060.6924" y2="1075.6924"/><polygon fill="#A80036" points="165.875,1065.6924,169.875,1075.6924,173.875,1065.6924,169.875,1069.6924" style="stroke: #A80036; stroke-width: 1.0;"/><line style="stroke: #A80036; stroke-width: 1.5;" x1="323.875" x2="515.875" y1="1087.6924" y2="1087.6924"/><line style="stroke: #A80036; stroke-width: 1.5;" x1="515.875" x2="515.875" y1="1087.6924" y2="1155.5005"/><polygon fill="#A80036" points="511.875,1145.5005,515.875,1155.5005,519.875,1145.5005,515.875,1149.5005" style="stroke: #A80036; stroke-width: 1.0;"/><line style="stroke: #A80036; stroke-width: 1.5;" x1="515.875" x2="515.875" y1="1189.4692" y2="1230.3716"/><line style="stroke: #A80036; stroke-width: 1.5;" x1="515.875" x2="648.875" y1="1230.3716" y2="1230.3716"/><polygon fill="#A80036" points="644.875,1170.4849,648.875,1160.4849,652.875,1170.4849,648.875,1166.4849" style="stroke: #A80036; stroke-width: 1.5;"/><line style="stroke: #A80036; stroke-width: 1.5;" x1="648.875" x2="648.875" y1="1043.6924" y2="1230.3716"/><line style="stroke: #A80036; stroke-width: 1.5;" x1="648.875" x2="466.625" y1="1043.6924" y2="1043.6924"/><polygon fill="#A80036" points="476.625,1039.6924,466.625,1043.6924,476.625,1047.6924,472.625,1043.6924" style="stroke: #A80036; stroke-width: 1.0;"/><line style="stroke: #A80036; stroke-width: 1.5;" x1="283.625" x2="101.375" y1="1043.6924" y2="1043.6924"/><polygon fill="#A80036" points="97.375,1156.4849,101.375,1166.4849,105.375,1156.4849,101.375,1160.4849" style="stroke: #A80036; stroke-width: 1.5;"/><line style="stroke: #A80036; stroke-width: 1.5;" x1="101.375" x2="101.375" y1="1043.6924" y2="1242.3716"/><line style="stroke: #A80036; stroke-width: 1.5;" x1="101.375" x2="375.125" y1="1242.3716" y2="1242.3716"/><line style="stroke: #A80036; stroke-width: 1.5;" x1="375.125" x2="375.125" y1="1242.3716" y2="1262.3716"/><polygon fill="#A80036" points="371.125,1252.3716,375.125,1262.3716,379.125,1252.3716,375.125,1256.3716" style="stroke: #A80036; stroke-width: 1.0;"/><line style="stroke: #A80036; stroke-width: 1.5;" x1="375.125" x2="375.125" y1="996.6924" y2="1031.6924"/><polygon fill="#A80036" points="371.125,1021.6924,375.125,1031.6924,379.125,1021.6924,375.125,1025.6924" style="stroke: #A80036; stroke-width: 1.0;"/><line style="stroke: #A80036; stroke-width: 1.5;" x1="375.125" x2="375.125" y1="721.7939" y2="741.7939"/><polygon fill="#A80036" points="371.125,731.7939,375.125,741.7939,379.125,731.7939,375.125,735.7939" style="stroke: #A80036; stroke-width: 1.0;"/><line style="stroke: #A80036; stroke-width: 1.5;" x1="420.25" x2="420.25" y1="695.7939" y2="715.7939"/><polygon fill="#A80036" points="416.25,705.7939,420.25,715.7939,424.25,705.7939,420.25,709.7939" style="stroke: #A80036; stroke-width: 1.0;"/><line style="stroke: #A80036; stroke-width: 1.5;" x1="359.25" x2="306.75" y1="1300.3716" y2="1300.3716"/><line style="stroke: #A80036; stroke-width: 1.5;" x1="306.75" x2="306.75" y1="1300.3716" y2="1322.3716"/><polygon fill="#A80036" points="302.75,1312.3716,306.75,1322.3716,310.75,1312.3716,306.75,1316.3716" style="stroke: #A80036; stroke-width: 1.0;"/><line style="stroke: #A80036; stroke-width: 1.5;" x1="481.25" x2="533.75" y1="1300.3716" y2="1300.3716"/><line style="stroke: #A80036; stroke-width: 1.5;" x1="533.75" x2="533.75" y1="1300.3716" y2="1325.52"/><polygon fill="#A80036" points="529.75,1315.52,533.75,1325.52,537.75,1315.52,533.75,1319.52" style="stroke: #A80036; stroke-width: 1.0;"/><line style="stroke: #A80036; stroke-width: 1.5;" x1="306.75" x2="306.75" y1="1356.3403" y2="1380.6372"/><line style="stroke: #A80036; stroke-width: 1.5;" x1="306.75" x2="408.25" y1="1380.6372" y2="1380.6372"/><polygon fill="#A80036" points="398.25,1376.6372,408.25,1380.6372,398.25,1384.6372,402.25,1380.6372" style="stroke: #A80036; stroke-width: 1.0;"/><line style="stroke: #A80036; stroke-width: 1.5;" x1="533.75" x2="533.75" y1="1359.4888" y2="1380.6372"/><line style="stroke: #A80036; stroke-width: 1.5;" x1="533.75" x2="432.25" y1="1380.6372" y2="1380.6372"/><polygon fill="#A80036" points="442.25,1376.6372,432.25,1380.6372,442.25,1384.6372,438.25,1380.6372" style="stroke: #A80036; stroke-width: 1.0;"/><line style="stroke: #A80036; stroke-width: 1.5;" x1="420.25" x2="420.25" y1="1268.3716" y2="1288.3716"/><polygon fill="#A80036" points="416.25,1278.3716,420.25,1288.3716,424.25,1278.3716,420.25,1282.3716" style="stroke: #A80036; stroke-width: 1.0;"/><line style="stroke: #A80036; stroke-width: 1.5;" x1="420.25" x2="420.25" y1="1392.6372" y2="1412.6372"/><polygon fill="#A80036" points="416.25,1402.6372,420.25,1412.6372,424.25,1402.6372,420.25,1406.6372" style="stroke: #A80036; stroke-width: 1.0;"/><!--MD5=[f4c5a2b3ca60852b0121d83495b41693]
@startuml

start

:idpconfgen //sscalc//;
note right
    This pipeline currently uses //mkdssp//
    but can be configured to others by dispaching
    different functions without altering the main
    pipeline
end note

partition #LIGHTGREY Examples {
    #WHITE:$ idpconfgen sscalc mkdssp filtered_pdbs/ -o dssp.json -n;
    note right
        where //filtered_pdbs// is a folder
        containing //*.pdb// files.
    end note
    #WHITE:$ idpconfgen sscalc mkdssp filtered_pdbs.tar -o dssp.json -n;
    note right
        where //filtered_pdb.tar// is a
        tarfile containing pdb files.
    end note
    #WHITE:$ idpconfgen sscalc mkdssp filtered_pdbs.tar -o dssp.json [-rd|- -reduced] -n;
    note right
        //reduced// converts all
        DSSP tags to H, E, or L
    end note
    #WHITE:$ idpconfgen sscalc mkdssp filtered_pdbs.tar -o dssp.json - -complete previous_dssp.json -n;
    }

if (input data) then (tar file)
    :unpack tar to tmp dir;
    note left
        uses only //.pdb// files
    end note
    :tmp dir is deleted at the end;
else (folder)
    :uses //.pdb// files in that folder;
endif

if (- -complete) then (reads previous)
    :reads previous //sscalc//
    information file, and completes
    it with the new calculation;
    note left
        Entries with the same ID
        are overwritten
    end note
else (not given)
    :starts a blank output file;
endif

fork

:subprocess //mkdssp// for the PDB;
note right
    At this stage, single chain
    PDBs are expected;
end note
:identify backbone discontinuity
    as given by DSSP;
note right
    This considers also carbonyl oxigen,
    different from my initial approach;
end note
:collects:
        residue number
        Sec Str character
        FASTA character;

:open PDB file;
 while (for each backbone segment)

if (length segment) then (< minimum)
    :ignore;
    end
elseif (records) then (are all HETATM)
    :ignore;
    end
else (all good)
    :saves segment from PDB in new file;
endif

endwhile (no more segments)
end fork
note right #whitesmoke
    This process is performed in parallel
    where cores extract PDBs from the queue
    until the queue is exhausted
end note

if (save data to disk) then (JSON)
    :saves dictionary to //.json// file;
else (PICKLE)
    :saves dictionary to //pickle// object;
    note right
        //pickle// currently disable for security,
        adds nothing to //json//.
    end note
endif

stop

@enduml

PlantUML version 1.2020.05(Thu Mar 19 17:17:32 EDT 2020)
(GPL source distribution)
Java Runtime: OpenJDK Runtime Environment
JVM: OpenJDK 64-Bit Server VM
Java Version: 11.0.7+10-post-Ubuntu-2ubuntu218.04
Operating System: Linux
Default Encoding: UTF-8
Language: en
Country: US
--></g></svg>