<?xml version="1.0" encoding="UTF-8" standalone="no"?><svg xmlns="http://www.w3.org/2000/svg" xmlns:xlink="http://www.w3.org/1999/xlink" contentScriptType="application/ecmascript" contentStyleType="text/css" height="1001px" preserveAspectRatio="none" style="width:700px;height:1001px;" version="1.1" viewBox="0 0 700 1001" width="700px" zoomAndPan="magnify"><defs><filter height="300%" id="f1vva85gsrahmc" width="300%" x="-1" y="-1"><feGaussianBlur result="blurOut" stdDeviation="2.0"/><feColorMatrix in="blurOut" result="blurOut2" type="matrix" values="0 0 0 0 0 0 0 0 0 0 0 0 0 0 0 0 0 0 .4 0"/><feOffset dx="4.0" dy="4.0" in="blurOut2" result="blurOut3"/><feBlend in="SourceGraphic" in2="blurOut3" mode="normal"/></filter></defs><g><ellipse cx="377.5" cy="20" fill="#000000" filter="url(#f1vva85gsrahmc)" rx="10" ry="10" style="stroke: none; stroke-width: 1.0;"/><rect fill="#FEFECE" filter="url(#f1vva85gsrahmc)" height="33.9688" rx="12.5" ry="12.5" style="stroke: #A80036; stroke-width: 1.5;" width="131" x="312" y="50"/><text fill="#000000" font-family="sans-serif" font-size="12" lengthAdjust="spacingAndGlyphs" textLength="70" x="322" y="71.1387">idpconfgen</text><text fill="#000000" font-family="sans-serif" font-size="12" font-style="italic" lengthAdjust="spacingAndGlyphs" textLength="37" x="396" y="71.1387">sscalc</text><rect fill="#D3D3D3" filter="url(#f1vva85gsrahmc)" height="244.1719" style="stroke: #000000; stroke-width: 2.0;" width="623" x="66" y="94.7705"/><path d="M142,95.7705 L142,104.0674 L132,114.0674 L66,114.0674 " fill="none" style="stroke: #000000; stroke-width: 2.0;"/><text fill="#000000" font-family="sans-serif" font-size="14" lengthAdjust="spacingAndGlyphs" textLength="66" x="69" y="108.7656">Examples</text><rect fill="#FFFFFF" filter="url(#f1vva85gsrahmc)" height="33.9688" rx="12.5" ry="12.5" style="stroke: #A80036; stroke-width: 1.5;" width="382" x="186.5" y="131.0674"/><text fill="#000000" font-family="sans-serif" font-size="12" lengthAdjust="spacingAndGlyphs" textLength="362" x="196.5" y="152.2061">$ idpconfgen sscalc mkdssp filtered_pdbs/ -o dssp.json -n</text><rect fill="#FFFFFF" filter="url(#f1vva85gsrahmc)" height="33.9688" rx="12.5" ry="12.5" style="stroke: #A80036; stroke-width: 1.5;" width="410" x="172.5" y="185.0361"/><text fill="#000000" font-family="sans-serif" font-size="12" lengthAdjust="spacingAndGlyphs" textLength="390" x="182.5" y="206.1748">$ idpconfgen sscalc mkdssp filtered_pdbs.tar -o dssp.pickle -n</text><rect fill="#FFFFFF" filter="url(#f1vva85gsrahmc)" height="33.9688" rx="12.5" ry="12.5" style="stroke: #A80036; stroke-width: 1.5;" width="497" x="129" y="239.0049"/><text fill="#000000" font-family="sans-serif" font-size="12" lengthAdjust="spacingAndGlyphs" textLength="477" x="139" y="260.1436">$ idpconfgen sscalc mkdssp filtered_pdbs.tar -o dssp.pickle [-r|--reduced] -n</text><rect fill="#FFFFFF" filter="url(#f1vva85gsrahmc)" height="33.9688" rx="12.5" ry="12.5" style="stroke: #A80036; stroke-width: 1.5;" width="603" x="76" y="292.9736"/><text fill="#000000" font-family="sans-serif" font-size="12" lengthAdjust="spacingAndGlyphs" textLength="583" x="86" y="314.1123">$ idpconfgen sscalc mkdssp filtered_pdbs.tar -o dssp.pickle --complete previous_dssp.json -n</text><polygon fill="#FEFECE" filter="url(#f1vva85gsrahmc)" points="349,358.9424,406,358.9424,418,370.9424,406,382.9424,349,382.9424,337,370.9424,349,358.9424" style="stroke: #A80036; stroke-width: 1.5;"/><text fill="#000000" font-family="sans-serif" font-size="11" lengthAdjust="spacingAndGlyphs" textLength="57" x="349" y="374.7505">input data</text><text fill="#000000" font-family="sans-serif" font-size="11" lengthAdjust="spacingAndGlyphs" textLength="37" x="300" y="368.3481">tar file</text><text fill="#000000" font-family="sans-serif" font-size="11" lengthAdjust="spacingAndGlyphs" textLength="33" x="418" y="368.3481">folder</text><path d="M10,397.3604 L10,422.4932 A0,0 0 0 0 10,422.4932 L172,422.4932 A0,0 0 0 0 172,422.4932 L172,415.3604 L192,409.9268 L172,407.3604 L172,407.3604 L162,397.3604 L10,397.3604 A0,0 0 0 0 10,397.3604 " fill="#FBFB77" filter="url(#f1vva85gsrahmc)" style="stroke: #A80036; stroke-width: 1.0;"/><path d="M162,397.3604 L162,407.3604 L172,407.3604 L162,397.3604 " fill="#FBFB77" style="stroke: #A80036; stroke-width: 1.0;"/><text fill="#000000" font-family="sans-serif" font-size="13" lengthAdjust="spacingAndGlyphs" textLength="80" x="16" y="414.4272">expects only</text><text fill="#000000" font-family="sans-serif" font-size="13" font-style="italic" lengthAdjust="spacingAndGlyphs" textLength="28" x="100" y="414.4272">.pdb</text><text fill="#000000" font-family="sans-serif" font-size="13" lengthAdjust="spacingAndGlyphs" textLength="25" x="132" y="414.4272">files</text><rect fill="#FEFECE" filter="url(#f1vva85gsrahmc)" height="33.9688" rx="12.5" ry="12.5" style="stroke: #A80036; stroke-width: 1.5;" width="153" x="192" y="392.9424"/><text fill="#000000" font-family="sans-serif" font-size="12" lengthAdjust="spacingAndGlyphs" textLength="133" x="202" y="414.0811">unpack tar to tmp dir</text><rect fill="#FEFECE" filter="url(#f1vva85gsrahmc)" height="33.9688" rx="12.5" ry="12.5" style="stroke: #A80036; stroke-width: 1.5;" width="200" x="168.5" y="446.9111"/><text fill="#000000" font-family="sans-serif" font-size="12" lengthAdjust="spacingAndGlyphs" textLength="180" x="178.5" y="468.0498">tmp dir is deleted at the end</text><rect fill="#FEFECE" filter="url(#f1vva85gsrahmc)" height="33.9688" rx="12.5" ry="12.5" style="stroke: #A80036; stroke-width: 1.5;" width="196" x="388.5" y="392.9424"/><text fill="#000000" font-family="sans-serif" font-size="12" lengthAdjust="spacingAndGlyphs" textLength="30" x="398.5" y="414.0811">uses</text><text fill="#000000" font-family="sans-serif" font-size="12" font-style="italic" lengthAdjust="spacingAndGlyphs" textLength="28" x="432.5" y="414.0811">.pdb</text><text fill="#000000" font-family="sans-serif" font-size="12" lengthAdjust="spacingAndGlyphs" textLength="110" x="464.5" y="414.0811">files in that folder</text><polygon fill="#FEFECE" filter="url(#f1vva85gsrahmc)" points="377.5,486.8799,389.5,498.8799,377.5,510.8799,365.5,498.8799,377.5,486.8799" style="stroke: #A80036; stroke-width: 1.5;"/><polygon fill="#FEFECE" filter="url(#f1vva85gsrahmc)" points="347.5,530.8799,407.5,530.8799,419.5,542.8799,407.5,554.8799,347.5,554.8799,335.5,542.8799,347.5,530.8799" style="stroke: #A80036; stroke-width: 1.5;"/><text fill="#000000" font-family="sans-serif" font-size="11" lengthAdjust="spacingAndGlyphs" textLength="60" x="347.5" y="546.688">--complete</text><text fill="#000000" font-family="sans-serif" font-size="11" lengthAdjust="spacingAndGlyphs" textLength="86" x="249.5" y="540.2856">reads previous</text><text fill="#000000" font-family="sans-serif" font-size="11" lengthAdjust="spacingAndGlyphs" textLength="52" x="419.5" y="540.2856">not given</text><rect fill="#FEFECE" filter="url(#f1vva85gsrahmc)" height="33.9688" rx="12.5" ry="12.5" style="stroke: #A80036; stroke-width: 1.5;" width="267" x="123.5" y="564.8799"/><text fill="#000000" font-family="sans-serif" font-size="12" lengthAdjust="spacingAndGlyphs" textLength="247" x="133.5" y="586.0186">reads previous Sec. Str. information file</text><rect fill="#FEFECE" filter="url(#f1vva85gsrahmc)" height="33.9688" rx="12.5" ry="12.5" style="stroke: #A80036; stroke-width: 1.5;" width="175" x="410.5" y="564.8799"/><text fill="#000000" font-family="sans-serif" font-size="12" lengthAdjust="spacingAndGlyphs" textLength="155" x="420.5" y="586.0186">starts a blank output file</text><polygon fill="#FEFECE" filter="url(#f1vva85gsrahmc)" points="377.5,604.8486,389.5,616.8486,377.5,628.8486,365.5,616.8486,377.5,604.8486" style="stroke: #A80036; stroke-width: 1.5;"/><rect fill="#000000" filter="url(#f1vva85gsrahmc)" height="6" rx="2.5" ry="2.5" style="stroke: #000000; stroke-width: 1.0;" width="255" x="250" y="648.8486"/><rect fill="#FEFECE" filter="url(#f1vva85gsrahmc)" height="33.9688" rx="12.5" ry="12.5" style="stroke: #A80036; stroke-width: 1.5;" width="227" x="264" y="674.8486"/><text fill="#000000" font-family="sans-serif" font-size="12" lengthAdjust="spacingAndGlyphs" textLength="73" x="274" y="695.9873">subprocess</text><text fill="#000000" font-family="sans-serif" font-size="12" font-style="italic" lengthAdjust="spacingAndGlyphs" textLength="46" x="351" y="695.9873">mkdssp</text><text fill="#000000" font-family="sans-serif" font-size="12" lengthAdjust="spacingAndGlyphs" textLength="80" x="401" y="695.9873">on each PDB</text><rect fill="#FEFECE" filter="url(#f1vva85gsrahmc)" height="75.875" rx="12.5" ry="12.5" style="stroke: #A80036; stroke-width: 1.5;" width="166" x="294.5" y="728.8174"/><text fill="#000000" font-family="sans-serif" font-size="12" lengthAdjust="spacingAndGlyphs" textLength="41" x="304.5" y="749.9561">collect</text><text fill="#000000" font-family="sans-serif" font-size="12" lengthAdjust="spacingAndGlyphs" textLength="103" x="336.5" y="763.9248">residue number,</text><text fill="#000000" font-family="sans-serif" font-size="12" lengthAdjust="spacingAndGlyphs" textLength="114" x="336.5" y="777.8936">Sec Str character,</text><text fill="#000000" font-family="sans-serif" font-size="12" lengthAdjust="spacingAndGlyphs" textLength="103" x="336.5" y="791.8623">FASTA character</text><rect fill="#000000" filter="url(#f1vva85gsrahmc)" height="6" rx="2.5" ry="2.5" style="stroke: #000000; stroke-width: 1.0;" width="255" x="250" y="824.6924"/><polygon fill="#FEFECE" filter="url(#f1vva85gsrahmc)" points="328.5,850.6924,426.5,850.6924,438.5,862.6924,426.5,874.6924,328.5,874.6924,316.5,862.6924,328.5,850.6924" style="stroke: #A80036; stroke-width: 1.5;"/><text fill="#000000" font-family="sans-serif" font-size="11" lengthAdjust="spacingAndGlyphs" textLength="98" x="328.5" y="866.5005">save data to disk</text><text fill="#000000" font-family="sans-serif" font-size="11" lengthAdjust="spacingAndGlyphs" textLength="28" x="288.5" y="860.0981">JSON</text><text fill="#000000" font-family="sans-serif" font-size="11" lengthAdjust="spacingAndGlyphs" textLength="38" x="438.5" y="860.0981">PICKLE</text><rect fill="#FEFECE" filter="url(#f1vva85gsrahmc)" height="33.9688" rx="12.5" ry="12.5" style="stroke: #A80036; stroke-width: 1.5;" width="193" x="167.5" y="884.6924"/><text fill="#000000" font-family="sans-serif" font-size="12" lengthAdjust="spacingAndGlyphs" textLength="118" x="177.5" y="905.8311">saves dictionary to</text><text fill="#000000" font-family="sans-serif" font-size="12" font-style="italic" lengthAdjust="spacingAndGlyphs" textLength="29" x="299.5" y="905.8311">.json</text><text fill="#000000" font-family="sans-serif" font-size="12" lengthAdjust="spacingAndGlyphs" textLength="18" x="332.5" y="905.8311">file</text><rect fill="#FEFECE" filter="url(#f1vva85gsrahmc)" height="33.9688" rx="12.5" ry="12.5" style="stroke: #A80036; stroke-width: 1.5;" width="221" x="380.5" y="884.6924"/><text fill="#000000" font-family="sans-serif" font-size="12" lengthAdjust="spacingAndGlyphs" textLength="118" x="390.5" y="905.8311">saves dictionary to</text><text fill="#000000" font-family="sans-serif" font-size="12" font-style="italic" lengthAdjust="spacingAndGlyphs" textLength="36" x="512.5" y="905.8311">pickle</text><text fill="#000000" font-family="sans-serif" font-size="12" lengthAdjust="spacingAndGlyphs" textLength="39" x="552.5" y="905.8311">object</text><polygon fill="#FEFECE" filter="url(#f1vva85gsrahmc)" points="377.5,924.6611,389.5,936.6611,377.5,948.6611,365.5,936.6611,377.5,924.6611" style="stroke: #A80036; stroke-width: 1.5;"/><ellipse cx="377.5" cy="979.6611" fill="#FFFFFF" filter="url(#f1vva85gsrahmc)" rx="11" ry="11" style="stroke: #000000; stroke-width: 1.0;"/><ellipse cx="377.5" cy="979.6611" fill="#000000" rx="6" ry="6" style="stroke: #7F7F7F; stroke-width: 1.0;"/><line style="stroke: #A80036; stroke-width: 1.5;" x1="377.5" x2="377.5" y1="30" y2="50"/><polygon fill="#A80036" points="373.5,40,377.5,50,381.5,40,377.5,44" style="stroke: #A80036; stroke-width: 1.0;"/><line style="stroke: #A80036; stroke-width: 1.5;" x1="377.5" x2="377.5" y1="165.0361" y2="185.0361"/><polygon fill="#A80036" points="373.5,175.0361,377.5,185.0361,381.5,175.0361,377.5,179.0361" style="stroke: #A80036; stroke-width: 1.0;"/><line style="stroke: #A80036; stroke-width: 1.5;" x1="377.5" x2="377.5" y1="219.0049" y2="239.0049"/><polygon fill="#A80036" points="373.5,229.0049,377.5,239.0049,381.5,229.0049,377.5,233.0049" style="stroke: #A80036; stroke-width: 1.0;"/><line style="stroke: #A80036; stroke-width: 1.5;" x1="377.5" x2="377.5" y1="272.9736" y2="292.9736"/><polygon fill="#A80036" points="373.5,282.9736,377.5,292.9736,381.5,282.9736,377.5,286.9736" style="stroke: #A80036; stroke-width: 1.0;"/><line style="stroke: #A80036; stroke-width: 1.5;" x1="377.5" x2="377.5" y1="83.9688" y2="131.0674"/><polygon fill="#A80036" points="373.5,121.0674,377.5,131.0674,381.5,121.0674,377.5,125.0674" style="stroke: #A80036; stroke-width: 1.0;"/><line style="stroke: #A80036; stroke-width: 1.5;" x1="268.5" x2="268.5" y1="426.9111" y2="446.9111"/><polygon fill="#A80036" points="264.5,436.9111,268.5,446.9111,272.5,436.9111,268.5,440.9111" style="stroke: #A80036; stroke-width: 1.0;"/><line style="stroke: #A80036; stroke-width: 1.5;" x1="337" x2="268.5" y1="370.9424" y2="370.9424"/><line style="stroke: #A80036; stroke-width: 1.5;" x1="268.5" x2="268.5" y1="370.9424" y2="392.9424"/><polygon fill="#A80036" points="264.5,382.9424,268.5,392.9424,272.5,382.9424,268.5,386.9424" style="stroke: #A80036; stroke-width: 1.0;"/><line style="stroke: #A80036; stroke-width: 1.5;" x1="418" x2="486.5" y1="370.9424" y2="370.9424"/><line style="stroke: #A80036; stroke-width: 1.5;" x1="486.5" x2="486.5" y1="370.9424" y2="392.9424"/><polygon fill="#A80036" points="482.5,382.9424,486.5,392.9424,490.5,382.9424,486.5,386.9424" style="stroke: #A80036; stroke-width: 1.0;"/><line style="stroke: #A80036; stroke-width: 1.5;" x1="268.5" x2="268.5" y1="480.8799" y2="498.8799"/><line style="stroke: #A80036; stroke-width: 1.5;" x1="268.5" x2="365.5" y1="498.8799" y2="498.8799"/><polygon fill="#A80036" points="355.5,494.8799,365.5,498.8799,355.5,502.8799,359.5,498.8799" style="stroke: #A80036; stroke-width: 1.0;"/><line style="stroke: #A80036; stroke-width: 1.5;" x1="486.5" x2="486.5" y1="426.9111" y2="498.8799"/><line style="stroke: #A80036; stroke-width: 1.5;" x1="486.5" x2="389.5" y1="498.8799" y2="498.8799"/><polygon fill="#A80036" points="399.5,494.8799,389.5,498.8799,399.5,502.8799,395.5,498.8799" style="stroke: #A80036; stroke-width: 1.0;"/><line style="stroke: #A80036; stroke-width: 1.5;" x1="377.5" x2="377.5" y1="326.9424" y2="358.9424"/><polygon fill="#A80036" points="373.5,348.9424,377.5,358.9424,381.5,348.9424,377.5,352.9424" style="stroke: #A80036; stroke-width: 1.0;"/><line style="stroke: #A80036; stroke-width: 1.5;" x1="335.5" x2="257" y1="542.8799" y2="542.8799"/><line style="stroke: #A80036; stroke-width: 1.5;" x1="257" x2="257" y1="542.8799" y2="564.8799"/><polygon fill="#A80036" points="253,554.8799,257,564.8799,261,554.8799,257,558.8799" style="stroke: #A80036; stroke-width: 1.0;"/><line style="stroke: #A80036; stroke-width: 1.5;" x1="419.5" x2="498" y1="542.8799" y2="542.8799"/><line style="stroke: #A80036; stroke-width: 1.5;" x1="498" x2="498" y1="542.8799" y2="564.8799"/><polygon fill="#A80036" points="494,554.8799,498,564.8799,502,554.8799,498,558.8799" style="stroke: #A80036; stroke-width: 1.0;"/><line style="stroke: #A80036; stroke-width: 1.5;" x1="257" x2="257" y1="598.8486" y2="616.8486"/><line style="stroke: #A80036; stroke-width: 1.5;" x1="257" x2="365.5" y1="616.8486" y2="616.8486"/><polygon fill="#A80036" points="355.5,612.8486,365.5,616.8486,355.5,620.8486,359.5,616.8486" style="stroke: #A80036; stroke-width: 1.0;"/><line style="stroke: #A80036; stroke-width: 1.5;" x1="498" x2="498" y1="598.8486" y2="616.8486"/><line style="stroke: #A80036; stroke-width: 1.5;" x1="498" x2="389.5" y1="616.8486" y2="616.8486"/><polygon fill="#A80036" points="399.5,612.8486,389.5,616.8486,399.5,620.8486,395.5,616.8486" style="stroke: #A80036; stroke-width: 1.0;"/><line style="stroke: #A80036; stroke-width: 1.5;" x1="377.5" x2="377.5" y1="510.8799" y2="530.8799"/><polygon fill="#A80036" points="373.5,520.8799,377.5,530.8799,381.5,520.8799,377.5,524.8799" style="stroke: #A80036; stroke-width: 1.0;"/><line style="stroke: #A80036; stroke-width: 1.5;" x1="377.5" x2="377.5" y1="708.8174" y2="728.8174"/><polygon fill="#A80036" points="373.5,718.8174,377.5,728.8174,381.5,718.8174,377.5,722.8174" style="stroke: #A80036; stroke-width: 1.0;"/><line style="stroke: #A80036; stroke-width: 1.5;" x1="377.5" x2="377.5" y1="654.8486" y2="674.8486"/><polygon fill="#A80036" points="373.5,664.8486,377.5,674.8486,381.5,664.8486,377.5,668.8486" style="stroke: #A80036; stroke-width: 1.0;"/><line style="stroke: #A80036; stroke-width: 1.5;" x1="377.5" x2="377.5" y1="804.6924" y2="824.6924"/><polygon fill="#A80036" points="373.5,814.6924,377.5,824.6924,381.5,814.6924,377.5,818.6924" style="stroke: #A80036; stroke-width: 1.0;"/><line style="stroke: #A80036; stroke-width: 1.5;" x1="377.5" x2="377.5" y1="628.8486" y2="648.8486"/><polygon fill="#A80036" points="373.5,638.8486,377.5,648.8486,381.5,638.8486,377.5,642.8486" style="stroke: #A80036; stroke-width: 1.0;"/><line style="stroke: #A80036; stroke-width: 1.5;" x1="316.5" x2="264" y1="862.6924" y2="862.6924"/><line style="stroke: #A80036; stroke-width: 1.5;" x1="264" x2="264" y1="862.6924" y2="884.6924"/><polygon fill="#A80036" points="260,874.6924,264,884.6924,268,874.6924,264,878.6924" style="stroke: #A80036; stroke-width: 1.0;"/><line style="stroke: #A80036; stroke-width: 1.5;" x1="438.5" x2="491" y1="862.6924" y2="862.6924"/><line style="stroke: #A80036; stroke-width: 1.5;" x1="491" x2="491" y1="862.6924" y2="884.6924"/><polygon fill="#A80036" points="487,874.6924,491,884.6924,495,874.6924,491,878.6924" style="stroke: #A80036; stroke-width: 1.0;"/><line style="stroke: #A80036; stroke-width: 1.5;" x1="264" x2="264" y1="918.6611" y2="936.6611"/><line style="stroke: #A80036; stroke-width: 1.5;" x1="264" x2="365.5" y1="936.6611" y2="936.6611"/><polygon fill="#A80036" points="355.5,932.6611,365.5,936.6611,355.5,940.6611,359.5,936.6611" style="stroke: #A80036; stroke-width: 1.0;"/><line style="stroke: #A80036; stroke-width: 1.5;" x1="491" x2="491" y1="918.6611" y2="936.6611"/><line style="stroke: #A80036; stroke-width: 1.5;" x1="491" x2="389.5" y1="936.6611" y2="936.6611"/><polygon fill="#A80036" points="399.5,932.6611,389.5,936.6611,399.5,940.6611,395.5,936.6611" style="stroke: #A80036; stroke-width: 1.0;"/><line style="stroke: #A80036; stroke-width: 1.5;" x1="377.5" x2="377.5" y1="830.6924" y2="850.6924"/><polygon fill="#A80036" points="373.5,840.6924,377.5,850.6924,381.5,840.6924,377.5,844.6924" style="stroke: #A80036; stroke-width: 1.0;"/><line style="stroke: #A80036; stroke-width: 1.5;" x1="377.5" x2="377.5" y1="948.6611" y2="968.6611"/><polygon fill="#A80036" points="373.5,958.6611,377.5,968.6611,381.5,958.6611,377.5,962.6611" style="stroke: #A80036; stroke-width: 1.0;"/><!--MD5=[a34a03919e1b9f4ffe0de8abb1de2f3f]
@startuml

start

:idpconfgen //sscalc//;

partition #LIGHTGREY Examples {
    #WHITE:$ idpconfgen sscalc mkdssp filtered_pdbs/ -o dssp.json -n;
    #WHITE:$ idpconfgen sscalc mkdssp filtered_pdbs.tar -o dssp.pickle -n;
    #WHITE:$ idpconfgen sscalc mkdssp filtered_pdbs.tar -o dssp.pickle [-r|- -reduced] -n;
    #WHITE:$ idpconfgen sscalc mkdssp filtered_pdbs.tar -o dssp.pickle - -complete previous_dssp.json -n;
    }

if (input data) then (tar file)
    :unpack tar to tmp dir;
    note left
        expects only //.pdb// files
    end note
    :tmp dir is deleted at the end;
else (folder)
    :uses //.pdb// files in that folder;
endif

if (- -complete) then (reads previous)
    :reads previous Sec. Str. information file;
else (not given)
    :starts a blank output file;
endif

fork

:subprocess //mkdssp// on each PDB;
:collect
        residue number,
        Sec Str character,
        FASTA character;
end fork

if (save data to disk) then (JSON)
    :saves dictionary to //.json// file;
else (PICKLE)
    :saves dictionary to //pickle// object;
endif

stop

@enduml

PlantUML version 1.2020.05(Thu Mar 19 17:17:32 EDT 2020)
(GPL source distribution)
Java Runtime: OpenJDK Runtime Environment
JVM: OpenJDK 64-Bit Server VM
Java Version: 11.0.7+10-post-Ubuntu-2ubuntu218.04
Operating System: Linux
Default Encoding: UTF-8
Language: en
Country: US
--></g></svg>